<svg width="174" height="48" viewBox="0 0 174 48" fill="none" xmlns="http://www.w3.org/2000/svg">
<g clip-path="url(#clip0_107_975)">
<path d="M134.54 39.052V36.8346H142.242V39.052H139.741V46.9769H137.046V39.052H134.545H134.54Z" fill="#005CA9"/>
<path d="M83.2724 47.1103C82.2887 47.1103 81.3995 46.9102 80.6048 46.5101C79.8101 46.1099 79.1766 45.5264 78.7153 44.7484C78.2485 43.9759 78.0206 43.0256 78.0206 41.9085C78.0206 40.7915 78.254 39.8245 78.7153 39.052C79.1821 38.274 79.8101 37.6904 80.6048 37.2903C81.3995 36.8902 82.2887 36.6956 83.2724 36.6956C84.2561 36.6956 85.1397 36.8957 85.9344 37.2903C86.7291 37.6849 87.3571 38.274 87.8239 39.052C88.2907 39.83 88.5242 40.7804 88.5242 41.9085C88.5242 43.0367 88.2907 43.9814 87.8239 44.7595C87.3571 45.532 86.7291 46.121 85.9344 46.5156C85.1397 46.9102 84.2505 47.1103 83.2724 47.1103ZM83.2724 44.715C83.7614 44.715 84.1727 44.6094 84.5006 44.3927C84.834 44.1759 85.0841 43.8592 85.2508 43.4424C85.4176 43.0256 85.5065 42.5143 85.5065 41.9085C85.5065 41.3028 85.4231 40.7859 85.2508 40.3691C85.0786 39.9523 84.8285 39.63 84.5006 39.4188C84.1671 39.202 83.7614 39.0965 83.2724 39.0965C82.7833 39.0965 82.3832 39.202 82.0498 39.4188C81.7163 39.6355 81.4662 39.9523 81.294 40.3691C81.1217 40.7915 81.0383 41.3028 81.0383 41.9085C81.0383 42.5143 81.1217 43.02 81.294 43.4424C81.4662 43.8592 81.7163 44.1759 82.0498 44.3927C82.3832 44.6094 82.7889 44.715 83.2724 44.715Z" fill="#005CA9"/>
<path d="M98.6165 46.9713V36.829H105.346V39.0464H101.484V40.7637H104.952V42.9255H101.484V44.7483H105.319V46.9658H98.6165V46.9713Z" fill="#005CA9"/>
<path d="M116.145 46.9713V36.829H122.875V39.0464H119.012V40.7637H122.48V42.9255H119.012V44.7483H122.847V46.9658H116.145V46.9713Z" fill="#005CA9"/>
<path d="M112.254 36.829V41.325C112.115 41.3361 111.976 41.3528 111.821 41.3583C111.621 41.3694 111.432 41.375 111.254 41.3805C111.082 41.3805 110.954 41.3861 110.882 41.3861C110.248 41.3861 109.809 41.275 109.576 41.0582C109.337 40.8415 109.22 40.4914 109.22 40.0079V36.8235H106.758V40.0079C106.758 40.7915 106.93 41.4417 107.269 41.9585C107.614 42.4754 108.092 42.8588 108.714 43.1145C109.337 43.3645 110.059 43.4924 110.882 43.4924C110.926 43.4924 111.026 43.4924 111.193 43.4813C111.36 43.4757 111.543 43.4646 111.754 43.4479C111.932 43.4368 112.099 43.4201 112.26 43.4034V46.9602H114.744V36.8179H112.26L112.254 36.829Z" fill="#005CA9"/>
<path d="M128.821 47.1103C127.854 47.1103 126.987 46.9102 126.22 46.5101C125.453 46.1099 124.842 45.5264 124.397 44.7484C123.953 43.9759 123.725 43.0256 123.725 41.9085C123.725 40.7915 123.953 39.8245 124.408 39.052C124.864 38.274 125.475 37.6904 126.248 37.2903C127.02 36.8957 127.876 36.6956 128.821 36.6956C129.488 36.6956 130.105 36.7846 130.666 36.9568C131.227 37.1291 131.722 37.3903 132.144 37.7238C132.567 38.0628 132.906 38.474 133.161 38.9631C133.417 39.4521 133.573 40.0079 133.628 40.6414H130.722C130.705 40.408 130.649 40.1968 130.56 40.0079C130.472 39.8189 130.355 39.6522 130.199 39.5188C130.044 39.3854 129.86 39.2799 129.644 39.202C129.427 39.1298 129.182 39.0909 128.904 39.0909C128.426 39.0909 128.021 39.202 127.687 39.4299C127.354 39.6522 127.104 39.9745 126.931 40.3969C126.759 40.8193 126.676 41.3194 126.676 41.9141C126.676 42.5087 126.765 43.0478 126.937 43.4646C127.109 43.8814 127.365 44.1926 127.693 44.4038C128.021 44.615 128.421 44.715 128.888 44.715C129.154 44.715 129.388 44.6817 129.599 44.6205C129.805 44.5594 129.988 44.4649 130.144 44.3427C130.299 44.2204 130.427 44.0703 130.522 43.8981C130.616 43.7258 130.683 43.5313 130.716 43.3145H133.623C133.589 43.748 133.467 44.1871 133.25 44.6316C133.034 45.0762 132.728 45.4875 132.328 45.8654C131.928 46.2377 131.439 46.5434 130.849 46.7713C130.266 46.9991 129.588 47.1158 128.81 47.1158L128.821 47.1103Z" fill="#005CA9"/>
<path d="M89.1244 39.052V36.8346H97.1938V39.052H94.5707V46.9769H91.7475V39.052H89.1244Z" fill="#005CA9"/>
<path d="M143.648 46.9713V36.829H148.233C149.039 36.829 149.711 36.9346 150.262 37.1402C150.812 37.3514 151.223 37.6404 151.501 38.0239C151.779 38.4018 151.918 38.8464 151.918 39.3632C151.918 39.7355 151.834 40.0745 151.662 40.3858C151.49 40.697 151.256 40.9526 150.951 41.1582C150.645 41.3639 150.289 41.5084 149.878 41.5862V41.6973C150.334 41.7084 150.745 41.8196 151.117 42.0196C151.49 42.2197 151.784 42.5031 152.007 42.8588C152.229 43.2145 152.335 43.6313 152.335 44.1092C152.335 44.665 152.185 45.154 151.89 45.5875C151.595 46.021 151.168 46.36 150.612 46.6101C150.056 46.8602 149.4 46.9824 148.633 46.9824H143.654L143.648 46.9713ZM146.516 40.9248H147.694C147.944 40.9248 148.167 40.8859 148.355 40.8137C148.544 40.7414 148.694 40.6303 148.806 40.4858C148.917 40.3413 148.967 40.169 148.967 39.9578C148.967 39.6466 148.85 39.4132 148.617 39.2409C148.383 39.0742 148.089 38.9909 147.733 38.9909H146.51V40.9248H146.516ZM146.516 44.7761H147.866C148.344 44.7761 148.706 44.6872 148.95 44.5094C149.195 44.3315 149.317 44.0759 149.317 43.7424C149.317 43.5035 149.261 43.2979 149.145 43.1311C149.028 42.9644 148.867 42.8421 148.661 42.7532C148.45 42.6699 148.2 42.6254 147.911 42.6254H146.521V44.7761H146.516Z" fill="#005CA9"/>
<path d="M160.532 46.9713H163.133L158.531 36.829H156.836L152.234 46.9713H154.802L155.691 45.0262H159.637L160.526 46.9713H160.532ZM156.63 42.97L157.625 40.797H157.709L158.703 42.97H156.63Z" fill="#005CA9"/>
<path d="M81.9109 33.4668C81.1551 33.4668 80.4826 33.3279 79.8935 33.0555C79.3045 32.7832 78.8487 32.3998 78.5153 31.9163C78.1819 31.4328 78.0151 30.8715 78.0151 30.2435H80.6327C80.6327 30.438 80.6883 30.6103 80.7994 30.7659C80.9106 30.9159 81.0662 31.0382 81.2662 31.1216C81.4663 31.2105 81.6886 31.2494 81.9387 31.2494C82.1888 31.2494 82.3888 31.2049 82.5722 31.116C82.7556 31.0271 82.8946 30.8993 83.0001 30.7437C83.1002 30.5825 83.1502 30.3991 83.1502 30.1935C83.1502 29.9878 83.0891 29.8044 82.9724 29.6433C82.8557 29.4821 82.6889 29.3654 82.4777 29.2765C82.2666 29.1876 82.0165 29.1431 81.7331 29.1431H80.7549V27.2369H81.7331C81.9887 27.2369 82.2165 27.1925 82.4166 27.098C82.6167 27.0091 82.7667 26.8812 82.8834 26.7256C83.0001 26.57 83.0502 26.3866 83.0502 26.1866C83.0502 25.9865 83.0001 25.8142 82.9057 25.6642C82.8112 25.5141 82.6834 25.3974 82.5166 25.3085C82.3499 25.2196 82.161 25.1807 81.9387 25.1807C81.6997 25.1807 81.483 25.2251 81.294 25.314C81.1051 25.403 80.9606 25.5252 80.855 25.6808C80.7494 25.8364 80.6994 26.0198 80.6994 26.231H78.1985C78.1985 25.6086 78.3597 25.0584 78.682 24.586C79.0044 24.1081 79.4434 23.7357 80.0102 23.469C80.5715 23.1967 81.2162 23.0633 81.9442 23.0633C82.6723 23.0633 83.2836 23.1911 83.8282 23.4468C84.3728 23.7024 84.8007 24.0525 85.1064 24.4971C85.4121 24.9417 85.5677 25.4474 85.5677 26.0198C85.5677 26.5923 85.3843 27.048 85.0119 27.4092C84.6396 27.776 84.1672 27.9927 83.5948 28.0594V28.1261C84.3673 28.215 84.9508 28.4651 85.3343 28.8764C85.7233 29.2876 85.9122 29.8044 85.9122 30.4269C85.9122 31.0493 85.74 31.5495 85.4009 32.0107C85.0619 32.472 84.5896 32.8332 83.9894 33.0889C83.3892 33.3445 82.6945 33.4779 81.9109 33.4779V33.4668Z" fill="#005CA9"/>
<path d="M111.026 31.2883V23.1856H108.298V31.2049H105.825V23.1856H103.101V31.2049H100.562V23.1856H97.8052V33.3279H109.515H110.27V34.6894H112.91V31.2883H111.026Z" fill="#005CA9"/>
<path d="M113.916 23.1856H116.695V28.4929H116.778L121.174 23.1856H122.775V33.3279H119.996V28.0039H119.929L115.517 33.3279H113.916V23.1856Z" fill="#005CA9"/>
<path d="M143.637 23.1856H146.477V28.4929H146.56L151.051 23.1856H152.69V33.3279H149.85V28.0039H149.778L145.277 33.3279H143.637V23.1856Z" fill="#005CA9"/>
<path d="M164.789 23.1856H167.601V28.4929H167.684L172.13 23.1856H173.753V33.3279H170.941V28.0039H170.869L166.406 33.3279H164.783V23.1856H164.789Z" fill="#005CA9"/>
<path d="M124.175 25.3807V23.1633H131.878V25.3807H129.377V33.3056H126.681V25.3807H124.181H124.175Z" fill="#005CA9"/>
<path d="M133.284 33.3279V23.1856H135.973V27.148H139.541V23.1856H142.231V33.3279H139.541V29.3654H135.973V33.3279H133.284Z" fill="#005CA9"/>
<path d="M160.309 33.3279L157.22 29.2321H156.825V33.3279H154.091V23.1856H156.825V27.0091H157.175L160.07 23.1856H163.522L159.676 28.0594L163.738 33.3279H160.298H160.309Z" fill="#005CA9"/>
<path d="M94.2873 33.1945H96.8604L92.3033 23.0522H90.625L86.0679 33.1945H88.6132L89.4912 31.2494H93.3981L94.2762 33.1945H94.2873ZM90.4249 29.1931L91.4086 27.0202H91.4919L92.4756 29.1931H90.4249Z" fill="#005CA9"/>
<path d="M16.2555 33.3223H16.3333C16.9057 33.289 17.4336 33.2612 17.8949 33.2278C18.2228 33.2056 19.4788 33.05 20.0678 33.4335L20.4235 34.5449C20.4124 34.5005 20.2568 34.017 20.2568 34.017L19.3176 31.0882C19.3176 31.0882 18.8174 31.1938 18.1728 31.3439C16.5111 31.7607 14.8383 32.3164 13.3767 33.0889C14.1158 33.2556 15.0662 33.3723 16.2555 33.3112V33.3223Z" fill="black"/>
<path d="M18.0671 35.9065C17.6003 35.9343 17.0668 35.9676 16.461 36.001H16.3776C16.122 36.0177 15.8719 36.0232 15.633 36.0232C13.3322 36.0232 11.7261 35.4842 10.8425 35.0785C10.6646 35.3508 10.5312 35.6509 10.4757 35.9565C10.459 36.051 10.4534 36.1344 10.4479 36.2122C10.4479 36.2233 10.4479 36.2344 10.4479 36.2455C10.4923 36.3845 10.5368 36.5178 10.5813 36.629C10.6868 36.9291 10.8202 37.307 10.8369 37.3292C10.9647 37.5126 11.1148 37.696 11.6205 37.9628C12.1484 38.2406 12.8654 38.424 13.8601 38.6074C14.5882 38.7408 15.4996 38.9298 16.4832 38.8797C16.4999 38.8797 16.5166 38.8797 16.5388 38.8797C16.7667 38.8686 16.9778 38.852 17.1835 38.8408H17.3002C18.834 38.7408 19.7788 38.6741 20.429 38.6908H20.4401C20.5457 38.6908 20.6457 38.7019 20.7402 38.7075H20.7847C20.8736 38.7186 20.957 38.7352 21.0348 38.7464H21.0514C21.1348 38.7686 21.2182 38.7853 21.2904 38.813C21.3571 38.8353 21.4238 38.8631 21.4849 38.8964C21.5016 38.902 21.5183 38.9131 21.5349 38.9186C21.585 38.9464 21.6294 38.9742 21.6794 39.002C21.6961 39.0131 21.7128 39.0242 21.7294 39.0353C21.7906 39.0742 21.8517 39.1243 21.9073 39.1743L20.9014 36.0232C20.6346 35.8065 20.5068 35.7676 18.0782 35.9121L18.0671 35.9065Z" fill="black"/>
<path d="M10.4479 36.4678C10.4479 36.5289 10.4645 36.5956 10.4757 36.6567C10.509 36.6456 10.5479 36.6345 10.5813 36.6234C10.5424 36.5122 10.4979 36.3789 10.4479 36.2399C10.4479 36.2733 10.4479 36.3122 10.4479 36.3511C10.4479 36.39 10.4479 36.4344 10.4479 36.4678Z" fill="black"/>
<path d="M10.4812 36.7068C10.4868 36.7401 10.4979 36.7679 10.5034 36.7901C10.5257 36.8846 10.559 36.9735 10.6035 37.0625C10.8313 37.4959 11.3315 37.846 11.5927 37.985C12.0762 38.2351 12.7542 38.5018 13.6267 38.6797C13.6934 38.6519 13.7656 38.6241 13.8323 38.5963H13.8601C12.8653 38.4185 12.1484 38.2351 11.6205 37.9572C11.1092 37.6904 10.9647 37.507 10.8369 37.3236C10.8202 37.3014 10.6868 36.9235 10.5812 36.6234C10.5479 36.6345 10.5145 36.6456 10.4812 36.6568C10.4812 36.6734 10.4812 36.6901 10.4868 36.7068H10.4812Z" fill="black"/>
<path d="M10.4981 36.7741L10.4868 36.7401C10.4868 36.7401 10.4925 36.7628 10.4981 36.7741Z" fill="#DE5A13"/>
<path d="M10.4757 36.6626C10.5092 36.6514 10.5484 36.6402 10.5763 36.629C10.5428 36.6402 10.5092 36.6514 10.4701 36.6626H10.4757Z" fill="black"/>
<path d="M21.674 39.002C21.674 39.002 21.7075 39.0244 21.7243 39.0355C21.7075 39.0244 21.6907 39.0132 21.674 39.002Z" fill="#DE5A13"/>
<path d="M21.4794 38.8964C21.4794 38.8964 21.5129 38.9132 21.5297 38.9188C21.5129 38.9132 21.4961 38.902 21.4794 38.8964Z" fill="#DE5A13"/>
<path d="M16.4832 38.8742C15.4995 38.9242 14.5881 38.7352 13.8601 38.6019C13.7934 38.6297 13.7267 38.6574 13.66 38.6852C14.4436 38.8408 15.3828 38.9353 16.4832 38.8742Z" fill="black"/>
<path d="M13.6268 38.6797H13.6546C13.7212 38.6574 13.7935 38.6297 13.8546 38.6019H13.8268C13.7602 38.6241 13.6879 38.6519 13.6212 38.6797H13.6268Z" fill="black"/>
<path d="M9.56981 33.878C7.30238 34.6449 4.30692 35.4952 0.872437 35.8176L1.73384 38.574C5.11831 38.2739 8.1082 37.4626 10.459 36.6623C10.3423 36.3011 10.0088 35.2507 9.56981 33.8725V33.878Z" fill="#FBBB30"/>
<path d="M10.4757 36.6623C10.4645 36.5957 10.4534 36.5345 10.4479 36.4734C10.4534 36.5512 10.4645 36.6123 10.4701 36.6623H10.4757Z" fill="black"/>
<path d="M17.1834 38.8353C16.9778 38.8464 16.7666 38.8575 16.5388 38.8742C16.5221 38.8742 16.4999 38.8742 16.4832 38.8742C15.3828 38.9298 14.4436 38.8408 13.66 38.6852H13.6323C10.9869 39.7523 7.10228 40.8971 2.60632 41.2806L3.47884 43.9981C3.85674 43.9648 4.23465 43.9315 4.607 43.8925C4.77372 43.8759 4.93488 43.8536 5.10161 43.8314C5.29612 43.8092 5.49618 43.787 5.69069 43.7592C5.91299 43.7314 6.13529 43.698 6.35758 43.6647C6.47985 43.648 6.59655 43.6313 6.71882 43.6091C6.98557 43.5647 7.24677 43.5202 7.50797 43.4757C7.5691 43.4646 7.62468 43.4535 7.68581 43.4424C7.98591 43.3868 8.28045 43.3312 8.575 43.2701H8.59167C9.51976 43.0756 10.4089 42.8644 11.2481 42.6366C11.4649 42.5754 11.676 42.5143 11.8817 42.4532C11.9706 42.4254 12.0595 42.4032 12.1429 42.3754C12.4041 42.2976 12.6541 42.2198 12.9042 42.1364C12.9542 42.1197 13.0098 42.1031 13.0598 42.0864C13.271 42.0197 13.4711 41.9474 13.6767 41.8752C13.7934 41.8363 13.9101 41.7918 14.0268 41.7529C14.1546 41.7085 14.2825 41.6585 14.4047 41.614C14.6215 41.5306 14.8327 41.4528 15.0327 41.3695C15.0605 41.3584 15.0883 41.3472 15.1161 41.3361C16.172 40.9082 17.0501 40.4858 17.6947 40.0968C18.4728 39.6356 19.123 39.1576 19.5954 38.6852C19.023 38.7075 18.2838 38.7575 17.3057 38.8186H17.189L17.1834 38.8353Z" fill="#FBBB30"/>
<path d="M20.0678 33.4335C19.4787 33.05 18.2283 33.2056 17.8948 33.2278C17.4336 33.2556 16.9056 33.289 16.3332 33.3167H16.2554C15.0661 33.3779 14.1102 33.2612 13.3767 33.0945C12.7709 33.4112 12.1985 33.7669 11.6816 34.1615C11.3649 34.406 11.0648 34.7172 10.8369 35.0729C11.7205 35.4786 13.3266 36.0177 15.6274 36.0177C15.8664 36.0177 16.1165 36.0121 16.3721 36.001H16.4555C17.0612 35.9676 17.5947 35.9343 18.0616 35.9065C20.4902 35.762 20.618 35.8009 20.8847 36.0177L20.4124 34.5449L20.0567 33.4335H20.0678Z" fill="#DE5A13"/>
<path d="M8.61952 26.2699C9.39756 25.5641 10.2812 24.975 11.2371 24.536C14.377 23.0966 17.7504 22.3686 21.146 21.9518C23.5634 21.6572 26.1532 21.5405 28.5985 21.435L24.9583 18.7785C23.3967 18.8563 21.8406 18.9563 20.3068 19.1453C16.9112 19.5621 13.5378 20.2901 10.3979 21.7295C9.44202 22.1685 8.55839 22.7576 7.78035 23.4634C7.2524 23.9414 6.94118 24.7138 6.80225 25.1695C7.06345 25.9809 7.35799 26.9146 7.67476 27.8982C7.82481 27.437 8.13047 26.7201 8.63064 26.2699H8.61952Z" fill="#FBBB30"/>
<path d="M32.2052 24.0692C31.4272 24.097 30.4657 24.2193 29.6877 24.2526C27.1702 24.3582 24.6305 24.4471 22.1407 24.7528C18.7451 25.1696 15.3718 25.8976 12.2318 27.337C11.276 27.776 10.3923 28.3651 9.61429 29.0709C9.05299 29.5822 8.73622 30.4214 8.6084 30.8604L8.66953 31.0605C8.93073 31.8774 9.18081 32.6721 9.41423 33.389C9.42534 33.3501 9.44757 33.3057 9.46424 33.2668C9.63652 32.8222 9.90884 32.2553 10.3312 31.8718C11.1092 31.166 11.9929 30.577 12.9487 30.1379C16.0887 28.6986 19.462 27.9705 22.8576 27.5537C25.3474 27.2481 27.8871 27.1591 30.4046 27.0536C30.8381 27.0313 31.266 27.0202 31.6995 27.0035L32.5665 24.3026L32.2052 24.0637V24.0692Z" fill="#FBBB30"/>
<path d="M21.7239 39.0353C21.7239 39.0353 21.6905 39.0131 21.6738 39.002C21.6238 38.9686 21.5794 38.9408 21.5293 38.9186C21.5127 38.913 21.496 38.9019 21.4793 38.8964C21.4182 38.8686 21.3515 38.8408 21.2848 38.813C21.207 38.7852 21.1292 38.763 21.0458 38.7463H21.0292C20.9514 38.7297 20.868 38.7185 20.7791 38.7074H20.7346C20.6402 38.6963 20.5457 38.6908 20.4345 38.6852H20.4234C20.1844 38.6796 19.9121 38.6852 19.5842 38.6963C19.1119 39.1687 18.4616 39.6466 17.6836 40.1079C17.0389 40.4914 16.1609 40.9193 15.105 41.3472C15.0772 41.3583 15.0494 41.3694 15.0216 41.3805C14.816 41.4639 14.6104 41.5417 14.3936 41.6251C14.2713 41.6695 14.1435 41.7195 14.0157 41.764C13.899 41.8029 13.7823 41.8474 13.6656 41.8863C13.4655 41.9585 13.2599 42.0252 13.0487 42.0975C12.9987 42.1141 12.9431 42.1308 12.8931 42.1475C12.643 42.2308 12.3929 42.3086 12.1317 42.3864C12.0484 42.4142 11.9539 42.4365 11.8705 42.4642C11.676 42.5198 11.4926 42.5754 11.2926 42.631C11.2759 42.631 11.2537 42.6421 11.2314 42.6476C10.3978 42.8755 9.50308 43.0867 8.57499 43.2812H8.55832C8.26377 43.3423 7.96923 43.4034 7.66913 43.459C7.608 43.4701 7.55242 43.4813 7.49129 43.4924C7.23009 43.5368 6.96889 43.5813 6.70214 43.6257C6.58543 43.6424 6.46317 43.6646 6.3409 43.6813C6.11861 43.7147 5.90187 43.748 5.67401 43.7758C5.4795 43.8036 5.28499 43.8258 5.08493 43.848C4.9182 43.8703 4.75704 43.8869 4.59032 43.9092C4.21797 43.9481 3.84006 43.987 3.46216 44.0148L4.33467 46.749C11.1703 46.2266 17.0278 44.1148 19.3897 42.5309C21.0292 41.4306 22.2629 40.5358 21.8906 39.1854C21.8294 39.1353 21.7683 39.0909 21.7127 39.0464L21.7239 39.0353Z" fill="black"/>
<path d="M6.79111 25.1696C6.93004 24.7139 7.24126 23.9469 7.76921 23.4634C8.54725 22.7576 9.43088 22.1686 10.3868 21.7295C13.5267 20.2902 16.9001 19.5621 20.2956 19.1453C21.8351 18.9564 23.3911 18.8563 24.9472 18.7785L21.3516 16.1499C20.2845 16.2166 19.5287 16.2721 19.0508 16.3333C17.567 16.5278 16.0942 16.7667 14.6604 17.0891C13.2266 17.4114 11.8039 17.8393 10.459 18.4062C9.08077 18.9897 7.77477 19.8178 6.66884 20.8292C5.92415 21.5072 5.90748 22.3964 5.92415 22.4409C5.92415 22.4409 6.27982 23.5579 6.79111 25.164V25.1696Z" fill="black"/>
<path d="M22.8576 27.5593C19.462 27.9761 16.0887 28.7041 12.9487 30.1435C11.9929 30.5825 11.1092 31.1716 10.3312 31.8774C9.90883 32.2609 9.63096 32.8222 9.46424 33.2723C9.44756 33.3112 9.43089 33.3557 9.41422 33.3946C9.18636 32.6721 8.93072 31.883 8.66952 31.066C6.441 31.7885 3.59004 32.4943 -0.00561523 33.0889L0.8669 35.8176C4.30139 35.4953 7.29684 34.645 9.56427 33.8781C10.0033 35.2563 10.3368 36.3067 10.4535 36.6679C8.09711 37.4682 5.11277 38.274 1.7283 38.5796L2.59526 41.2861C7.09122 40.9026 10.9759 39.7578 13.6212 38.6852C12.7487 38.5074 12.0707 38.2462 11.5872 37.9906C11.326 37.8516 10.8258 37.5015 10.5979 37.068C10.5535 36.9791 10.5201 36.8846 10.4979 36.7957C10.4924 36.779 10.4868 36.7513 10.4757 36.7123C10.4757 36.6957 10.4757 36.679 10.4701 36.6623C10.459 36.6123 10.4535 36.5456 10.4479 36.4734C10.4479 36.4345 10.4479 36.3956 10.4479 36.3567C10.4479 36.3178 10.4479 36.2844 10.4479 36.24C10.4479 36.2289 10.4479 36.2233 10.4479 36.2122C10.4479 36.1288 10.459 36.0455 10.4757 35.9565C10.5313 35.6509 10.6646 35.3563 10.8425 35.0785C11.0703 34.7284 11.3704 34.4116 11.6872 34.1671C12.204 33.7669 12.7765 33.4168 13.3822 33.1C14.8494 32.3275 16.5166 31.7662 18.1783 31.355C20.09 30.8771 21.9851 30.5881 23.5134 30.3769C26.2088 30.0045 30.5824 29.9101 30.7881 29.8767L31.705 27.0202C31.2716 27.0369 30.8436 27.048 30.4102 27.0702C27.8927 27.1758 25.3529 27.2647 22.8632 27.5704L22.8576 27.5593Z" fill="black"/>
<path d="M11.237 24.536C10.2811 24.975 9.39749 25.5641 8.61945 26.2699C8.11928 26.7201 7.81362 27.437 7.66357 27.8982C7.97479 28.8708 8.29712 29.8822 8.60834 30.8659C8.73616 30.4269 9.05293 29.5821 9.61423 29.0764C10.3923 28.3706 11.2759 27.7815 12.2318 27.3425C15.3717 25.9031 18.7451 25.1751 22.1407 24.7583C24.6304 24.4526 27.1701 24.3637 29.6876 24.2581C30.4657 24.2192 31.4271 24.1025 32.2052 24.0747L28.5928 21.4405C26.1476 21.5406 23.5578 21.6573 21.1403 21.9574C17.7447 22.3742 14.3714 23.1022 11.2314 24.5416L11.237 24.536Z" fill="black"/>
<path d="M33.4556 24.0692L29.7322 35.7231L40.2579 28.2206L50.817 35.7453L47.0769 24.0692L57.9472 16.1387L44.3871 15.633L40.269 2.76202L36.1454 15.633L22.5964 16.1332L33.4556 24.0692Z" fill="#E30613"/>
<path d="M63.8937 7.86376C63.8937 7.86376 63.9326 7.86376 63.9492 7.86376C67.5449 6.27989 70.9016 5.54075 77.5371 4.54597L76.0866 0C69.251 0.522398 63.3935 2.63422 61.0316 4.21809C59.3921 5.31846 58.1584 6.2132 58.5307 7.56365C59.3477 8.25278 60.009 8.08049 63.8992 7.86376H63.8937Z" fill="#F2EFF0"/>
<path d="M70.0957 10.6202C70.0068 10.3479 69.9345 10.1312 69.8678 9.94223C69.7678 9.64769 69.6066 9.44762 69.5511 9.36982C69.4732 9.25311 69.2899 9.02526 68.7786 8.76406C67.856 8.28612 66.2333 7.75261 63.888 7.87487C63.8714 7.87487 63.8547 7.87487 63.8325 7.87487C59.9478 8.09161 59.2865 8.26389 58.464 7.57477L59.9423 12.193C59.9812 12.1985 60.0201 12.2041 60.0645 12.2097C60.1312 12.2208 60.2035 12.2319 60.2702 12.2374C61.1593 12.343 61.9485 12.2763 63.1322 12.2597C63.2323 12.2597 63.3212 12.2597 63.4268 12.2597C64.7717 12.2597 65.6331 12.2708 66.2555 12.2986C66.4222 12.3041 66.5723 12.3153 66.7057 12.3264C67.3948 12.3764 67.7504 12.4486 68.3451 12.532C68.4729 12.5487 68.5841 12.5653 68.6897 12.5876C69.3788 12.0207 69.6789 11.5317 69.8178 11.1204C69.8178 11.1093 69.8178 11.1037 69.8234 11.0982C69.8567 10.9926 69.8789 10.8981 69.8956 10.8036C69.9734 10.359 69.8956 10.0423 69.8623 9.95335C69.8789 10.0089 69.9456 10.1923 70.0901 10.6314L70.0957 10.6202Z" fill="#C6C6C6"/>
<path d="M68.3451 12.5264C67.7505 12.4375 67.3948 12.3652 66.7057 12.3208C66.5723 12.3097 66.4223 12.3041 66.2555 12.293C65.6331 12.2652 64.7717 12.2485 63.4268 12.2541C63.3212 12.2541 63.2323 12.2541 63.1323 12.2541C61.9485 12.2708 61.6651 12.3208 60.5536 12.2541C60.3424 12.243 59.9979 12.1207 59.8534 11.8873L60.1202 12.7209L61.076 15.6997C61.076 15.6997 61.1761 15.6719 61.1983 15.6719C61.3483 15.6386 61.4928 15.6052 61.6429 15.5719C62.0541 15.4774 62.4487 15.3774 62.8322 15.2773C63.2268 15.1717 63.6047 15.0661 63.9659 14.955H63.9826C64.5883 14.7605 65.1385 14.5604 65.6164 14.3492C67.1003 13.6935 68.0617 13.1044 68.7008 12.582C68.5952 12.5653 68.4841 12.5486 68.3563 12.5264H68.3451Z" fill="#183E75"/>
<path d="M70.9516 13.3378C70.746 12.6876 70.6015 12.1763 70.4625 11.7428C70.3625 11.4316 70.2792 11.1815 70.2069 10.9648C70.1791 10.8759 70.1513 10.7925 70.1291 10.7203L70.0958 10.6202C69.9513 10.1812 69.8901 9.9978 69.8679 9.94223C69.8957 10.0311 69.9791 10.3479 69.9012 10.7925C69.8846 10.887 69.8623 10.9815 69.829 11.0871C69.829 11.0982 69.829 11.1037 69.8234 11.1093C69.6845 11.5205 69.3844 12.0096 68.6953 12.5764C68.0617 13.0988 67.0947 13.6879 65.6109 14.3437C65.133 14.5549 64.5828 14.755 63.977 14.9439H63.9604C63.6047 15.0606 63.2212 15.1662 62.8266 15.2718C62.4432 15.3718 62.0486 15.4719 61.6374 15.5663C61.4929 15.5997 61.3428 15.633 61.1928 15.6664C61.1705 15.6664 61.1539 15.6775 61.1316 15.683C61.1094 15.683 61.0816 15.6942 61.0594 15.6997C60.3647 15.8498 59.1976 16.1443 59.1976 16.1443L51.7007 21.6128C51.7007 21.6128 56.8858 21.3405 58.3696 21.1516C59.8534 20.9626 61.3261 20.7181 62.76 20.3957C63.0656 20.3291 63.3768 20.2513 63.688 20.1679C63.6992 20.1679 63.7158 20.1623 63.7269 20.1568C63.7436 20.1568 63.7603 20.1512 63.7714 20.1457C63.9381 20.1012 64.1049 20.0512 64.2771 20.0012C65.2108 19.7344 66.1333 19.4232 66.9614 19.0731C68.3118 18.5007 69.7845 17.7115 70.7515 16.65C71.0016 16.3777 71.1795 16.0387 71.3017 15.7442C71.4518 15.3829 71.5129 15.0828 71.4962 15.0384L71.6574 15.5386C71.3962 14.6883 71.1461 13.9491 70.9516 13.3323V13.3378Z" fill="#E6E6E6"/>
<path d="M70.9516 13.3378C71.1461 13.9547 71.3962 14.6994 71.6574 15.5441L71.6852 15.6275C73.9193 14.8994 76.7647 14.1936 80.3714 13.5934L78.9154 9.03079C75.1363 9.64767 72.3187 10.309 70.2069 10.9648C70.2792 11.1815 70.3625 11.4316 70.4626 11.7428C70.6015 12.1707 70.7515 12.6876 70.9516 13.3378Z" fill="#E30613"/>
<path d="M68.7786 8.75852C69.2899 9.02528 69.5122 9.31426 69.5955 9.43097C69.6845 9.55879 69.8956 9.98115 70.0901 10.6203L70.1235 10.7203C70.1457 10.7925 70.1735 10.8759 70.2013 10.9648C72.3131 10.309 75.1307 9.64771 78.9098 9.03083L77.5371 4.54044L77.476 4.55155C70.8404 5.54633 67.4782 6.28547 63.8881 7.86933C66.2333 7.74707 67.8561 8.28058 68.7786 8.75852Z" fill="#005CA9"/>
<path d="M72.4132 17.9282C72.2076 17.278 72.0631 16.7667 71.9241 16.3332C71.8241 16.022 71.7407 15.7719 71.6685 15.5552C71.6407 15.4663 71.6129 15.3829 71.5907 15.3107L71.5573 15.2106C71.4128 14.7716 71.3517 14.5882 71.3295 14.5326C71.3573 14.6215 71.4406 14.9383 71.3628 15.3829C71.3462 15.4774 71.3239 15.5719 71.2906 15.6775C71.2906 15.6886 71.2906 15.6941 71.285 15.6997C71.1461 16.1109 70.846 16.6 70.1569 17.1668C69.5233 17.6892 68.5563 18.2783 67.0725 18.9341C66.5946 19.1453 66.0444 19.3454 65.4386 19.5343H65.4219C64.2771 19.9011 63.4157 20.2012 61.9708 20.4513C57.9194 21.1571 52.601 21.4183 52.0119 21.4794C52.0008 21.4794 51.8618 21.5127 51.8729 21.4961L47.955 24.3581L48.633 26.47C48.633 26.47 58.3529 25.9309 59.8367 25.7419C61.3206 25.553 62.7933 25.3085 64.2271 24.9861C65.6609 24.6638 67.0836 24.2359 68.4285 23.669C69.8067 23.0855 71.2128 22.3519 72.2187 21.246C72.4688 20.9737 72.6466 20.6347 72.7689 20.3401C72.9189 19.9789 72.98 19.6788 72.9634 19.6343L73.1245 20.1345C72.8633 19.2842 72.6132 18.5451 72.4187 17.9282H72.4132Z" fill="#005CA9"/>
<path d="M73.9026 22.5909C73.697 21.9407 73.5525 21.4294 73.4136 20.9959C73.3135 20.6847 73.2302 20.4346 73.1579 20.2179C73.1301 20.129 73.1023 20.0456 73.0801 19.9734L73.0468 19.8733C72.9023 19.4343 72.8411 19.2509 72.8189 19.1953C73.1746 20.2401 72.2798 21.2071 71.5796 21.8351C70.9683 22.3797 70.0402 22.9466 68.5564 23.6024C68.0784 23.8136 67.5282 24.0136 66.9225 24.2026H66.9058C65.761 24.5694 64.8996 24.8695 63.4546 25.1196C59.4033 25.8254 54.8851 26.081 54.2905 26.1421C54.2793 26.1421 49.411 26.4311 48.6274 26.4756L49.4722 29.132L50.0835 31.0382C50.0835 31.0382 59.2921 30.677 61.3206 30.4102C62.8044 30.2157 64.2771 29.9767 65.711 29.6544C67.1448 29.3321 68.5675 28.9042 69.9124 28.3373C71.2906 27.7538 72.6966 27.0202 73.7025 25.9143C73.9526 25.642 74.1305 25.303 74.2527 25.0084C74.4028 24.6472 74.4639 24.3471 74.4472 24.3026C74.4472 24.3026 74.0971 23.2078 73.9026 22.5909Z" fill="#E30613"/>
</g>
<defs>
<clipPath id="clip0_107_975">
<rect width="173.753" height="47.1103" fill="white"/>
</clipPath>
</defs>
</svg>
