<?xml version="1.0" encoding="utf-8"?><svg xmlns="http://www.w3.org/2000/svg" xmlns:xlink="http://www.w3.org/1999/xlink"><symbol viewBox="0 0 40 16" id="arrow-left" xmlns="http://www.w3.org/2000/svg"><path d="M39.5 8H1m0 0 7-7M1 8l7 7"/></symbol><symbol viewBox="0 0 40 16" id="arrow-right" xmlns="http://www.w3.org/2000/svg"><path d="M.5 8H39m0 0-7-7m7 7-7 7"/></symbol><symbol viewBox="0 0 22 24" id="basket" xmlns="http://www.w3.org/2000/svg"><g clip-path="url(#ca)"><path d="M10.363 18.443a2.046 2.046 0 0 0-2.045 2.042 2.046 2.046 0 0 0 4.09 0 2.046 2.046 0 0 0-2.045-2.042Zm6.134 0a2.046 2.046 0 0 0-2.045 2.042 2.046 2.046 0 0 0 4.089 0 2.046 2.046 0 0 0-2.044-2.042Zm3.978-8.199L7.413 6.891a.614.614 0 0 0-.75.73L8.67 16.4h-.786L5.482 5.895a.613.613 0 0 0-.474-.464l-4.27-.882A.614.614 0 0 0 .489 5.75l3.885.802L6.797 17.15a.613.613 0 0 0 .598.477h12.07a.615.615 0 0 0 .607-.53l.858-6.175a.613.613 0 0 0-.455-.678Zm-8.14 3.91a.613.613 0 0 1-1.227 0v-2.696a.613.613 0 0 1 1.227 0v2.696Zm2.625 0a.613.613 0 0 1-1.227 0v-1.88a.613.613 0 0 1 1.227 0v1.88Zm2.625 0a.613.613 0 0 1-1.227 0v-1.226a.613.613 0 0 1 1.227 0v1.226Z"/></g><path fill-rule="evenodd" clip-rule="evenodd" d="M16.268 4.568a2.996 2.996 0 0 0-1.693-.523c-.627 0-1.21.193-1.693.523-.28-.843-.492-1.752-.492-2.383C12.39.98 13.37 0 14.575 0s2.185.98 2.185 2.185c0 .631-.212 1.54-.492 2.383Zm-4.722 2.274.024.006v-.011l-.024.005Zm4.972 1.217c-1.333-.33-2.766-.681-4.129-1.013a2.185 2.185 0 1 1 4.129 1.013Zm4.436 1.103c-.866-.217-2.155-.538-3.618-.9a2.995 2.995 0 0 0 .243-1.425c.87.18 1.762.45 2.308.765.596.344.969.928 1.067 1.56ZM9.869 6.439c-.36-.086-.706-.167-1.03-.243a2.19 2.19 0 0 1-.376-2.667 2.188 2.188 0 0 1 3.147-.7c.098.738.338 1.599.61 2.353a3.01 3.01 0 0 0-.449.774c-.628.113-1.305.278-1.902.483Zm10.124.075a3.43 3.43 0 0 1-.217.114c-.696-.295-1.587-.526-2.397-.672a3.01 3.01 0 0 0-.449-.774c.262-.727.494-1.553.599-2.273.095-.067.189-.128.278-.18a2.188 2.188 0 0 1 2.986.8 2.188 2.188 0 0 1-.8 2.985Z"/><defs><clipPath id="ca"><path transform="translate(0 3.064)" d="M0 0h20.936v20.936H0z"/></clipPath></defs></symbol><symbol viewBox="0 0 24 24" id="cevron-right" xmlns="http://www.w3.org/2000/svg"><path d="m9 18 6-6-6-6"/></symbol><symbol viewBox="0 0 344.96 344.96" id="check" xmlns="http://www.w3.org/2000/svg"><g data-name="Слой 2"><path class="ecls-1" d="m321.85 86.24-40-23.11-23.1-40H212.5L172.48 0l-40 23.11H86.24l-23.11 40-40 23.1v46.21L0 172.48l23.11 40v46.21l40 23.11 23.11 40h46.21l40 23.1 40-23.11h46.21l23.11-40 40-23.11V212.5l23.11-40-23.11-40V86.24ZM156.91 243.07a16.79 16.79 0 0 1-23.34 0l-50.45-50.44a16.19 16.19 0 0 1 0-22.89l13.35-13.35a16.19 16.19 0 0 1 22.89 0l25.87 25.87 80.34-80.35a16.19 16.19 0 0 1 22.89 0l13.35 13.35a16.19 16.19 0 0 1 0 22.89Z" data-name="Capa 1"/></g></symbol><symbol viewBox="0 0 24 24" id="fb" xmlns="http://www.w3.org/2000/svg"><path d="M13.397 20.997v-8.196h2.765l.411-3.209h-3.176V7.548c0-.926.258-1.56 1.587-1.56h1.684v-2.86A22.108 22.108 0 0 0 14.201 3c-2.444 0-4.122 1.492-4.122 4.231v2.355H7.332v3.21h2.753v8.201h3.312Z"/></symbol><symbol viewBox="0 0 24 24" id="glasses" xmlns="http://www.w3.org/2000/svg"><path d="M6 19a4 4 0 1 0 0-8 4 4 0 0 0 0 8Zm12 0a4 4 0 1 0 0-8 4 4 0 0 0 0 8Z"/><path d="M14 15a2 2 0 0 0-4 0m-7.5-2L5 7c.7-1.3 1.4-2 3-2m13.5 8L19 7c-.7-1.3-1.5-2-3-2"/></symbol><symbol viewBox="0 0 24 24" id="instagram" xmlns="http://www.w3.org/2000/svg"><path d="M11.999 7.377a4.624 4.624 0 1 0 0 9.248 4.624 4.624 0 0 0 0-9.248Zm0 7.627a3.004 3.004 0 1 1 0-6.008 3.004 3.004 0 0 1 0 6.008Zm4.807-6.719a1.078 1.078 0 1 0 0-2.156 1.078 1.078 0 0 0 0 2.156Z"/><path d="M20.533 6.11A4.605 4.605 0 0 0 17.9 3.48a6.607 6.607 0 0 0-2.186-.42c-.963-.042-1.268-.054-3.71-.054s-2.755 0-3.71.054a6.554 6.554 0 0 0-2.184.42 4.6 4.6 0 0 0-2.633 2.63 6.585 6.585 0 0 0-.419 2.186c-.043.962-.056 1.267-.056 3.71 0 2.442 0 2.753.056 3.71.015.748.156 1.486.419 2.187a4.61 4.61 0 0 0 2.634 2.632 6.583 6.583 0 0 0 2.185.45c.963.042 1.268.055 3.71.055s2.755 0 3.71-.055a6.616 6.616 0 0 0 2.186-.42 4.613 4.613 0 0 0 2.633-2.632c.263-.7.404-1.438.419-2.186.043-.962.056-1.267.056-3.71s0-2.753-.056-3.71a6.583 6.583 0 0 0-.421-2.217Zm-1.218 9.533a5.046 5.046 0 0 1-.311 1.688 2.987 2.987 0 0 1-1.712 1.71c-.535.2-1.1.305-1.67.312-.95.044-1.218.055-3.654.055-2.438 0-2.687 0-3.655-.055a4.961 4.961 0 0 1-1.67-.311 2.984 2.984 0 0 1-1.718-1.711 5.08 5.08 0 0 1-.311-1.67c-.043-.95-.053-1.217-.053-3.653 0-2.437 0-2.686.053-3.655a5.038 5.038 0 0 1 .311-1.687c.305-.79.93-1.41 1.719-1.712a5.01 5.01 0 0 1 1.669-.311c.95-.043 1.218-.055 3.655-.055s2.687 0 3.654.055a4.96 4.96 0 0 1 1.67.31 2.99 2.99 0 0 1 1.712 1.713 5.06 5.06 0 0 1 .311 1.669c.043.95.054 1.218.054 3.655 0 2.436 0 2.698-.043 3.654h-.011v-.001Z"/></symbol><symbol viewBox="0 0 24 24" id="location" xmlns="http://www.w3.org/2000/svg"><path d="M8.532 2.937a6.89 6.89 0 0 1 7.034.058C17.71 4.327 19.012 6.705 19 9.26c-.05 2.54-1.447 4.929-3.193 6.775a18.727 18.727 0 0 1-3.358 2.82 1.174 1.174 0 0 1-.408.144.82.82 0 0 1-.39-.119 18.514 18.514 0 0 1-4.839-4.547A9.28 9.28 0 0 1 5 9.134l.005-.273c.09-2.456 1.42-4.7 3.527-5.924Zm4.375 4.098a2.346 2.346 0 0 0-2.594.52 2.455 2.455 0 0 0-.519 2.64 2.378 2.378 0 0 0 2.198 1.497 2.339 2.339 0 0 0 1.683-.701c.446-.454.696-1.07.694-1.713a2.423 2.423 0 0 0-1.462-2.243Z"/></symbol><symbol viewBox="0 0 12 20" id="ok" xmlns="http://www.w3.org/2000/svg"><path d="M6 3.025c1.221 0 2.214.96 2.214 2.138 0 1.175-.993 2.134-2.214 2.134S3.786 6.34 3.786 5.163c0-1.179.993-2.138 2.214-2.138Zm0 7.298c2.95 0 5.348-2.316 5.348-5.16C11.348 2.315 8.95 0 6 0 3.05 0 .656 2.315.656 5.163c0 2.844 2.394 5.16 5.344 5.16Zm2.163 4.211a10.285 10.285 0 0 0 3.104-1.243 1.482 1.482 0 0 0 .493-2.084 1.598 1.598 0 0 0-2.163-.476 7 7 0 0 1-7.198 0c-.732-.447-1.7-.234-2.159.476a1.48 1.48 0 0 0 .493 2.084 10.285 10.285 0 0 0 3.104 1.243l-2.99 2.884a1.477 1.477 0 0 0 0 2.137 1.607 1.607 0 0 0 2.218 0L6 16.722l2.939 2.833a1.6 1.6 0 0 0 2.214 0c.61-.59.61-1.548 0-2.137l-2.99-2.884Z"/></symbol><symbol viewBox="0 0 24 24" id="search" xmlns="http://www.w3.org/2000/svg"><path d="M11 19a8 8 0 1 0 0-16 8 8 0 0 0 0 16Zm10 2-4.3-4.3" stroke-width="2" stroke-linecap="round" stroke-linejoin="round"/></symbol><symbol viewBox="0 0 19 16" id="telegram" xmlns="http://www.w3.org/2000/svg"><path d="m7.455 10.545-.314 4.467c.45 0 .645-.195.878-.43l2.108-2.035 4.369 3.232c.801.452 1.366.214 1.582-.744l2.867-13.578h.001C19.2.26 18.518-.209 17.737.084L.882 6.605C-.268 7.058-.25 7.706.687 8l4.309 1.354 10.009-6.329c.471-.315.9-.14.547.175l-8.097 7.346Z"/></symbol><symbol viewBox="0 0 16 16" id="viber" xmlns="http://www.w3.org/2000/svg"><path d="M8 1.335c-1.071.013-3.374.19-4.662 1.37-.958.948-1.292 2.35-1.331 4.084-.033 1.728-.072 4.973 3.058 5.856v1.346s-.02.538.337.648c.438.14.688-.275 1.105-.72l.778-.879c2.142.178 3.782-.232 3.97-.293.435-.139 2.883-.451 3.283-3.696.41-3.351-.2-5.463-1.301-6.418h-.007c-.332-.306-1.668-1.279-4.652-1.29 0 0-.222-.014-.578-.008Zm.037.942a7.02 7.02 0 0 1 .488.011c2.527.007 3.732.767 4.017 1.023.927.794 1.405 2.697 1.055 5.495-.332 2.713-2.317 2.885-2.685 3.002-.156.05-1.6.406-3.42.289 0 0-1.356 1.634-1.78 2.055-.067.074-.146.095-.196.085-.071-.018-.093-.107-.089-.229l.013-2.233c-2.655-.733-2.498-3.5-2.47-4.946.033-1.446.304-2.628 1.113-3.43 1.088-.982 3.043-1.115 3.953-1.122Zm.2 1.446a.166.166 0 1 0 0 .332 3.136 3.136 0 0 1 2.242.883c.606.588.9 1.378.912 2.411 0 .092.074.167.167.167V7.51a.167.167 0 0 0 .168-.165 3.588 3.588 0 0 0-1.009-2.646c-.66-.645-1.496-.977-2.48-.977Zm-2.198.382a.523.523 0 0 0-.342.067H5.69a2.61 2.61 0 0 0-.637.523 1.003 1.003 0 0 0-.256.525.71.71 0 0 0 .026.302l.01.006c.172.504.396.988.67 1.444a8.48 8.48 0 0 0 1.29 1.762l.015.022.024.017.015.018.017.015c.532.505 1.127.94 1.769 1.295.734.4 1.18.588 1.447.667v.004c.078.024.15.034.221.034.228-.016.444-.109.613-.262a2.53 2.53 0 0 0 .517-.638v-.004c.128-.241.085-.469-.1-.623-.37-.323-.77-.61-1.195-.857-.285-.155-.574-.061-.69.095l-.25.315c-.129.156-.361.134-.361.134l-.007.004C7.093 8.527 6.63 6.772 6.63 6.772s-.022-.239.139-.36l.312-.252c.15-.122.254-.41.094-.695a7.498 7.498 0 0 0-.856-1.194.475.475 0 0 0-.28-.167Zm2.486.495c-.221 0-.221.334.003.334A2.098 2.098 0 0 1 10 5.572 1.94 1.94 0 0 1 10.5 7a.168.168 0 0 0 .167.165l.007.009a.169.169 0 0 0 .167-.167c.015-.662-.191-1.218-.595-1.663C9.84 4.9 9.273 4.65 8.549 4.6h-.024Zm.274.898c-.228-.006-.236.335-.01.341.55.029.816.306.851.877a.166.166 0 0 0 .165.163h.007a.168.168 0 0 0 .16-.178c-.039-.744-.445-1.164-1.166-1.202H8.8Z"/></symbol><symbol viewBox="0 0 24 14" id="vk" xmlns="http://www.w3.org/2000/svg"><path d="M20.66 5.953c.318-.412.571-.742.758-.991 1.345-1.789 1.928-2.93 1.75-3.429l-.07-.117c-.047-.07-.168-.134-.362-.192-.195-.058-.444-.068-.747-.03l-3.358.024a.956.956 0 0 0-.385.04l-.059.03-.046.035a.517.517 0 0 0-.128.122.79.79 0 0 0-.117.205c-.366.94-.781 1.815-1.248 2.624-.288.482-.552.9-.793 1.253a5.978 5.978 0 0 1-.606.782 4.209 4.209 0 0 1-.444.402c-.132.101-.233.144-.303.129a5.79 5.79 0 0 1-.198-.047.77.77 0 0 1-.262-.286 1.281 1.281 0 0 1-.134-.455 4.897 4.897 0 0 1-.041-.472 9.342 9.342 0 0 1 .006-.56c.008-.241.011-.404.011-.49 0-.295.006-.616.018-.962l.029-.822c.008-.202.012-.416.012-.642 0-.225-.014-.402-.041-.53a1.86 1.86 0 0 0-.123-.374.626.626 0 0 0-.239-.28 1.35 1.35 0 0 0-.39-.157C12.736.67 12.211.62 11.574.611 10.129.596 9.199.69 8.787.891a1.575 1.575 0 0 0-.443.35c-.14.172-.16.265-.058.28.467.07.797.238.991.502l.07.14c.055.101.109.28.164.536.054.257.089.54.105.852a9.061 9.061 0 0 1 0 1.458c-.04.404-.076.719-.111.944a1.892 1.892 0 0 1-.157.548c-.07.14-.117.226-.14.257a.205.205 0 0 1-.059.058.875.875 0 0 1-.315.058c-.109 0-.24-.054-.396-.163a2.758 2.758 0 0 1-.484-.45 5.967 5.967 0 0 1-.566-.798c-.21-.342-.428-.746-.653-1.213l-.186-.338a28.576 28.576 0 0 1-.479-.95 18.202 18.202 0 0 1-.536-1.208.773.773 0 0 0-.28-.373l-.058-.035a.794.794 0 0 0-.187-.099 1.257 1.257 0 0 0-.268-.076l-3.196.023c-.326 0-.548.075-.664.222l-.047.07a.376.376 0 0 0-.035.187c0 .086.023.19.07.315A38.493 38.493 0 0 0 2.39 5.16a35.718 35.718 0 0 0 1.43 2.46 28.97 28.97 0 0 0 1.236 1.762c.42.552.698.906.834 1.061.136.156.243.273.32.35l.292.28c.186.187.46.41.822.67.362.261.762.518 1.202.77.439.253.95.459 1.533.619.583.16 1.15.223 1.703.192h1.341c.272-.023.478-.108.618-.257l.047-.058a.79.79 0 0 0 .087-.215c.027-.098.041-.205.041-.321a3.834 3.834 0 0 1 .076-.904c.058-.268.124-.47.198-.607a1.493 1.493 0 0 1 .45-.513.952.952 0 0 1 .093-.04c.186-.063.406-.002.659.18.252.183.49.408.711.677.222.268.488.57.799.904.31.334.583.583.816.746l.233.14c.156.093.358.179.607.257.249.077.467.097.653.058l2.986-.047c.295 0 .524-.048.688-.146.163-.096.26-.204.291-.32a.905.905 0 0 0 .006-.397 1.45 1.45 0 0 0-.081-.308 1.61 1.61 0 0 0-.076-.146c-.39-.7-1.132-1.56-2.228-2.578l-.023-.023-.012-.012-.012-.011h-.011c-.498-.474-.813-.793-.945-.957-.24-.31-.295-.625-.163-.944.093-.242.442-.751 1.049-1.529Z"/></symbol><symbol viewBox="0 0 16 16" id="whatsapp" xmlns="http://www.w3.org/2000/svg"><path fill-rule="evenodd" clip-rule="evenodd" d="M12.269 3.755A5.947 5.947 0 0 0 8.035 2 5.994 5.994 0 0 0 2.05 7.985a5.98 5.98 0 0 0 .799 2.992L2 14.077l3.173-.832c.877.477 1.86.728 2.86.728h.002a5.993 5.993 0 0 0 5.533-8.276 5.953 5.953 0 0 0-1.3-1.942Zm-4.234 9.208h-.002c-.89 0-1.765-.24-2.532-.694l-.181-.108-1.883.494.502-1.835-.118-.188a4.965 4.965 0 0 1-.76-2.647 4.982 4.982 0 0 1 6.88-4.597c.604.25 1.152.618 1.613 1.081a4.946 4.946 0 0 1 1.455 3.52 4.982 4.982 0 0 1-4.974 4.974Zm2.729-3.726c-.15-.075-.885-.436-1.022-.486-.137-.05-.236-.075-.336.074-.1.15-.387.486-.474.586-.087.1-.175.112-.324.038-.15-.075-.631-.233-1.203-.742a4.505 4.505 0 0 1-.832-1.036c-.087-.15-.009-.231.066-.306.068-.066.15-.174.224-.262.075-.087.1-.149.15-.249.05-.1.025-.187-.013-.262-.037-.075-.337-.811-.461-1.11-.121-.29-.244-.252-.336-.256a6.418 6.418 0 0 0-.286-.005.55.55 0 0 0-.4.186c-.137.15-.523.512-.523 1.248s.536 1.447.61 1.547c.075.1 1.055 1.61 2.555 2.258.358.154.636.246.853.315.358.114.684.098.942.06.287-.043.885-.362 1.01-.711.124-.35.124-.649.087-.711-.038-.063-.138-.101-.287-.176Z"/></symbol></svg>