<svg width="12" height="20" viewBox="0 0 12 20" fill="none" xmlns="http://www.w3.org/2000/svg">
<path d="M6 3.02543C7.22116 3.02543 8.21427 3.9842 8.21427 5.16312C8.21427 6.3385 7.22116 7.29726 6 7.29726C4.77884 7.29726 3.78573 6.3385 3.78573 5.16312C3.78573 3.9842 4.77884 3.02543 6 3.02543ZM6 10.3227C8.9499 10.3227 11.3481 8.00746 11.3481 5.16312C11.3481 2.31524 8.9499 0 6 0C3.0501 0 0.655601 2.31524 0.655601 5.16312C0.655601 8.00746 3.0501 10.3227 6 10.3227ZM8.16277 14.5342C9.25151 14.2927 10.2998 13.8772 11.2672 13.2913C11.9991 12.8474 12.2198 11.9135 11.76 11.2069C11.2966 10.4967 10.3329 10.2836 9.59726 10.7311C7.40874 12.0591 4.59126 12.0591 2.39906 10.7311C1.6671 10.2836 0.69974 10.4967 0.239967 11.2069C-0.219807 11.9135 0.000884019 12.8474 0.732843 13.2913C1.7002 13.8772 2.74849 14.2927 3.83723 14.5342L0.846866 17.4176C0.236287 18.007 0.236287 18.9658 0.846866 19.5552C1.15583 19.85 1.55308 19.9991 1.954 19.9991C2.35492 19.9991 2.75584 19.85 3.06481 19.5552L6 16.7216L8.93887 19.5552C9.54945 20.1483 10.5389 20.1483 11.1531 19.5552C11.7637 18.9658 11.7637 18.007 11.1531 17.4176L8.16277 14.5342Z" fill="white"/>
</svg>
