<svg width="24" height="14" viewBox="0 0 24 14" fill="none" xmlns="http://www.w3.org/2000/svg">
<path d="M20.6598 5.95312C20.9784 5.54134 21.2313 5.21094 21.418 4.96167C22.7631 3.17341 23.3461 2.03106 23.1674 1.53302L23.0973 1.41637C23.0507 1.34631 22.9299 1.28198 22.7358 1.22374C22.5413 1.16554 22.2925 1.15624 21.9894 1.19466L18.6306 1.21835C18.5529 1.21061 18.4751 1.21242 18.3973 1.22374C18.3196 1.23556 18.2691 1.24743 18.2456 1.25875C18.2222 1.27061 18.2029 1.28012 18.1874 1.28787L18.1409 1.32288C18.102 1.34606 18.0593 1.387 18.0126 1.44549C17.966 1.50394 17.9268 1.57169 17.896 1.6497C17.5305 2.59041 17.1146 3.46522 16.6481 4.27385C16.3603 4.75594 16.0959 5.17416 15.8551 5.52745C15.6141 5.88155 15.4119 6.14193 15.2486 6.30877C15.0854 6.47591 14.9375 6.61031 14.8055 6.71104C14.6731 6.81249 14.5722 6.85499 14.5024 6.83955C14.4323 6.82411 14.3661 6.80866 14.3041 6.79268C14.1952 6.72291 14.1076 6.62785 14.0417 6.50709C13.9755 6.38687 13.931 6.23513 13.9075 6.0523C13.8843 5.86972 13.8704 5.71214 13.8668 5.57976C13.8627 5.44767 13.8647 5.26122 13.8727 5.0199C13.8805 4.77883 13.8843 4.61586 13.8843 4.53011C13.8843 4.23497 13.8902 3.91412 13.9019 3.56802C13.9135 3.22218 13.9233 2.94791 13.931 2.74572C13.9387 2.54383 13.9425 2.32982 13.9425 2.10423C13.9425 1.87916 13.9289 1.70196 13.9015 1.5735C13.8742 1.44549 13.8333 1.32111 13.7792 1.20034C13.7247 1.08008 13.645 0.986584 13.54 0.920689C13.4349 0.854499 13.3048 0.802237 13.1494 0.763062C12.737 0.669563 12.2122 0.619616 11.5749 0.611411C10.1286 0.596473 9.19949 0.689677 8.78745 0.89157C8.62419 0.977326 8.47636 1.09372 8.34428 1.24154C8.2042 1.4128 8.18489 1.50625 8.28609 1.52119C8.75269 1.59125 9.08289 1.75864 9.27729 2.02285L9.34735 2.16268C9.40167 2.26413 9.45604 2.44288 9.51061 2.69935C9.56498 2.95586 9.59999 3.23964 9.61569 3.55073C9.65457 4.11828 9.65457 4.604 9.61569 5.00858C9.5768 5.41313 9.53998 5.72783 9.50498 5.95291C9.46992 6.1785 9.41741 6.36107 9.3476 6.5009C9.27754 6.64123 9.23096 6.72674 9.20752 6.75788C9.18408 6.78876 9.16477 6.80833 9.14933 6.81611C9.04813 6.85474 8.94331 6.87431 8.83441 6.87431C8.72547 6.87431 8.59334 6.81969 8.43782 6.71075C8.28226 6.60235 8.1208 6.45247 7.95392 6.26189C7.78653 6.07162 7.59827 5.80509 7.38813 5.46282C7.17824 5.1211 6.96036 4.71652 6.73503 4.25016L6.54858 3.91176C6.43193 3.69443 6.2725 3.37741 6.07035 2.9615C5.86821 2.5456 5.6892 2.14337 5.53393 1.75427C5.47162 1.59125 5.37837 1.46687 5.25403 1.38111L5.19583 1.3461C5.15695 1.31518 5.09463 1.28198 5.00913 1.24718C4.92337 1.21217 4.83429 1.18692 4.74079 1.17122L1.54522 1.19441C1.21869 1.19441 0.997229 1.26859 0.880587 1.41637L0.833964 1.48618C0.8104 1.52532 0.798828 1.58763 0.798828 1.67289C0.798828 1.75864 0.822266 1.86346 0.868889 1.98759C1.3355 3.08412 1.84284 4.14151 2.39083 5.15973C2.93911 6.17849 3.41528 6.99894 3.81957 7.62087C4.22386 8.24329 4.63589 8.82991 5.05592 9.38202C5.47595 9.93414 5.75379 10.2877 5.88975 10.443C6.02571 10.5988 6.13259 10.7155 6.21039 10.793L6.50191 11.0731C6.68836 11.2596 6.96263 11.4831 7.32421 11.7437C7.68575 12.0043 8.08596 12.2608 8.52555 12.5132C8.96465 12.7661 9.47607 12.9718 10.0591 13.1315C10.6421 13.2912 11.2097 13.3553 11.7618 13.3239H13.103C13.3752 13.3007 13.5811 13.2155 13.721 13.0674L13.7676 13.0092C13.7985 12.9628 13.8279 12.8907 13.8551 12.7936C13.8822 12.6965 13.8962 12.5894 13.8962 12.473C13.8881 12.1388 13.9137 11.8369 13.9719 11.5691C14.0301 11.3008 14.0962 11.0989 14.1702 10.9624C14.2441 10.8267 14.3275 10.7118 14.4209 10.6183C14.5142 10.5248 14.5801 10.469 14.6193 10.4494C14.6581 10.4303 14.6894 10.4167 14.7125 10.4084C14.8989 10.3463 15.1186 10.4066 15.3715 10.5892C15.6241 10.7723 15.8613 10.9974 16.083 11.2657C16.3045 11.5341 16.5707 11.8351 16.8819 12.1696C17.1927 12.5038 17.4649 12.7526 17.6982 12.9159L17.9315 13.0562C18.087 13.1492 18.2889 13.2347 18.5379 13.3128C18.7867 13.3903 19.0046 13.4098 19.191 13.371L22.1767 13.3241C22.4721 13.3241 22.7015 13.2757 22.8649 13.1783C23.0281 13.0817 23.1252 12.9741 23.1564 12.8577C23.1873 12.7411 23.1893 12.6095 23.1623 12.4614C23.135 12.3138 23.1077 12.2108 23.0807 12.1526C23.0534 12.0944 23.0281 12.0455 23.0047 12.0068C22.6159 11.3072 21.8734 10.4478 20.7771 9.42932L20.7537 9.40613L20.7421 9.39431L20.7305 9.38295H20.7188C20.2211 8.9086 19.9063 8.58977 19.7742 8.42625C19.5332 8.11571 19.4786 7.80075 19.611 7.48196C19.7037 7.24022 20.0534 6.73086 20.6598 5.95312Z" fill="white"/>
</svg>
