<svg width="32" height="32" viewBox="0 0 32 32" fill="none" xmlns="http://www.w3.org/2000/svg">
<g id="002-rehabilitation">
<g id="Group">
<path id="Vector" d="M12 8C13.6545 8 15 6.6545 15 5C15 3.3455 13.6545 2 12 2C10.3455 2 9 3.3455 9 5C9 6.6545 10.3455 8 12 8ZM12 3C13.103 3 14 3.897 14 5C14 6.103 13.103 7 12 7C10.897 7 10 6.103 10 5C10 3.897 10.897 3 12 3Z" fill="#936037"/>
<path id="Vector_2" d="M21.5 6.5C23.1545 6.5 24.5 5.1545 24.5 3.5C24.5 1.8455 23.1545 0.5 21.5 0.5C19.8455 0.5 18.5 1.8455 18.5 3.5C18.5 5.1545 19.8455 6.5 21.5 6.5ZM21.5 1.5C22.603 1.5 23.5 2.397 23.5 3.5C23.5 4.603 22.603 5.5 21.5 5.5C20.397 5.5 19.5 4.603 19.5 3.5C19.5 2.397 20.397 1.5 21.5 1.5Z" fill="#936037"/>
<path id="Vector_3" d="M13.9095 11.736C13.5645 11.9085 13.178 12 12.792 12H11.208C10.822 12 10.4355 11.9085 10.09 11.736L9.72348 11.553L9.27698 12.4475L9.64298 12.6305C10.126 12.872 10.6675 13 11.208 13H12.792C13.3325 13 13.874 12.872 14.3565 12.6305L14.723 12.4475L14.2765 11.553L13.9095 11.736Z" fill="#936037"/>
<path id="Vector_4" d="M25 5.5H24C23.833 5.5 23.677 5.5835 23.584 5.7225L23.178 6.332C22.899 6.7505 22.432 7 21.9295 7H21.07C20.5675 7 20.101 6.7505 19.822 6.332L19.416 5.7225C19.323 5.5835 19.167 5.5 19 5.5H18.3285C17.6605 5.5 17.0325 5.7605 16.5605 6.2325L15.3365 7.4565L14.7775 7.084C14.547 6.9305 14.237 6.9925 14.084 7.2225L13.678 7.832C13.399 8.2505 12.932 8.5 12.4295 8.5H11.57C11.0675 8.5 10.601 8.2505 10.322 7.832L9.916 7.2225C9.7625 6.9925 9.4525 6.9305 9.2225 7.084L4.7225 10.084C4.5835 10.177 4.5 10.333 4.5 10.5V16C4.5 16.651 4.9195 17.201 5.5 17.408V30.5H5V31.5H7V30.5H6.5V17.408C7.0805 17.201 7.5 16.651 7.5 16V12.2675L8 11.934V31C8 31.2765 8.2235 31.5 8.5 31.5H11C11.2765 31.5 11.5 31.2765 11.5 31V19H12.5V23.5C12.5 24.327 13.173 25 14 25H14.5C15.327 25 16 24.327 16 23.5V11.934L16.5 12.2675V16C16.5 16.651 16.9195 17.201 17.5 17.408V30.5H17V31.5H19V30.5H18.5V29.5H20.5C20.7765 29.5 21 29.2765 21 29V18H22V31C22 31.2765 22.2235 31.5 22.5 31.5H25C25.2765 31.5 25.5 31.2765 25.5 31V14.5C26.603 14.5 27.5 13.603 27.5 12.5V8C27.5 6.6215 26.3785 5.5 25 5.5ZM6 16.5C5.724 16.5 5.5 16.276 5.5 16H6.5C6.5 16.276 6.276 16.5 6 16.5ZM18 16.5C17.724 16.5 17.5 16.276 17.5 16H18.5C18.5 16.276 18.276 16.5 18 16.5ZM24.5 30.5H23V17.5C23 17.2235 22.7765 17 22.5 17H20.5C20.2235 17 20 17.2235 20 17.5V28.5H18.5V17.408C19.0805 17.201 19.5 16.651 19.5 16V14.5H24.5V30.5ZM26.5 12.5C26.5 13.0515 26.0515 13.5 25.5 13.5H18.5V14V14.5V15H17.5V12C17.5 11.833 17.4165 11.677 17.2775 11.584L15.7775 10.584C15.6245 10.482 15.4265 10.472 15.2645 10.559C15.1015 10.646 15 10.8155 15 11V23.5C15 23.776 14.776 24 14.5 24H14C13.724 24 13.5 23.776 13.5 23.5V18.5C13.5 18.2235 13.2765 18 13 18H11C10.7235 18 10.5 18.2235 10.5 18.5V30.5H9V11C9 10.8155 8.8985 10.646 8.736 10.559C8.574 10.472 8.376 10.482 8.223 10.584L6.723 11.584C6.5835 11.677 6.5 11.833 6.5 12V15H5.5V10.7675L9.3615 8.1935L9.4905 8.387C9.955 9.084 10.7325 9.5 11.5705 9.5H12.43C13.268 9.5 14.045 9.084 14.51 8.3865L14.639 8.193L18.5 10.7675V11.5V12V12.5H24.5C24.7765 12.5 25 12.2765 25 12V9H24V11.5H19.5V10.5C19.5 10.333 19.4165 10.177 19.2775 10.084L18.285 9.4225L18.854 8.8535L18.147 8.1465L17.437 8.8565L16.1855 8.022L17.2685 6.939C17.551 6.656 17.9275 6.5 18.3285 6.5H18.7325L18.9905 6.8865C19.455 7.584 20.2325 8 21.0705 8H21.93C22.768 8 23.545 7.584 24.01 6.8865L24.2675 6.5H25C25.827 6.5 26.5 7.173 26.5 8V12.5Z" fill="#936037"/>
</g>
</g>
</svg>
