<svg width="32" height="32" viewBox="0 0 32 32" fill="none" xmlns="http://www.w3.org/2000/svg">
<path d="M30.0572 18.704C31.1285 18.704 32 17.8325 32 16.7612C32 15.6899 31.1285 14.8184 30.0572 14.8184H23.3622C23.1603 14.482 22.7902 14.1624 22.1841 13.937L19.6796 13.0072C19.5631 12.9198 19.2518 12.5935 18.9629 12.2696C19.5573 10.498 19.1678 8.70148 18.7868 7.0923C19.4619 6.54136 19.9382 5.78292 20.0841 4.95124C20.1711 4.44786 20.1523 3.93705 20.0317 3.44892C20.5192 3.27674 20.8541 2.97699 21.0451 2.54255C21.4267 1.67574 21.4557 1.02224 21.1313 0.600298C20.8638 0.25236 20.4176 0.12436 19.805 0.21986C19.8049 0.21986 19.8049 0.21986 19.8049 0.21986C18.9966 0.346173 18.1888 0.228985 17.4759 0.125548C16.85 0.0347976 16.2589 -0.0509524 15.7422 0.0364851C14.6371 0.222985 13.7926 0.818173 13.3001 1.75755C13.0833 2.17105 12.8918 2.99092 12.8477 3.70611C12.799 4.49636 12.91 5.16549 12.91 5.16561C13.1213 6.06511 13.5557 6.76549 14.2011 7.24974C13.0758 8.28017 12.4619 9.87161 12.4619 10.7392V14.8184H1.94275C0.8715 14.8184 0 15.6899 0 16.7612C0 17.8325 0.8715 18.704 1.94275 18.704H2.30319V21.6848C2.30319 21.9437 2.513 22.1535 2.77194 22.1535C3.03088 22.1535 3.24069 21.9437 3.24069 21.6848V18.704H4.82425V26.2495H3.24069V23.8481C3.24069 23.5892 3.03088 23.3794 2.77194 23.3794C2.513 23.3794 2.30319 23.5892 2.30319 23.8481V26.2722C1.53813 26.4007 0.953125 27.068 0.953125 27.8699V28.6937C0.953125 29.1329 1.31044 29.4902 1.74962 29.4902H6.31525C6.75444 29.4902 7.11175 29.1329 7.11175 28.6937V27.8699C7.11175 27.0685 6.52694 26.4016 5.76169 26.2725V18.704H12.9849C12.8987 18.9015 12.813 19.0991 12.7288 19.2935C12.3108 20.2583 11.8785 21.2559 11.388 22.1966C10.7941 23.3378 10.1881 24.2482 9.53594 24.9792C9.21875 25.2559 8.99562 25.5665 9.00844 25.8647C9.02056 26.1498 9.20669 26.346 9.44275 26.5949L12.0565 29.3415L12.1064 29.3944C12.2617 29.5595 12.4524 29.7624 12.746 29.7624C12.7668 29.7624 12.7882 29.7614 12.8101 29.7592C13.1242 29.7287 13.3198 29.4773 13.4554 29.2614C14.0799 28.264 13.0715 26.3578 13.0283 26.2771C12.9999 26.2242 12.9822 26.187 12.9711 26.1615C13.0007 26.1249 15.5402 23.1074 15.8599 22.652C16.9583 24.6312 17.3714 28.457 17.3766 28.5249C17.3998 28.8293 17.4198 29.0922 17.6472 29.2845C17.8611 29.4654 18.1269 29.4654 18.4634 29.4654H22.2547L22.3252 29.4657C22.3453 29.4659 22.3657 29.466 22.3865 29.466C22.6181 29.466 22.8889 29.448 23.0771 29.2072C23.2719 28.9578 23.2241 28.6419 23.1607 28.3953C22.8707 27.2586 20.7935 26.6734 20.7048 26.6489C20.6465 26.6329 20.6073 26.6202 20.5813 26.6106C20.5749 26.5635 20.5689 26.4968 20.5638 26.4395C20.5599 26.3969 20.5558 26.351 20.5509 26.3019C20.324 24.0084 19.8915 20.8504 18.7346 18.7041H22.1183C22.3773 18.7041 22.5871 18.4943 22.5871 18.2354C22.5871 17.9764 22.3773 17.7666 22.1183 17.7666H1.94275C1.38844 17.7666 0.9375 17.3156 0.9375 16.7613C0.9375 16.207 1.38844 15.756 1.94275 15.756H17.7899C17.9906 15.8538 18.1912 15.9003 18.4541 15.9552C18.573 15.9801 21.9737 16.8184 21.9873 16.8204C22.0577 16.8315 22.1278 16.8369 22.1974 16.8369C22.8072 16.8368 23.3662 16.4259 23.5217 15.8313C23.5281 15.8067 23.5336 15.7815 23.5385 15.756H30.0572C30.6115 15.756 31.0624 16.207 31.0624 16.7613C31.0624 17.3156 30.6115 17.7666 30.0572 17.7666H24.2833C24.0244 17.7666 23.8146 17.9764 23.8146 18.2354C23.8146 18.4943 24.0244 18.7041 24.2833 18.7041H26.2382V21.6849C26.2382 21.9438 26.448 22.1536 26.7069 22.1536C26.9659 22.1536 27.1757 21.9438 27.1757 21.6849V18.7041H28.7575V26.2496H27.1757V23.8482C27.1757 23.5892 26.9659 23.3794 26.7069 23.3794C26.448 23.3794 26.2382 23.5892 26.2382 23.8482V26.2722C25.4721 26.4006 24.8864 27.0679 24.8864 27.8699V28.6937C24.8864 29.1329 25.2437 29.4903 25.6829 29.4903H30.2502C30.6894 29.4903 31.0467 29.1329 31.0467 28.6937V27.8699C31.0467 27.0679 30.461 26.4006 29.6949 26.2722V18.7041L30.0572 18.704ZM6.17425 27.8699V28.5527H1.89062V27.8699C1.89062 27.4934 2.19619 27.187 2.57169 27.187H5.49137C5.86794 27.187 6.17425 27.4934 6.17425 27.8699ZM12.3781 25.4135C12.0391 25.7981 11.8581 26.078 12.2021 26.7199C12.5462 27.3619 12.8061 28.2667 12.7032 28.6611L10.1225 25.9492C10.0946 25.9197 10.0561 25.8791 10.0197 25.8394C10.0395 25.8177 10.0602 25.7952 10.0802 25.7735C10.126 25.7239 10.1774 25.6682 10.235 25.604C10.8038 24.9663 11.3362 24.2097 11.8515 23.3057L13.2571 24.3731C13.0156 24.6675 12.4047 25.3833 12.3781 25.4135ZM14.2125 23.2045C14.0684 23.3699 13.9438 23.513 13.8431 23.641L12.301 22.4699C12.7725 21.5484 13.1876 20.5926 13.589 19.6661C13.6691 19.4811 13.7506 19.2932 13.8326 19.1057C14.3914 19.8129 14.9226 20.6805 15.3962 21.6397C15.0429 22.2512 14.5684 22.7961 14.2125 23.2045ZM22.2081 28.5279H18.4635C18.4262 28.5279 18.371 28.5279 18.3171 28.5269C18.3152 28.5027 18.3132 28.4778 18.3114 28.4537C18.3059 28.3806 18.2996 28.2975 18.2905 28.2026C18.2061 27.317 18.0341 26.3859 17.7933 25.4517L19.4837 25.1726C19.536 25.5984 19.58 26.009 19.6181 26.3944C19.6228 26.4407 19.6266 26.4836 19.6302 26.5234C19.6763 27.0353 19.7549 27.3601 20.456 27.5527C21.1593 27.7468 21.9946 28.1821 22.2081 28.5279ZM19.3581 24.2433L17.5378 24.5439C17.2174 23.4925 16.8164 22.455 16.3591 21.4925C16.3491 21.4662 16.3368 21.4407 16.3222 21.4165C15.8349 20.4019 15.2859 19.474 14.705 18.704H17.6475C18.5694 20.1157 19.065 22.2609 19.3581 24.2433ZM13.794 4.72411C13.6636 3.54774 13.7194 1.32867 15.8984 0.96086C16.2699 0.897985 16.7666 0.969985 17.3414 1.0533C18.1198 1.16624 19.0019 1.29399 19.9496 1.14605C20.2548 1.09836 20.3713 1.14992 20.3881 1.17161C20.427 1.2223 20.4737 1.51355 20.1869 2.16505C19.8626 2.90292 18.2887 2.69967 16.7666 2.50305L16.4945 2.46799C15.6679 2.36224 15.1984 3.1783 14.7846 3.89861C14.6048 4.21161 14.4188 4.53524 14.2406 4.71605C14.1451 4.81305 13.9479 4.77655 13.794 4.72411ZM14.1018 5.71286C14.3847 5.70542 14.6721 5.61424 14.9085 5.37399C15.1715 5.10724 15.3881 4.73024 15.5975 4.36567C15.8112 3.9938 16.1671 3.37099 16.3756 3.39799L16.6465 3.43286C17.5381 3.54799 18.3819 3.6563 19.106 3.61705C19.2088 3.9968 19.2284 4.39661 19.1604 4.79036C18.956 5.95561 17.9487 6.71611 17.0426 6.95274C16.6852 7.04486 16.3269 7.06417 16.0069 7.00867C15.5481 6.9288 15.1524 6.7743 14.8303 6.54905C14.5273 6.3378 14.2841 6.05767 14.1018 5.71286ZM13.3994 14.8184V10.7392C13.3994 9.9908 14.0514 8.50867 15.0889 7.72892C15.326 7.81686 15.5783 7.88555 15.8464 7.93224C16.0216 7.96261 16.2002 7.9778 16.3819 7.9778C16.6739 7.9778 16.9736 7.93855 17.2779 7.86017C17.5101 7.79961 17.7339 7.71811 17.9474 7.61874C18.2394 8.87867 18.481 10.1627 18.2253 11.4114L16.5028 9.39311C16.3346 9.19617 16.0389 9.17286 15.8419 9.34086C15.645 9.50892 15.6216 9.80486 15.7896 10.0017L17.7832 12.3375L16.6254 13.4391L15.2881 11.9862C15.1127 11.7957 14.8161 11.7834 14.6257 11.9587C14.4352 12.1341 14.4229 12.4306 14.5983 12.6211L16.2584 14.4247C16.2594 14.4259 16.2606 14.4269 16.2617 14.428C16.2624 14.4288 16.263 14.4296 16.2637 14.4304C16.2651 14.4318 16.2666 14.433 16.2681 14.4345C16.2722 14.4387 16.2762 14.443 16.2805 14.4471L16.6714 14.8184H13.3994ZM22.6147 15.5941C22.5695 15.7674 22.3844 15.9242 22.1495 15.8965L19.0961 15.1389C18.9175 15.0943 18.7669 15.0629 18.6461 15.0375C18.2247 14.9494 18.1369 14.9311 17.7814 14.5799C17.7793 14.5777 17.7771 14.5756 17.7748 14.5735L17.2837 14.107L18.3988 13.046C19.0601 13.7769 19.2374 13.843 19.3191 13.8734L21.8577 14.8159C22.3976 15.0167 22.6877 15.3149 22.6147 15.5941ZM30.1094 27.8699V28.5527H25.824V27.8699C25.824 27.4934 26.1303 27.187 26.5069 27.187H29.4266C29.8031 27.187 30.1094 27.4934 30.1094 27.8699Z" fill="#936037"/>
</svg>
