<svg width="32" height="32" viewBox="0 0 32 32" fill="none" xmlns="http://www.w3.org/2000/svg">
<g id="bionic-arm 1" clip-path="url(#clip0_409_3002)">
<g id="Group">
<path id="Vector" d="M19.5 9C19.5 9.2755 19.2755 9.5 19 9.5C18.7245 9.5 18.5 9.2755 18.5 9V8.5H17.5V9C17.5 9.827 18.173 10.5 19 10.5C19.827 10.5 20.5 9.827 20.5 9V8.5H19.5V9Z" fill="#936037"/>
<path id="Vector_2" d="M24.3715 17.215C24.1525 17.1565 24 16.958 24 16.7315V14.6385L24.9805 13.004C25.247 12.56 25.5875 12.17 25.9925 11.846C27.2685 10.8255 28 9.3035 28 7.638C28 4.4155 25.6925 1.6915 22.5135 1.162L22.442 1.15C22.0685 0.7525 21.542 0.5 20.955 0.5H14.404C13.354 0.5 12.5 1.354 12.5 2.404C12.5 3.157 12.9025 3.8125 13.5 4.1825V4.469C13.5 5.5785 14.3945 6.48 15.5 6.497V8.849L14.713 10.0295C14.5735 10.2385 14.5 10.4815 14.5 10.7325C14.5 11.3395 14.929 11.8485 15.5 11.972V12.7435C15.5 14.659 16.9415 16.241 18.7965 16.469L18.5965 17.4685C18.569 17.606 18.484 17.727 18.3635 17.799L16.903 18.6755C16.622 18.5655 16.319 18.5 16 18.5H14C12.6215 18.5 11.5 19.6215 11.5 21V21.4085L6.799 22.752L6.0835 18.4575C6.3455 18.214 6.5 17.8715 6.5 17.5V16.309C6.5 15.694 6.0725 15.1805 5.5 15.0405V14.5V14V11.5C5.5 10.849 5.0805 10.299 4.5 10.092V9.6925C4.5 8.7595 3.7405 8 2.8075 8C2.1115 8 1.495 8.4175 1.236 9.064L0.8245 10.0925C0.609 10.63 0.5 11.1975 0.5 11.7775C0.5 12.6765 0.7635 13.547 1.262 14.2945L1.5 14.6515V16.691L1.224 16.829C0.7775 17.052 0.5 17.5005 0.5 18V19.191C0.5 19.806 0.9275 20.3195 1.5 20.4595V26.2325C1.5 26.9315 2.0685 27.5 2.7675 27.5C2.8635 27.5 2.9565 27.4795 3.049 27.4585C3.695 28.193 4.617 28.6125 5.5925 28.618C5.789 29.132 6.2835 29.5 6.8655 29.5C7.0065 29.5 7.146 29.4785 7.2795 29.436L14.5 27.1385V31.5H31.5V26.494C31.5 22.1495 28.5685 18.334 24.3715 17.215ZM14.502 4.4905C14.534 4.492 14.564 4.5 14.596 4.5H15.5V3.5H14.596C13.9915 3.5 13.5 3.0085 13.5 2.404C13.5 1.9055 13.9055 1.5 14.404 1.5H20.955C21.5315 1.5 22 1.969 22 2.545C22 2.9435 21.7785 3.3015 21.4225 3.4795L21.2765 3.5525L21.724 4.447L21.87 4.374C22.567 4.0255 23 3.3245 23 2.545C23 2.459 22.985 2.377 22.9745 2.2935C25.3405 2.971 27 5.126 27 7.6695C27 8.998 26.4055 10.2355 25.368 11.065C24.8695 11.464 24.451 11.943 24.123 12.4895L24 12.695V10.4145C24.582 10.208 25 9.652 25 9C25 8.348 24.582 7.792 24 7.5855V7.171C24 6.2515 23.377 5.4535 22.485 5.231L20.4725 4.7275C20.3435 4.0305 19.734 3.5 19 3.5H18.5V4.5H19C19.2755 4.5 19.5 4.7245 19.5 5C19.5 5.2755 19.2755 5.5 19 5.5H15.531C14.97 5.5 14.514 5.049 14.502 4.4905ZM16.513 13H17.937C17.7995 13.535 17.443 13.989 16.954 14.2545C16.7125 13.8875 16.556 13.4605 16.513 13ZM11.562 23.2655L6.5 24.823V24.254C6.5 24.032 6.649 23.834 6.863 23.773L11.5 22.4485V22.5855C11.5 22.8165 11.523 23.043 11.562 23.2655ZM5.5 27.6115C4.9235 27.5845 4.3815 27.353 3.9625 26.959L5.5 25.934V27.6115ZM3.364 20.8255L2.5 20.6095V20.309L5.1565 18.9805L5.872 23.2745C5.641 23.5415 5.5 23.8855 5.5 24.2545V24.7325L4.5 25.399V22.2805C4.5 21.591 4.0325 20.9925 3.364 20.8255ZM1.753 10.464L2.1645 9.4355C2.2705 9.171 2.5225 9 2.8075 9C3.189 9 3.5 9.311 3.5 9.6925V10.092C2.9195 10.299 2.5 10.849 2.5 11.5V12H3.5V11.5C3.5 11.2245 3.7245 11 4 11C4.2755 11 4.5 11.2245 4.5 11.5V14H2.2675L2.094 13.7395C1.7055 13.157 1.5 12.4785 1.5 11.7775C1.5 11.325 1.585 10.8835 1.753 10.464ZM2.5 15H4.5V15.191L2.5 16.191V15ZM1.5 18C1.5 17.882 1.5655 17.7765 1.671 17.7235L5.053 16.0325C5.0955 16.011 5.1435 16 5.191 16C5.3615 16 5.5 16.1385 5.5 16.309V17.5C5.5 17.618 5.4345 17.7235 5.329 17.7765L1.947 19.4675C1.752 19.565 1.5 19.409 1.5 19.191V18ZM2.5 26.2325V21.6405L3.121 21.7955C3.344 21.8515 3.5 22.051 3.5 22.281V26.066L2.916 26.455C2.7485 26.5655 2.5 26.4325 2.5 26.2325ZM6.9765 28.483C6.7495 28.555 6.5 28.3735 6.5 28.1345V25.8695L11.86 24.2205C12.0515 24.636 12.313 25.021 12.6465 25.354L13.3535 24.647C12.803 24.096 12.5 23.3645 12.5 22.5855V22.5H13.293C13.8825 22.5 14.437 22.2705 14.8535 21.8535L14.1465 21.1465C13.922 21.371 13.6105 21.5 13.293 21.5H12.5V21C12.5 20.173 13.173 19.5 14 19.5H16C16.651 19.5 17.201 19.9195 17.408 20.5H17.207C16.6175 20.5 16.063 20.7295 15.6465 21.1465L16.3535 21.8535C16.578 21.629 16.8895 21.5 17.207 21.5H17.5V23.3065C17.5 23.8485 17.327 24.3565 17.0265 24.772L16.2235 24.451C15.6675 24.2285 15.214 23.8115 14.947 23.276L14.0525 23.7235C14.4295 24.478 15.0685 25.066 15.852 25.3795L16.1755 25.509C16.043 25.5795 15.9045 25.6415 15.7575 25.6885L6.9765 28.483ZM30.5 30.5H27.5V23.207C27.5 22.8895 27.629 22.578 27.8535 22.3535L27.1465 21.6465C26.7295 22.063 26.5 22.6175 26.5 23.207V30.5H15.5V26.82L16.0615 26.6415C17.52 26.1775 18.5 24.837 18.5 23.3065V21C18.5 20.3385 18.237 19.7405 17.8165 19.293L18.878 18.656C19.2395 18.439 19.4945 18.0775 19.577 17.664L19.819 16.453C20.857 16.2965 21.79 15.716 22.3825 14.827L22.4155 14.777L21.5835 14.2225L21.5505 14.2725C21.0385 15.041 20.181 15.5 19.257 15.5C18.663 15.5 18.114 15.3095 17.6635 14.9885C18.482 14.442 19 13.5205 19 12.5V12H16.5V11H15.7675C15.62 11 15.5 10.88 15.5 10.7325C15.5 10.6795 15.5155 10.6285 15.545 10.584L16.5 9.1515V6.5H19C19.566 6.5 20.0535 6.1815 20.309 5.7175L22.2425 6.201C22.6885 6.3125 23 6.7115 23 7.171V8.5H23.5C23.7755 8.5 24 8.7245 24 9C24 9.2755 23.7755 9.5 23.5 9.5H23V16.7315C23 17.41 23.458 18.006 24.1135 18.181C27.874 19.184 30.5 22.602 30.5 26.494V30.5Z" fill="#936037"/>
<path id="Vector_3" d="M22.5 23.5H23.5V24.5H22.5V23.5Z" fill="#936037"/>
</g>
</g>
<defs>
<clipPath id="clip0_409_3002">
<rect width="32" height="32" fill="white"/>
</clipPath>
</defs>
</svg>
