<svg width="32" height="32" viewBox="0 0 32 32" fill="none" xmlns="http://www.w3.org/2000/svg">
<g id="012-memorial" clip-path="url(#clip0_408_2967)">
<g id="Group">
<path id="Vector" d="M29.6562 29.1875H23.3691L22.5384 26.6955C22.4746 26.5041 22.2955 26.375 22.0938 26.375H19.6271L18.709 5.136C18.6981 4.88519 18.4917 4.6875 18.2407 4.6875H18.1601C18.2121 4.54081 18.2407 4.38306 18.2407 4.21875C18.2407 3.64687 17.8974 3.154 17.4062 2.9345V1.40625C17.4062 0.630813 16.7754 0 16 0C15.2246 0 14.5938 0.630813 14.5938 1.40625V2.9345C14.1026 3.15406 13.7592 3.64687 13.7592 4.21875C13.7592 4.38306 13.7879 4.54081 13.8399 4.6875H13.7592C13.5082 4.6875 13.3018 4.88525 13.2909 5.136L12.3729 26.375H9.90625C9.70444 26.375 9.52531 26.5041 9.46156 26.6955L8.52406 29.508C8.47637 29.6509 8.50037 29.8081 8.5885 29.9303C8.67656 30.0526 8.81806 30.125 8.96875 30.125H29.6562C30.2674 30.125 30.7887 30.5169 30.9822 31.0625H1.01781C1.21131 30.5169 1.73263 30.125 2.34375 30.125H7.09375C7.35269 30.125 7.5625 29.9151 7.5625 29.6562C7.5625 29.3974 7.35269 29.1875 7.09375 29.1875H2.34375C1.05138 29.1875 0 30.2389 0 31.5312C0 31.7901 0.209812 32 0.46875 32H31.5312C31.7902 32 32 31.7901 32 31.5312C32 30.2389 30.9486 29.1875 29.6562 29.1875ZM16 0.9375C16.2585 0.9375 16.4688 1.14775 16.4688 1.40625V2.8125H15.5312V1.40625C15.5312 1.14775 15.7415 0.9375 16 0.9375ZM14.6967 4.21875C14.6967 3.96025 14.907 3.75 15.1655 3.75H16.8344C17.0929 3.75 17.3032 3.96025 17.3032 4.21875C17.3032 4.47725 17.0929 4.6875 16.8344 4.6875H15.1655C14.9071 4.6875 14.6967 4.47725 14.6967 4.21875ZM14.2082 5.625H17.7918L18.6887 26.375H13.3112L14.2082 5.625ZM9.61906 29.1875L10.2441 27.3125H21.7559L22.3809 29.1875H9.61906Z" fill="#936037"/>
<path id="Vector_2" d="M16.9367 17.9375H15.0632C14.8121 17.9375 14.6057 18.1352 14.5949 18.386L14.3112 24.9485C14.3057 25.0762 14.3525 25.2006 14.4409 25.2929C14.5294 25.3853 14.6517 25.4375 14.7795 25.4375H17.2204C17.3482 25.4375 17.4705 25.3853 17.559 25.2929C17.6474 25.2006 17.6942 25.0762 17.6887 24.9485L17.405 18.386C17.3942 18.1352 17.1878 17.9375 16.9367 17.9375ZM15.269 24.5L15.5122 18.875H16.4879L16.731 24.5H15.269Z" fill="#936037"/>
</g>
</g>
<defs>
<clipPath id="clip0_408_2967">
<rect width="32" height="32" fill="white"/>
</clipPath>
</defs>
</svg>
