<svg width="32" height="32" viewBox="0 0 32 32" fill="none" xmlns="http://www.w3.org/2000/svg">
<g id="015-spasskaya-tower" clip-path="url(#clip0_408_2996)">
<g id="Group">
<path id="Vector" d="M31.7372 23.0007C31.5763 22.922 31.3847 22.9419 31.2434 23.0518L30.4194 23.6929L29.5953 23.0518C29.4539 22.9419 29.2624 22.9221 29.1016 23.0007C28.9408 23.0793 28.8388 23.2427 28.8388 23.4218V26.1593H27.5219V23.4218C27.5219 23.2427 27.4199 23.0794 27.2591 23.0007C27.0982 22.922 26.9066 22.9419 26.7653 23.0518L25.9413 23.6928L25.118 23.0519C24.9766 22.9419 24.7851 22.922 24.6242 23.0006C24.4633 23.0792 24.3613 23.2427 24.3613 23.4217V26.1592H23.0444V20.8711C23.0444 20.6122 22.8346 20.4024 22.5757 20.4024H22.0156V15.3245C22.0156 15.0656 21.8057 14.8557 21.5468 14.8557H20.9181V13.0884C20.9181 12.9936 20.8894 12.901 20.8358 12.8229L19.3848 10.7109L18.7176 8.95348C18.6257 8.71142 18.3549 8.58974 18.113 8.68161C17.871 8.77349 17.7493 9.04417 17.8411 9.28623L18.4409 10.8663L17.4831 12.2605L16.3863 10.664C16.2989 10.5368 16.1544 10.4607 15.9999 10.4607C15.8455 10.4607 15.701 10.5368 15.6136 10.664L14.5168 12.2605L13.72 11.1007L15.6976 5.8888L16.0176 5.72055C16.0844 5.68542 16.1644 5.68536 16.2314 5.72055L16.5522 5.88923L17.176 7.53242C17.2471 7.71973 17.4252 7.83492 17.6143 7.83492C17.6696 7.83492 17.7259 7.82505 17.7806 7.8043C18.0226 7.71242 18.1443 7.44173 18.0525 7.19967L17.6483 6.1348C17.7921 6.09917 17.9307 6.03586 18.0561 5.94473C18.4182 5.68167 18.5961 5.24417 18.5204 4.80311L18.4068 4.14023C18.394 4.06567 18.4187 3.98961 18.4729 3.9368L18.9546 3.46723C19.2751 3.1548 19.3883 2.69636 19.25 2.27067C19.1117 1.84498 18.7506 1.54061 18.3077 1.47623L17.6421 1.37948C17.5673 1.36861 17.5026 1.32161 17.4691 1.2538L17.1713 0.650609C16.9732 0.249297 16.5721 -7.82013e-05 16.1246 -7.82013e-05C15.6771 -7.82013e-05 15.2759 0.249234 15.0779 0.650609L14.7802 1.2538C14.7467 1.32161 14.6821 1.36861 14.6072 1.37948L13.9416 1.47623C13.4986 1.54061 13.1376 1.84505 12.9993 2.27073C12.8609 2.69642 12.9741 3.15486 13.2946 3.4673L13.7763 3.9368C13.8304 3.98961 13.8552 4.06561 13.8424 4.14017L13.7287 4.80317C13.6531 5.2443 13.8311 5.6818 14.1931 5.94486C14.3187 6.03611 14.4576 6.09917 14.6018 6.13473L12.9577 10.4678C12.8329 10.4884 12.7202 10.5581 12.6474 10.6641L11.1644 12.8229C11.1108 12.901 11.082 12.9935 11.082 13.0884V14.8557H10.4533C10.1944 14.8557 9.98456 15.0656 9.98456 15.3245V20.4024H9.42444C9.1655 20.4024 8.95569 20.6122 8.95569 20.8711V26.1592H7.63881V23.4217C7.63881 23.2427 7.53681 23.0792 7.37594 23.0006C7.215 22.922 7.02344 22.9418 6.88212 23.0519L6.05881 23.6928L5.23481 23.0518C5.0935 22.9419 4.90194 22.9221 4.74106 23.0007C4.58025 23.0794 4.47825 23.2427 4.47825 23.4218V26.1593H3.16125V23.4218C3.16125 23.2427 3.05925 23.0794 2.89844 23.0007C2.73756 22.922 2.546 22.9419 2.40469 23.0518L1.58063 23.6929L0.756562 23.0518C0.615187 22.9419 0.423687 22.9221 0.262812 23.0007C0.102 23.0794 0 23.2427 0 23.4218V31.5312C0 31.79 0.209812 31.9999 0.46875 31.9999H3.62875C3.88769 31.9999 4.0975 31.79 4.0975 31.5312C4.0975 31.2723 3.88769 31.0624 3.62875 31.0624H0.9375V24.3804L1.29281 24.6568C1.46212 24.7885 1.69919 24.7885 1.8685 24.6568L2.22381 24.3804V26.628C2.22381 26.8869 2.43362 27.0968 2.69256 27.0968H4.94694C5.20587 27.0968 5.41569 26.8869 5.41569 26.628V24.3804L5.771 24.6568C5.94031 24.7885 6.1775 24.7885 6.34681 24.6567L6.70131 24.3807V26.628C6.70131 26.8869 6.91113 27.0968 7.17006 27.0968H8.95569V31.0624H5.50375C5.24481 31.0624 5.035 31.2723 5.035 31.5312C5.035 31.79 5.24481 31.9999 5.50375 31.9999H31.5312C31.7902 31.9999 32 31.79 32 31.5312V23.4218C32 23.2427 31.898 23.0793 31.7372 23.0007ZM10.2125 31.0624L11.0684 29.4858L11.9244 31.0624H10.2125ZM13.5002 31.0624L14.3561 29.4858L15.2121 31.0624H13.5002ZM16.7879 31.0624L17.6438 29.4858L18.4998 31.0624H16.7879ZM20.0756 31.0624L20.9315 29.4858L21.7874 31.0624H20.0756ZM21.3434 28.2797C21.2614 28.1286 21.1034 28.0346 20.9315 28.0346C20.7596 28.0346 20.6016 28.1287 20.5196 28.2797L19.2876 30.5487L18.0557 28.2797C17.9737 28.1286 17.8157 28.0345 17.6438 28.0345C17.4719 28.0345 17.3139 28.1286 17.2319 28.2796L16 30.5488L14.7681 28.2797C14.6861 28.1287 14.528 28.0347 14.3561 28.0347C14.1842 28.0347 14.0262 28.1287 13.9442 28.2798L12.7123 30.5489L11.4804 28.2798C11.3984 28.1287 11.2403 28.0347 11.0684 28.0347C10.8966 28.0347 10.7385 28.1288 10.6565 28.2798L9.89306 29.6859V23.8906H13.0072C13.7763 24.653 14.8339 25.1249 15.9999 25.1249C17.1659 25.1249 18.2236 24.653 18.9927 23.8906H22.1068V29.6859L21.3434 28.2797ZM16 24.1874C14.1715 24.1874 12.6839 22.6997 12.6839 20.8713C12.6839 19.0429 14.1715 17.5552 16 17.5552C17.8285 17.5552 19.3161 19.0428 19.3161 20.8713C19.3161 22.6998 17.8285 24.1874 16 24.1874ZM22.1069 22.953H19.7073C19.9817 22.4662 20.1632 21.9207 20.2272 21.3399H22.1068L22.1069 22.953ZM13.949 2.79598C13.8567 2.70605 13.8776 2.6013 13.8909 2.56048C13.9041 2.51961 13.9488 2.42261 14.0764 2.40411L14.7421 2.30736C15.1223 2.25205 15.4509 2.01336 15.6209 1.6688L15.9186 1.06561C15.9757 0.949984 16.0817 0.937547 16.1246 0.937547C16.1676 0.937547 16.2736 0.950047 16.3307 1.06561L16.6284 1.6688C16.7985 2.01336 17.1271 2.25205 17.5073 2.30736L18.1729 2.40411C18.3005 2.42267 18.3451 2.51961 18.3584 2.56048C18.3717 2.60136 18.3926 2.70605 18.3002 2.79598L17.8186 3.26555C17.5435 3.53373 17.4179 3.91992 17.4829 4.29873L17.5966 4.96173C17.6184 5.08873 17.5399 5.16117 17.5051 5.18642C17.4704 5.21167 17.3773 5.26392 17.2632 5.20392L16.6678 4.89092C16.4977 4.80155 16.3112 4.7568 16.1247 4.7568C15.9381 4.7568 15.7515 4.80148 15.5815 4.89092L14.9861 5.20392C14.8721 5.26386 14.7789 5.21167 14.7442 5.18642C14.7094 5.16117 14.631 5.08873 14.6528 4.96167L14.7664 4.29873C14.8314 3.92005 14.7059 3.5338 14.4308 3.26555L13.949 2.79598ZM12.0194 13.2339L13.0337 11.7574L14.1305 13.3537C14.2179 13.481 14.3624 13.557 14.5169 13.557C14.6713 13.557 14.8158 13.481 14.9032 13.3537L16 11.7574L17.0968 13.3538C17.1841 13.481 17.3287 13.5571 17.4831 13.5571C17.6376 13.5571 17.782 13.481 17.8695 13.3538L18.9663 11.7574L19.9806 13.2339V14.8557H12.0194V13.2339ZM10.922 15.7932H21.078V20.4024H20.2272C19.993 18.2768 18.1869 16.6177 16 16.6177C13.8131 16.6177 12.007 18.2769 11.7728 20.4024H10.922V15.7932ZM11.7728 21.3399C11.8368 21.9207 12.0183 22.4662 12.2928 22.953H9.89312V21.3399H11.7728ZM31.0625 31.0624H23.0444V27.0968H24.83C25.0889 27.0968 25.2987 26.8869 25.2987 26.628V24.3807L25.6532 24.6567C25.8227 24.7885 26.0597 24.7885 26.2291 24.6568L26.5844 24.3804V26.628C26.5844 26.8869 26.7942 27.0968 27.0531 27.0968H29.3075C29.5664 27.0968 29.7763 26.8869 29.7763 26.628V24.3804L30.1316 24.6568C30.3009 24.7885 30.5379 24.7885 30.7073 24.6568L31.0626 24.3804V31.0624H31.0625Z" fill="#936037"/>
<path id="Vector_2" d="M16.541 19.6668L16 20.2082L14.6318 18.8401C14.4488 18.6571 14.152 18.657 13.9689 18.8401C13.7858 19.0231 13.7858 19.3199 13.9689 19.5029L15.3373 20.8714L15.315 20.8937C15.132 21.0768 15.1321 21.3736 15.3152 21.5566C15.4068 21.6481 15.5267 21.6938 15.6466 21.6938C15.7666 21.6938 15.8867 21.6479 15.9782 21.5564L16.0002 21.5343L16.0224 21.5565C16.114 21.6481 16.2339 21.6938 16.3539 21.6938C16.4738 21.6938 16.5938 21.6481 16.6854 21.5565C16.8685 21.3734 16.8685 21.0767 16.6854 20.8936L16.663 20.8712L17.2043 20.3296C17.3873 20.1464 17.3872 19.8497 17.2041 19.6667C17.0208 19.4836 16.724 19.4837 16.541 19.6668Z" fill="#936037"/>
</g>
</g>
<defs>
<clipPath id="clip0_408_2996">
<rect width="32" height="32" fill="white"/>
</clipPath>
</defs>
</svg>
