<svg width="32" height="32" viewBox="0 0 32 32" fill="none" xmlns="http://www.w3.org/2000/svg">
<g id="009-handshake">
<path id="Vector" d="M31.9169 21.7791L29.7078 10.6904C29.6523 10.4117 29.4912 10.1712 29.2541 10.0129C29.017 9.85462 28.7329 9.79787 28.4543 9.85344L25.6117 10.4197C25.6117 10.4197 25.6117 10.4197 25.6117 10.4197C25.0353 10.5346 24.6598 11.0969 24.7747 11.6732L24.8019 11.8101C23.0982 12.3752 21.0274 12.538 18.4511 10.4124C17.2775 9.44419 15.7482 9.41231 14.6453 10.3329L13.495 11.2934H7.23066C7.16066 10.8678 6.83553 10.5089 6.38828 10.4197L3.54559 9.85337C3.26684 9.79781 2.98297 9.85456 2.74584 10.0128C2.50872 10.1711 2.34759 10.4117 2.29209 10.6903L0.083032 21.7791C-0.0317805 22.3554 0.343719 22.9177 0.920032 23.0326L3.76266 23.5989C3.83247 23.6128 3.90253 23.6197 3.97222 23.6197C4.18059 23.6197 4.38472 23.5581 4.56241 23.4395C4.79953 23.2811 4.96072 23.0406 5.01622 22.7619L5.02966 22.6944L11.7725 29.4371C12.1723 29.8371 12.7058 30.0573 13.2745 30.0573C13.8431 30.0573 14.3766 29.8371 14.7764 29.4372C15.0615 29.1521 15.2554 28.7991 15.3432 28.4139L16.2805 29.3512C17.1088 30.1794 18.4564 30.1793 19.2846 29.3511C19.5763 29.0593 19.7652 28.7031 19.8515 28.3279C20.2489 28.7147 20.7737 28.9273 21.3324 28.9273C21.9011 28.9273 22.4345 28.707 22.8345 28.307C23.2948 27.8466 23.4993 27.2257 23.4478 26.6227C23.5078 26.6277 23.5684 26.6303 23.6293 26.6303C24.198 26.6303 24.7314 26.41 25.1313 26.0101C25.6918 25.4497 25.8833 24.6124 25.6523 23.8691L26.9463 22.5751L26.9836 22.762C27.0391 23.0406 27.2003 23.2812 27.4374 23.4396C27.6152 23.5582 27.8192 23.6197 28.0276 23.6197C28.0972 23.6197 28.1673 23.6129 28.2372 23.5989L31.0798 23.0326C31.6562 22.9177 32.0317 22.3554 31.9169 21.7791ZM4.00709 22.6077C3.99653 22.6148 3.97947 22.6224 3.95809 22.6181L1.11547 22.0518C1.08109 22.045 1.05691 22.0088 1.06378 21.9745L3.27284 10.8857C3.27709 10.8645 3.29059 10.8516 3.30116 10.8445C3.30966 10.8389 3.32222 10.8329 3.33784 10.8329C3.34172 10.8329 3.34591 10.8333 3.35022 10.8342L6.19284 11.4005C6.22722 11.4074 6.25141 11.4435 6.24453 11.4779L4.03547 22.5665C4.03122 22.5878 4.01772 22.6007 4.00709 22.6077ZM24.4244 25.3028C24.2133 25.5139 23.931 25.6302 23.6295 25.6302C23.328 25.6302 23.0456 25.514 22.8345 25.3029L17.9983 20.4667C17.803 20.2714 17.4865 20.2714 17.2912 20.4667C17.0959 20.6619 17.0959 20.9785 17.2912 21.1737L22.1274 26.0099C22.5657 26.4482 22.5657 27.1614 22.1274 27.5998C21.9163 27.8109 21.634 27.9272 21.3324 27.9272C21.0309 27.9272 20.7486 27.811 20.5375 27.5999L15.4272 22.4897C15.232 22.2944 14.9155 22.2945 14.7202 22.4897C14.5249 22.685 14.5249 23.0015 14.7202 23.1968L18.5772 27.0537L18.5775 27.054H18.5775C19.0158 27.4923 19.0158 28.2054 18.5775 28.6438C18.1391 29.0822 17.4258 29.0821 16.9876 28.6439L12.8563 24.5127C12.6612 24.3175 12.3446 24.3174 12.1492 24.5127C11.954 24.7079 11.954 25.0245 12.1492 25.2197L14.0695 27.1399C14.2806 27.351 14.3968 27.6334 14.3968 27.9349C14.3968 28.2364 14.2805 28.5187 14.0693 28.7299C13.8583 28.9409 13.576 29.0571 13.2745 29.0571C12.9729 29.0571 12.6906 28.9409 12.4795 28.7298L5.26459 21.5151L7.10172 12.2934H12.2974L10.8337 13.5154C10.2 14.0444 9.92784 14.7659 10.087 15.4947L11.2432 20.7932C11.272 20.925 11.3528 21.0396 11.4673 21.1109C11.5819 21.1822 11.7204 21.2044 11.8514 21.1721C13.24 20.8299 14.1684 20.1606 14.6898 19.1261C15.1405 18.232 15.23 17.2147 15.3248 16.1377C15.3368 16.0009 15.349 15.8632 15.3619 15.7251C15.3635 15.7134 15.3654 15.7052 15.367 15.6997C15.5394 15.6271 16.388 15.7951 17.6878 16.9764L24.6507 24.0407C24.842 24.4634 24.7537 24.9737 24.4244 25.3028ZM25.0678 23.0394L18.3904 16.2647C18.3841 16.2584 18.3777 16.2522 18.371 16.2461C17.0382 15.0317 15.7833 14.478 15.0133 14.7652C14.651 14.9003 14.4158 15.2091 14.3682 15.6121C14.3677 15.6161 14.3673 15.62 14.3669 15.624C14.3535 15.7666 14.341 15.9087 14.3285 16.0501C14.1664 17.8924 14.0358 19.3761 12.1057 20.0552L11.0639 15.2816C10.9585 14.7991 11.276 14.4489 11.4745 14.2832L15.2862 11.1007C16.008 10.4982 17.024 10.5316 17.8147 11.1839C20.7112 13.5736 23.1359 13.3912 24.9987 12.7978L26.7115 21.3959L25.0678 23.0394ZM30.8845 22.0518L28.0418 22.6181C28.0204 22.6224 28.0033 22.6148 27.9928 22.6077C27.9822 22.6007 27.9687 22.5878 27.9645 22.5665L25.7554 11.4778C25.7486 11.4435 25.7727 11.4073 25.807 11.4004L28.6497 10.8341C28.671 10.8298 28.6882 10.8374 28.6988 10.8445C28.7093 10.8516 28.7228 10.8644 28.7271 10.8857L30.9362 21.9745C30.943 22.0089 30.9188 22.045 30.8845 22.0518ZM15.5 5.94369V2.44275C15.5 2.16662 15.7238 1.94275 16 1.94275C16.2761 1.94275 16.5 2.16662 16.5 2.44275V5.94369C16.5 6.21981 16.2761 6.44369 16 6.44369C15.7238 6.44369 15.5 6.21981 15.5 5.94369ZM10.9949 3.91781C10.8568 3.67869 10.9388 3.37287 11.1779 3.23481C11.4172 3.09675 11.7229 3.17875 11.8609 3.41781L13.6114 6.44969C13.7495 6.68881 13.6675 6.99462 13.4284 7.13269C13.3497 7.17812 13.2637 7.19975 13.1789 7.19975C13.006 7.19975 12.838 7.11006 12.7454 6.94969L10.9949 3.91781ZM7.64791 6.76481C7.78591 6.52562 8.09172 6.44362 8.33091 6.58181L11.3628 8.33225C11.602 8.47031 11.684 8.77612 11.5458 9.01525C11.4533 9.17562 11.2852 9.26531 11.1123 9.26531C11.0276 9.26531 10.9416 9.24369 10.8628 9.19825L7.83091 7.44781C7.59178 7.30975 7.50978 7.00394 7.64791 6.76481ZM18.3886 6.44975L20.1391 3.41787C20.2772 3.17869 20.583 3.09675 20.8221 3.23487C21.0612 3.37294 21.1432 3.67875 21.0051 3.91787L19.2546 6.94975C19.162 7.11012 18.9939 7.19981 18.8211 7.19981C18.7363 7.19981 18.6503 7.17819 18.5716 7.13275C18.3324 6.99469 18.2505 6.68887 18.3886 6.44975ZM20.6372 8.33225L23.669 6.58181C23.9083 6.44375 24.214 6.52575 24.352 6.76481C24.4902 7.00394 24.4082 7.30975 24.169 7.44781L21.1372 9.19825C21.0584 9.24369 20.9724 9.26531 20.8877 9.26531C20.7148 9.26531 20.5468 9.17562 20.4542 9.01525C20.3161 8.77612 20.398 8.47031 20.6372 8.33225Z" fill="#936037"/>
</g>
</svg>
