<svg width="32" height="32" viewBox="0 0 32 32" fill="none" xmlns="http://www.w3.org/2000/svg">
<g id="013-sports" clip-path="url(#clip0_408_2971)">
<g id="Group">
<g id="Group_2">
<path id="Vector" d="M31.9792 17.9847C31.9999 17.8917 31.9949 17.7949 31.9648 17.7047C31.5991 12.4204 27.2266 8.30868 21.9298 8.26808C20.162 2.34221 13.925 -1.02864 7.99915 0.739183C2.07322 2.50701 -1.29757 8.744 0.47019 14.6699C1.40097 17.7899 3.64365 20.3502 6.61392 21.6838C5.56341 22.2458 4.5875 22.9372 3.70892 23.7419L2.18735 25.1365C1.5359 25.7335 1.49177 26.7456 2.08882 27.397C2.15555 27.4698 2.22888 27.5364 2.30788 27.5956L4.02304 28.882C6.49192 30.7258 9.48925 31.7249 12.5706 31.731H14.0969C17.1779 31.7246 20.1749 30.7256 22.6434 28.882L23.2471 28.4292C28.2654 27.7496 32.0065 23.462 32 18.398C32 18.2583 31.9845 18.1228 31.9792 17.9847ZM29.1825 13.0648C30.1478 14.3797 30.7377 15.9322 30.8891 17.5564L30.4368 17.7825L27.8182 16.037L28.6689 13.0648H29.1825ZM25.574 10.1342C26.5825 10.5858 27.5002 11.2175 28.2822 11.9981H28.2668C28.0286 11.9983 27.8195 12.1563 27.7542 12.3853L26.7548 15.8828L25.0412 16.6732L22.4002 14.9127V12.8093L25.3729 10.7294C25.5621 10.5957 25.6433 10.3552 25.574 10.1342ZM13.5274 12.6557C13.4702 12.7024 13.4233 12.7606 13.3898 12.8264C13.3836 12.8454 13.3784 12.8648 13.3743 12.8845L11.9546 11.4648L13.649 9.77044C14.0996 10.1802 14.5828 10.5526 15.0937 10.884H15.0927C14.5039 11.4119 13.9786 12.0064 13.5274 12.6557ZM12.8255 13.8434C12.2207 15.0401 11.8615 16.3457 11.769 17.6833C11.2756 16.2869 10.5078 15.0033 9.51092 13.9079L11.1994 12.2173L12.8255 13.8434ZM14.0847 13.7698L14.5113 13.9831L15.3721 16.1346L13.2271 18.2822L12.8154 18.0764C12.8677 16.5567 13.3044 15.075 14.0847 13.7698ZM13.0948 19.406C13.3002 19.5084 13.5481 19.4681 13.7103 19.3057L16.1284 16.8881L18.2259 17.7271L19.2206 21.208C19.2302 21.235 19.2424 21.2611 19.2568 21.2859C17.398 20.4359 15.3777 19.9966 13.3338 19.9979C13.2079 19.9979 13.0826 20.0033 12.9567 20.0065L12.9556 20.0038C12.913 19.7649 12.8724 19.5238 12.849 19.2828L13.0948 19.406ZM18.6046 16.7319L16.4105 15.854L15.4292 13.4008C15.3806 13.2792 15.2892 13.1798 15.1721 13.1213L14.6921 12.8802C15.6044 11.6929 16.7955 10.7488 18.1598 10.1315C18.0905 10.3525 18.1717 10.593 18.3608 10.7267L21.3336 12.8093V14.9127L18.6046 16.7319ZM21.8669 15.838L24.3916 17.5249C24.3959 17.5361 24.3948 17.5479 24.4002 17.5591C24.41 17.5775 24.421 17.5954 24.4332 17.6124L23.5981 20.5313H20.1357L19.2867 17.5591L21.8669 15.838ZM24.2951 9.67178V9.67445L24.4338 10.0856L21.8669 11.8803L19.3 10.083L19.4387 9.67178C21.0257 9.21812 22.7081 9.21812 24.2951 9.67178ZM20.8333 8.31821C19.0788 8.49967 17.4027 9.13912 15.9732 10.1726C15.4142 9.83817 14.8889 9.45078 14.4041 9.01579L18.7299 4.69163C19.6765 5.74047 20.393 6.97577 20.8333 8.31821ZM17.9694 3.94124L13.6495 8.26114C12.1394 6.58685 11.2328 4.4555 11.0741 2.20635L11.0122 1.34557C13.5768 1.29537 16.0644 2.22348 17.9694 3.94124ZM9.94877 1.42343L10.0101 2.28208C10.1862 4.78769 11.2021 7.16064 12.8938 9.01739L11.2005 10.7107L4.43157 3.94124C5.96813 2.55494 7.89462 1.67576 9.94877 1.42343ZM3.67745 4.69536L10.4464 11.4648L8.75733 13.1538C6.89884 11.4629 4.52436 10.4482 2.01775 10.2739L1.15857 10.2126C1.41123 8.15835 2.29075 6.23186 3.67745 4.69536ZM1.08124 11.2765L1.94202 11.3379C4.19177 11.4951 6.32439 12.4001 8.00055 13.909L3.67585 18.2342C1.95856 16.3288 1.03084 13.8412 1.08124 11.2765ZM4.4241 18.9958L8.75733 14.6647C10.1316 16.196 11.0047 18.1109 11.2597 20.1526C10.1218 20.3193 9.00839 20.6237 7.94402 21.0593C6.64325 20.6165 5.44581 19.9146 4.4241 18.9958ZM23.7938 26.6762C23.7715 26.7005 23.7471 26.7226 23.7207 26.7424L22.0029 28.0293C19.7193 29.7345 16.9469 30.6586 14.0969 30.6644H12.5706C9.72058 30.6586 6.94824 29.7345 4.66463 28.0293L2.94893 26.7424C2.71327 26.5657 2.66547 26.2314 2.8422 25.9957C2.86193 25.9694 2.88413 25.9449 2.9084 25.9227L4.4273 24.528C5.51307 23.5385 6.75691 22.7377 8.10721 22.159C8.18821 22.1439 8.26454 22.1102 8.33014 22.0604C13.0524 20.1099 18.477 21.0723 22.2402 24.528L23.7613 25.9227C23.9783 26.1217 23.9929 26.4591 23.7938 26.6762ZM22.9586 23.7419C22.0344 22.8955 21.0025 22.1746 19.8899 21.5979H23.7794L24.9527 22.7712L23.9916 24.6912L22.9586 23.7419ZM24.8572 26.953C25.0728 26.4893 25.041 25.9482 24.7724 25.513L25.9297 23.1979H29.0038L29.2411 23.6725C28.1546 25.1934 26.6228 26.3396 24.8572 26.953ZM29.8971 22.6022L29.8134 22.4262C29.7226 22.2445 29.5365 22.1301 29.3334 22.1312H25.8209L24.5991 20.9094L25.5393 17.6183L27.1526 16.8743L30.104 18.8417C30.263 18.9476 30.4664 18.9604 30.6374 18.8753L30.9163 18.7356C30.8696 20.0844 30.5213 21.4056 29.8971 22.6022Z" fill="#936037"/>
</g>
</g>
<g id="Group_3">
<g id="Group_4">
<path id="Vector_2" d="M18.1337 25.3312H17.6004V24.7978C17.6004 24.5033 17.3616 24.2645 17.0671 24.2645C16.7725 24.2645 16.5337 24.5033 16.5337 24.7978V25.3312H15.4671V24.7978C15.4671 24.5033 15.2283 24.2645 14.9338 24.2645C14.6393 24.2645 14.4005 24.5033 14.4005 24.7978V25.3312H13.3338V24.7978C13.3338 24.5033 13.095 24.2645 12.8005 24.2645C12.506 24.2645 12.2672 24.5033 12.2672 24.7978V25.3312H11.2005V24.7978C11.2005 24.5033 10.9617 24.2645 10.6672 24.2645C10.3727 24.2645 10.1339 24.5033 10.1339 24.7978V25.3312H9.06724V24.7978C9.06724 24.5033 8.82845 24.2645 8.53392 24.2645C8.2394 24.2645 8.0006 24.5033 8.0006 24.7978V25.3312H7.46728C7.17275 25.3312 6.93396 25.5699 6.93396 25.8645C6.93396 26.159 7.17275 26.3978 7.46728 26.3978H8.0006V26.9311C8.0006 27.2256 8.2394 27.4644 8.53392 27.4644C8.82845 27.4644 9.06724 27.2256 9.06724 26.9311V26.3978H10.1339V26.9311C10.1339 27.2256 10.3727 27.4644 10.6672 27.4644C10.9617 27.4644 11.2005 27.2256 11.2005 26.9311V26.3978H12.2672V26.9311C12.2672 27.2256 12.506 27.4644 12.8005 27.4644C13.095 27.4644 13.3338 27.2256 13.3338 26.9311V26.3978H14.4005V26.9311C14.4005 27.2256 14.6393 27.4644 14.9338 27.4644C15.2283 27.4644 15.4671 27.2256 15.4671 26.9311V26.3978H16.5337V26.9311C16.5337 27.2256 16.7725 27.4644 17.0671 27.4644C17.3616 27.4644 17.6004 27.2256 17.6004 26.9311V26.3978H18.1337C18.4282 26.3978 18.667 26.159 18.667 25.8645C18.667 25.5699 18.4282 25.3312 18.1337 25.3312Z" fill="#936037"/>
</g>
</g>
</g>
<defs>
<clipPath id="clip0_408_2971">
<rect width="32" height="32" fill="white"/>
</clipPath>
</defs>
</svg>
