<svg width="32" height="32" viewBox="0 0 32 32" fill="none" xmlns="http://www.w3.org/2000/svg">
<g id="006-disabled" clip-path="url(#clip0_408_2809)">
<path id="Vector" d="M27.6731 24.4062L25.3383 18.4067C24.9904 17.5122 24.3877 16.7529 23.5954 16.2112C22.8032 15.6694 21.8769 15.3831 20.9172 15.3831H18.7771C18.5888 15.1812 18.3923 14.9868 18.1875 14.8013V10.178C18.1875 8.76074 17.4773 7.50659 16.3947 6.75098C17.4663 6.12036 18.1875 4.95557 18.1875 3.625C18.1875 1.62622 16.5612 0 14.5625 0C12.5637 0 10.9375 1.62622 10.9375 3.625C10.9375 4.73657 11.4409 5.73242 12.2312 6.39795C11.4504 6.76538 10.788 7.37183 10.3554 8.15234C9.60421 9.50708 9.16842 11.0222 9.08004 12.5662C7.4736 12.9824 5.9941 13.7996 4.77877 14.9487C3.45846 16.1975 2.50924 17.7793 2.03414 19.5229C1.94332 19.8562 2.13961 20.1997 2.47286 20.2903C2.5278 20.3054 2.58297 20.3125 2.63742 20.3125C2.91232 20.3125 3.16427 20.1296 3.2402 19.8516C4.01632 17.0027 6.26144 14.7227 9.06271 13.8696V15.7195C7.863 16.1863 6.82736 16.9736 6.0483 18.0186C5.15792 19.2122 4.68746 20.6321 4.68746 22.125C4.68746 25.9158 7.77169 29 11.5625 29C15.3532 29 18.4375 25.9158 18.4375 22.125C18.4375 18.98 16.3103 16.261 13.3125 15.4763V13.678C17.278 14.4929 20.1875 18.0066 20.1875 22.125C20.1875 26.8809 16.3183 30.75 11.5625 30.75C7.73312 30.75 4.32321 28.1821 3.26998 24.5051C3.17477 24.1733 2.82882 23.9814 2.49703 24.0764C2.16525 24.1716 1.97311 24.5176 2.06832 24.8494C2.64694 26.8696 3.88986 28.6892 5.56784 29.9729C7.30148 31.2991 9.37423 32 11.5625 32C14.5205 32 17.1787 30.6924 18.99 28.625H29.6875C30.0327 28.625 30.3125 28.3452 30.3125 28V27.4539C30.3125 25.9053 29.1635 24.6204 27.6731 24.4062ZM14.5625 1.25C15.872 1.25 16.9375 2.31543 16.9375 3.625C16.9375 4.93457 15.872 6 14.5625 6C13.2529 6 12.1875 4.93457 12.1875 3.625C12.1875 2.31543 13.2529 1.25 14.5625 1.25ZM17.1875 22.125C17.1875 25.2266 14.664 27.75 11.5625 27.75C8.4609 27.75 5.93746 25.2266 5.93746 22.125C5.93746 19.9504 7.16329 18.0195 9.06246 17.0833V18.1875C9.06246 19.3591 10.0158 20.3125 11.1875 20.3125C12.3591 20.3125 13.3125 19.3591 13.3125 18.1875V16.7771C15.5962 17.5208 17.1875 19.6638 17.1875 22.125ZM12.6875 11.5208C12.3422 11.5208 12.0625 11.8005 12.0625 12.1458V18.1875C12.0625 18.6699 11.6699 19.0625 11.1875 19.0625C10.705 19.0625 10.3125 18.6699 10.3125 18.1875V16.1624C10.3125 16.1606 10.3125 16.1589 10.3125 16.157V13.1504C10.3125 11.6177 10.7053 10.0989 11.4485 8.7583C11.9643 7.82788 12.9455 7.25 14.0095 7.25C15.624 7.25 16.9375 8.56348 16.9375 10.178V13.8384C15.8606 13.1382 14.6352 12.6414 13.3125 12.4053V12.146C13.3125 11.8008 13.0327 11.5208 12.6875 11.5208ZM21.4375 22.125C21.4375 21.8728 21.4275 21.6228 21.4087 21.375H21.4775L24.2016 27.375H19.9226C20.8816 25.8533 21.4375 24.053 21.4375 22.125ZM25.5744 27.375L22.4492 20.4917C22.3479 20.2683 22.1255 20.125 21.8803 20.125H21.2334C20.9721 18.8591 20.468 17.677 19.7688 16.6331H20.9172C22.3689 16.6331 23.6472 17.5071 24.1735 18.8601L26.6511 25.2266C26.7446 25.4668 26.9758 25.625 27.2336 25.625C28.2155 25.625 29.0195 26.4028 29.0608 27.375H25.5744Z" fill="#936037"/>
<path id="Vector_2" d="M2.75439 22.6194C2.87061 22.5032 2.9375 22.3418 2.9375 22.1775C2.9375 22.0125 2.87061 21.8518 2.75439 21.7356C2.63818 21.6187 2.47681 21.5525 2.3125 21.5525C2.14819 21.5525 1.98682 21.6187 1.87061 21.7356C1.75439 21.8518 1.6875 22.0125 1.6875 22.1775C1.6875 22.3418 1.75439 22.5032 1.87061 22.6194C1.98682 22.7356 2.14819 22.8025 2.3125 22.8025C2.47681 22.8025 2.63818 22.7356 2.75439 22.6194Z" fill="#936037"/>
<path id="Vector_3" d="M13.4429 25.3108C13.5667 25.4565 13.7427 25.5315 13.9199 25.5315C14.0628 25.5315 14.2063 25.4827 14.324 25.3831C15.2832 24.5693 15.8333 23.3818 15.8333 22.125C15.8333 21.7798 15.5535 21.5 15.2083 21.5C14.8631 21.5 14.5833 21.7798 14.5833 22.125C14.5833 23.0142 14.1941 23.854 13.5152 24.4299C13.252 24.6531 13.2198 25.0476 13.4429 25.3108Z" fill="#936037"/>
<path id="Vector_4" d="M11.5708 25.1458C11.5693 25.1458 11.5679 25.1458 11.5667 25.1458H11.5625C11.2173 25.1458 10.9375 25.4255 10.9375 25.7708C10.9375 26.116 11.2173 26.3958 11.5625 26.3958H11.5781C11.9231 26.3926 12.1992 26.1106 12.1965 25.7659C12.1938 25.4224 11.9138 25.1458 11.5708 25.1458Z" fill="#936037"/>
</g>
<defs>
<clipPath id="clip0_408_2809">
<rect width="32" height="32" fill="white"/>
</clipPath>
</defs>
</svg>
