<svg width="32" height="32" viewBox="0 0 32 32" fill="none" xmlns="http://www.w3.org/2000/svg">
<g id="011-coat-of-arms" clip-path="url(#clip0_408_2963)">
<g id="Group">
<path id="Vector" d="M31.2046 10.6584C31.4536 10.7296 31.713 10.5854 31.7841 10.3365C31.8993 9.93336 31.9711 9.51568 31.9976 9.09499C32.0233 8.68781 31.836 8.30962 31.4965 8.0833C31.1569 7.85699 30.7358 7.82962 30.3698 8.01006L29.5918 8.39362C29.7286 7.45906 29.671 6.50287 29.4178 5.583C29.3066 5.17887 28.9982 4.87419 28.5927 4.76794C28.1872 4.66156 27.769 4.77594 27.4739 5.07356L20.7652 11.8395C20.5414 11.5336 20.1972 11.3214 19.803 11.2725C19.5742 10.7972 19.3459 10.2091 19.7003 9.6808C19.9189 9.35355 20.2699 9.16587 20.6634 9.16587H22.1192C22.3334 9.16587 22.5204 9.02062 22.5734 8.81299C22.7467 8.13349 22.5994 7.42618 22.1692 6.87243C21.96 6.60306 21.6987 6.39012 21.405 6.24187L21.5679 5.54387C21.6486 5.19794 21.5682 4.84 21.3475 4.56181C21.1267 4.28363 20.7964 4.124 20.4412 4.124H20.3695V3.82831C20.3695 3.56944 20.1596 3.35957 19.9007 3.35957C19.6419 3.35957 19.432 3.56944 19.432 3.82831V4.124H19.3603C19.005 4.124 18.6747 4.28356 18.4539 4.56181C18.2666 4.79112 18.1377 5.24306 18.2527 5.62619C18.1044 5.50712 17.9871 5.34981 17.9132 5.16412C17.7921 4.85937 17.798 4.50981 17.9279 4.2025L18.2705 3.57675C18.4917 3.17275 18.5014 2.68525 18.2967 2.27275C18.0919 1.86019 17.6977 1.57332 17.2421 1.50519C17.0264 1.47294 16.8026 1.49176 16.5952 1.55963C16.5534 1.57332 16.5112 1.58482 16.4689 1.59557V1.37469C16.4689 1.11582 16.259 0.905945 16.0001 0.905945C15.7412 0.905945 15.5314 1.11582 15.5314 1.37469V1.59551C15.4891 1.58476 15.4469 1.57326 15.405 1.55957C15.1976 1.49169 14.9738 1.47288 14.7581 1.50513C14.3025 1.57319 13.9083 1.86013 13.7035 2.27269C13.4987 2.68525 13.5085 3.17269 13.7297 3.57669L14.0739 4.20531C14.2026 4.51175 14.2081 4.85987 14.0874 5.16362C14.0135 5.3495 13.896 5.50694 13.7474 5.62612C13.8341 5.33037 13.8034 4.90269 13.5462 4.56175C13.3254 4.2835 12.9951 4.12394 12.6399 4.12394H12.5682V3.82825C12.5682 3.56938 12.3583 3.3595 12.0994 3.3595C11.8406 3.3595 11.6307 3.56938 11.6307 3.82825V4.12394H11.559C11.2038 4.12394 10.8735 4.2835 10.6527 4.56175C10.4319 4.84 10.3516 5.19794 10.4323 5.54387L10.5951 6.24187C10.3015 6.39012 10.0402 6.60306 9.83094 6.87243C9.40075 7.42618 9.25344 8.13349 9.42682 8.81299C9.47982 9.02055 9.66675 9.16587 9.881 9.16587H11.3368C11.7303 9.16587 12.0813 9.35355 12.2999 9.6808C12.6361 10.1014 12.4437 10.7996 12.1971 11.2725C11.8029 11.3214 11.4588 11.5336 11.235 11.8395L7.73707 8.31168C7.55476 8.12787 7.25801 8.12662 7.0742 8.30887C6.89039 8.49112 6.88913 8.78793 7.07138 8.97174L10.4089 12.3378L3.47114 8.91762C3.20283 7.90718 3.20727 6.84456 3.48602 5.83175C3.51689 5.71962 3.60745 5.68462 3.64489 5.67481C3.68245 5.665 3.77845 5.65106 3.86039 5.73369L5.52583 7.41337C5.70814 7.59718 6.00489 7.59849 6.1887 7.41618C6.37251 7.23387 6.37376 6.93712 6.19151 6.75331L4.52614 5.07356C4.23102 4.77594 3.81289 4.66163 3.40733 4.76794C3.00189 4.87419 2.69346 5.17887 2.58221 5.58294C2.32889 6.50325 2.27158 7.45918 2.40846 8.39368L1.63021 8.00999C1.26421 7.82956 0.843022 7.85699 0.503523 8.08324C0.164023 8.30949 -0.0233512 8.68774 0.00233625 9.09493C0.0963361 10.5845 0.739522 11.9442 1.78327 12.9439L1.37308 12.9279C0.951459 12.9109 0.564648 13.1145 0.339023 13.4712C0.113336 13.828 0.0953986 14.2643 0.291023 14.6384C0.982147 15.9599 2.18271 16.9027 3.57052 17.287C3.34352 17.4597 3.19583 17.7165 3.16327 18.0103C3.1212 18.3901 3.27977 18.7523 3.58739 18.979C4.56026 19.696 5.7327 20.066 6.91251 20.066C7.11088 20.066 7.30945 20.0545 7.50732 20.0335L7.35832 20.1977C7.09832 20.484 7.01326 20.8748 7.1307 21.2433C7.2482 21.6118 7.54382 21.8813 7.92157 21.9643C8.55144 22.0715 9.13519 22.1254 9.81113 22.034C9.7765 22.1789 9.75807 22.3287 9.75807 22.482C9.75807 22.6785 9.78794 22.8692 9.84394 23.0511L7.1527 24.3815C6.81107 24.1456 6.21339 24.0977 5.77701 24.3852L5.00358 23.2385C5.31889 22.8695 5.4772 22.3701 5.39489 21.8543C5.24595 20.9206 4.3652 20.2822 3.43133 20.4311C3.3362 20.4463 3.24427 20.4694 3.15577 20.4991L2.82602 20.0103C2.68127 19.7956 2.38996 19.739 2.17527 19.8838C1.96064 20.0285 1.90402 20.3199 2.04877 20.5345L2.38296 21.03C2.07858 21.397 1.92714 21.888 2.00802 22.3947C2.17971 23.3932 3.2032 24.086 4.22314 23.7582L4.97364 24.8708C4.77445 25.035 4.63064 25.2555 4.56251 25.51C4.47614 25.8328 4.52058 26.1698 4.6877 26.4591C4.8317 26.7084 5.0562 26.8945 5.31495 26.9963C5.27014 27.2783 5.32251 27.565 5.46733 27.8157C5.69201 28.2048 6.11232 28.4409 6.55357 28.4409C6.71457 28.4411 7.00307 28.3897 7.2427 28.2348L7.9707 29.3141C8.06126 29.4484 8.20913 29.5208 8.35976 29.5208C8.44988 29.5208 8.54107 29.4948 8.62144 29.4406C8.83607 29.2959 8.89269 29.0045 8.74794 28.7899L8.0462 27.7495C8.31326 27.4832 8.48932 27.2593 8.50044 26.7564L11.1744 25.8226C11.1092 26.0499 11.0728 26.2695 11.0728 26.4778C11.0728 26.9461 11.2426 27.3592 11.5639 27.6723C12.0461 28.1422 12.7631 28.2958 13.2336 28.3448C13.2481 28.9651 13.6404 29.4635 14.3435 29.7503C14.8651 29.963 15.3084 30.3561 15.5921 30.8573C15.6753 31.0043 15.8317 31.0942 16.0007 31.0941C16.1696 31.0941 16.326 31.0023 16.4092 30.8553C16.6927 30.3543 17.1352 29.9615 17.6552 29.7493C18.3592 29.462 18.752 28.964 18.7665 28.3448C19.237 28.2958 19.954 28.1422 20.4362 27.6723C20.7575 27.3592 20.9273 26.9461 20.9273 26.4778C20.9273 26.2815 20.8979 26.0775 20.8442 25.8678L23.8049 27.0156C23.9262 27.284 24.1397 27.5088 24.416 27.6374C24.644 27.716 24.8275 27.8041 25.2453 27.7166C25.3695 27.9655 25.5751 28.1727 25.8363 28.2942C26.0065 28.3734 26.1855 28.4108 26.3619 28.4108C26.8337 28.4108 27.2863 28.1428 27.498 27.6876L27.8387 26.9553C27.864 26.9008 27.8838 26.8448 27.901 26.7881C28.8485 26.3534 29.468 25.4036 29.468 24.3434C29.468 23.0199 28.507 21.9173 27.2464 21.6948V21.3973C27.2464 21.1384 27.0365 20.9285 26.7777 20.9285C26.5188 20.9285 26.3089 21.1384 26.3089 21.3973V21.6948C25.1107 21.9063 24.184 22.9131 24.0952 24.1488L22.1486 23.0697C22.2197 22.8338 22.2861 22.4298 22.19 22.0445C22.4009 22.0763 22.6199 22.0925 22.8492 22.0925C23.2249 22.0925 23.6278 22.0503 24.0657 21.9669C24.07 21.9661 24.0744 21.9652 24.0787 21.9643C24.4564 21.8813 24.752 21.6118 24.8695 21.2433C24.9869 20.8748 24.9018 20.484 24.6418 20.1977L24.4928 20.0335C24.6907 20.0545 24.8892 20.066 25.0875 20.066C26.2672 20.066 27.44 19.696 28.4127 18.979C28.7203 18.7523 28.8789 18.3902 28.8368 18.0103C28.8043 17.7165 28.6566 17.4597 28.4296 17.287C29.8174 16.9028 31.0179 15.96 31.7091 14.6385C31.9047 14.2644 31.8868 13.828 31.6611 13.4713C31.4354 13.1145 31.048 12.9107 30.627 12.9279L30.2112 12.9442C30.3813 12.7805 30.5431 12.6074 30.694 12.4224C30.8576 12.2218 30.8276 11.9265 30.627 11.7629C30.4263 11.5992 30.131 11.6293 29.9675 11.8299C29.5753 12.3107 29.1033 12.7062 28.5648 13.0087L21.8144 13.2732L30.7843 8.85099C30.871 8.80818 30.942 8.84043 30.9765 8.86349C31.011 8.88655 31.068 8.93955 31.062 9.03605C31.0396 9.38968 30.9793 9.74055 30.8826 10.0791C30.8115 10.3279 30.9556 10.5873 31.2046 10.6584ZM28.1395 5.73369C28.2215 5.651 28.3175 5.66494 28.355 5.67481C28.3925 5.68462 28.483 5.71962 28.5139 5.83181C28.7926 6.84425 28.7968 7.90737 28.5285 8.9178L21.5912 12.3379L28.1395 5.73369ZM19.159 21.564C19.159 21.9509 18.9338 22.298 18.5987 22.464C18.3273 22.1765 18.0491 21.8984 17.7741 21.6345C18.1771 21.4027 18.6199 21.249 19.0839 21.1825C19.1332 21.3023 19.159 21.431 19.159 21.564ZM21.7062 8.22843H20.6633C19.9617 8.22843 19.3102 8.57674 18.9206 9.16018C18.5257 9.73018 18.4594 10.5962 18.7834 11.2614H16.4687V9.9738C16.4687 8.30018 17.8302 6.93862 19.5039 6.93862H20.3888C20.7984 6.93862 21.1775 7.12418 21.4289 7.44768C21.606 7.67568 21.701 7.94831 21.7062 8.22843ZM14.9585 5.50994C15.0892 5.18087 15.1356 4.82275 15.099 4.47144H16.9014C16.8647 4.82294 16.9111 5.18125 17.0419 5.51037C17.1887 5.87981 17.4306 6.19031 17.7403 6.41543C16.9998 6.78393 16.3899 7.37637 15.9999 8.10405C15.6101 7.37637 15.0001 6.78393 14.2596 6.41543C14.5696 6.19025 14.8116 5.87962 14.9585 5.50994ZM19.1882 5.14456C19.2128 5.1135 19.2679 5.0615 19.3602 5.0615H20.4411C20.5334 5.0615 20.5884 5.11356 20.613 5.14456C20.6377 5.17556 20.6759 5.24106 20.6549 5.33087L20.4977 6.00412L19.3039 6.00612L19.1463 5.33087C19.1254 5.24106 19.1635 5.17562 19.1882 5.14456ZM14.5432 2.68957C14.6128 2.54925 14.7416 2.4555 14.8965 2.43238C14.9689 2.42163 15.0438 2.42788 15.1133 2.45063C15.6934 2.6405 16.3066 2.64057 16.8866 2.45063C16.9562 2.42788 17.0312 2.42169 17.1035 2.43238C17.2584 2.45557 17.3872 2.54932 17.4568 2.68957C17.5265 2.82988 17.5232 2.98913 17.4481 3.12657L17.2251 3.53394H14.7749L14.5519 3.12657C14.4767 2.98919 14.4735 2.82988 14.5432 2.68957ZM11.3451 5.33094C11.3241 5.24106 11.3623 5.17556 11.3869 5.14456C11.4115 5.1135 11.4666 5.0615 11.5588 5.0615H12.6397C12.7321 5.0615 12.7871 5.11356 12.8117 5.14456C12.8364 5.17556 12.8745 5.241 12.8536 5.33087L12.696 6.00612L11.5021 6.00412L11.3451 5.33094ZM11.3366 8.22843H10.2937C10.2989 7.94837 10.3939 7.67574 10.5711 7.44768C10.8224 7.12418 11.2014 6.93862 11.6111 6.93862H12.4961C14.1697 6.93862 15.5312 8.30018 15.5312 9.9738V11.2614H13.2165C13.5249 10.6447 13.4957 9.77393 13.0793 9.16018C12.6897 8.57674 12.0382 8.22843 11.3366 8.22843ZM11.9011 12.6687C11.9011 12.4096 12.1119 12.1989 12.3709 12.1989H19.6291C19.8882 12.1989 20.0989 12.4096 20.0989 12.6687V19.737C20.0989 19.8627 20.0499 19.9808 19.9609 20.0695C19.8722 20.1581 19.7544 20.2068 19.6291 20.2068C18.4608 20.1995 17.2157 20.6818 16.3549 21.5458L16.0001 21.8961L15.6451 21.5458C14.8024 20.7139 13.6967 20.2437 12.5183 20.2101C12.4128 20.2077 12.2057 20.2217 12.0392 20.0696C11.9502 19.9808 11.9012 19.8627 11.9012 19.737L11.9011 12.6687ZM13.4246 22.4755C13.0757 22.3149 12.8397 21.9617 12.8397 21.5639C12.8397 21.431 12.8655 21.3021 12.9149 21.1823C13.3856 21.2497 13.8348 21.4065 14.2426 21.6438C13.9699 21.9092 13.6941 22.188 13.4246 22.4755ZM0.937959 9.03593C0.931834 8.93943 0.988897 8.88637 1.02346 8.86337C1.0579 8.8403 1.12883 8.80805 1.21565 8.85087L10.1856 13.2731L3.43358 13.0086C1.97477 12.1887 1.04352 10.7098 0.937959 9.03593ZM1.12165 14.2039C1.06571 14.097 1.10965 14.0064 1.13115 13.9724C1.15265 13.9384 1.21533 13.8606 1.33627 13.8646L10.4591 14.222L5.2052 16.5345C3.50914 16.6225 1.91139 15.7139 1.12165 14.2039ZM4.14352 18.2243C4.09702 18.1901 4.09145 18.1452 4.09502 18.1135C4.09852 18.0819 4.11377 18.0393 4.16664 18.016L10.9636 15.0242V16.2274L8.62613 18.8014C7.14157 19.3917 5.43201 19.174 4.14352 18.2243ZM8.11588 21.0469C8.05844 21.0317 8.03407 20.9908 8.02382 20.9585C8.01313 20.9249 8.00938 20.875 8.05226 20.8278L10.9636 17.6219V19.737C10.9636 20.0048 11.0392 20.2605 11.1781 20.482C10.3519 21.0074 9.45788 21.3189 8.11588 21.0469ZM11.3516 21.4468C11.4761 21.3652 11.6674 21.2797 11.9361 21.2064C11.9144 21.3233 11.9021 21.4427 11.9021 21.564C11.9021 22.2345 12.2489 22.8405 12.7854 23.1908C12.6109 23.3965 12.4436 23.6042 12.2862 23.8121C11.3939 23.7432 10.6955 23.173 10.6955 22.482C10.6945 22.1386 10.9399 21.678 11.3516 21.4468ZM11.6711 24.6561L8.12595 25.8941C8.00632 25.7762 7.86432 25.6835 7.70588 25.6218C7.73026 25.4672 7.72513 25.3114 7.69182 25.1607L10.3168 23.8631C10.6556 24.234 11.1268 24.5153 11.6711 24.6561ZM6.4697 25.1158C6.49689 25.1158 6.52426 25.1193 6.55126 25.1266C6.63214 25.1482 6.6997 25.2001 6.74157 25.2726C6.78345 25.3451 6.79457 25.4295 6.77295 25.5103C6.75126 25.5911 6.69945 25.6588 6.62695 25.7006L5.92757 26.1046C5.89389 26.124 5.85782 26.1369 5.82039 26.1429C5.69295 26.1633 5.56414 26.1018 5.49951 25.99C5.45764 25.9175 5.44651 25.8331 5.46814 25.7522C5.48983 25.6714 5.54164 25.6038 5.61414 25.562L6.31357 25.1579C6.36182 25.1301 6.41539 25.1158 6.4697 25.1158ZM2.93383 22.247C2.86627 21.8237 3.1557 21.4244 3.57895 21.3568C3.92377 21.295 4.38983 21.5452 4.46908 22.002C4.53664 22.4252 4.2472 22.8245 3.82395 22.8921C3.40052 22.9595 3.00133 22.6702 2.93383 22.247ZM6.70714 27.4613C6.67345 27.4808 6.63739 27.4936 6.59995 27.4996C6.47251 27.5201 6.34364 27.4585 6.27901 27.3467C6.23714 27.2742 6.22601 27.1898 6.2477 27.1089C6.26932 27.0281 6.32114 26.9605 6.39364 26.9186C6.40057 26.9136 7.06945 26.5273 7.09313 26.5146C7.16563 26.4728 7.24995 26.4616 7.33082 26.4833C7.4117 26.505 7.47926 26.5568 7.5212 26.6293C7.56307 26.7018 7.5742 26.7862 7.55251 26.8671C7.53088 26.9479 7.47901 27.0155 7.40657 27.0573L6.70714 27.4613ZM19.7831 26.9995C19.518 27.259 19.0451 27.3689 18.6905 27.4093C18.635 27.0751 18.5507 26.7385 18.4377 26.4092C18.3537 26.1643 18.087 26.034 17.8422 26.1179C17.5974 26.2019 17.4669 26.4685 17.5509 26.7134C17.7311 27.2385 17.8303 27.8053 17.8303 28.3092C17.8303 28.3973 17.8303 28.6651 17.3007 28.8813C16.8017 29.0849 16.3554 29.4083 15.9996 29.8182C15.6437 29.4091 15.1969 29.0858 14.6974 28.8821C14.1696 28.6668 14.1696 28.407 14.1696 28.3092C14.1696 26.6912 15.1275 24.9146 15.9999 24.9146C16.1717 24.9146 16.3508 24.9825 16.5322 25.1164C16.7405 25.2701 17.034 25.226 17.1877 25.0176C17.3415 24.8093 17.2972 24.5159 17.089 24.3622C16.7429 24.1067 16.3765 23.9771 15.9999 23.9771C15.2324 23.9771 14.5096 24.5172 13.9645 25.4978C13.6492 26.0651 13.4212 26.7391 13.3096 27.4089C12.9579 27.3682 12.4824 27.2584 12.2181 27.0008C12.0762 26.8626 12.0102 26.6964 12.0102 26.4777C12.0102 25.5927 13.0934 24.0521 14.9944 22.2208L15.6707 22.8883C15.7619 22.9785 15.8809 23.0235 16 23.0235C16.1191 23.0235 16.2381 22.9785 16.3293 22.8883L17.0135 22.213C17.0149 22.2115 17.0165 22.2102 17.0179 22.2088C17.4188 22.5892 17.7837 22.9585 18.1091 23.3129C18.1109 23.315 18.1127 23.317 18.1146 23.319C19.3219 24.6355 19.9897 25.7477 19.9897 26.4776C19.9897 26.6958 19.924 26.8616 19.7831 26.9995ZM24.8113 26.7873C24.6943 26.7329 24.6217 26.6099 24.6307 26.4811C24.6333 26.4433 24.643 26.4062 24.6593 26.371L25 25.6386C25.0353 25.5628 25.0981 25.5051 25.1767 25.4765C25.2118 25.4636 25.2481 25.4573 25.2843 25.4573C25.3294 25.4573 25.3743 25.4671 25.4164 25.4867C25.4923 25.522 25.5499 25.5848 25.5787 25.6634C25.6073 25.742 25.6037 25.8271 25.5684 25.903C25.5656 25.9113 25.2399 26.611 25.2277 26.6354C25.1924 26.7113 25.1297 26.7689 25.051 26.7976C24.9723 26.8262 24.8872 26.8226 24.8113 26.7873ZM26.9885 26.5598L26.6478 27.2921C26.5749 27.4488 26.388 27.5169 26.2315 27.4441C26.1144 27.3896 26.0418 27.2666 26.0508 27.1379C26.0534 27.1 26.0631 27.063 26.0795 27.0278L26.4202 26.2954C26.4555 26.2195 26.5182 26.162 26.5968 26.1332C26.6754 26.1045 26.7605 26.1081 26.8365 26.1435C26.9123 26.1788 26.97 26.2415 26.9987 26.3201C27.0275 26.3988 27.0238 26.4839 26.9885 26.5598ZM26.7775 22.5905C27.744 22.5905 28.5303 23.3768 28.5303 24.3433C28.5303 24.9286 28.24 25.4613 27.7763 25.783C27.649 25.5703 27.4616 25.4003 27.2319 25.2934C26.9698 25.1715 26.6802 25.1446 26.4035 25.2136C26.2779 24.96 26.072 24.7577 25.8117 24.6366C25.5663 24.5224 25.297 24.4927 25.0366 24.5459C25.029 24.479 25.0247 24.4115 25.0247 24.3433C25.0247 23.3768 25.811 22.5905 26.7775 22.5905ZM24.147 25.2495L23.7964 26.0068L20.3181 24.6583C20.8599 24.52 21.3298 24.2426 21.6697 23.876L24.147 25.2495ZM21.3031 22.482C21.3031 23.1647 20.6213 23.7291 19.7445 23.8091C19.5849 23.5963 19.4141 23.3844 19.2363 23.1749C19.7592 22.8217 20.0964 22.2224 20.0964 21.564C20.0964 21.4427 20.0841 21.3233 20.0624 21.2064C20.6011 21.3131 21.3094 21.8182 21.3031 22.482ZM23.9761 20.9585C23.9657 20.9912 23.9409 21.0328 23.8817 21.0475C22.5705 21.3128 21.7569 21.0655 20.8216 20.4824C20.9607 20.2609 21.0363 20.005 21.0363 19.737V17.6219L23.9477 20.8278C23.9906 20.875 23.9869 20.925 23.9761 20.9585ZM27.8564 18.2243C26.5679 19.1739 24.8583 19.3917 23.3738 18.8014L21.0363 16.2274V15.0242L27.8333 18.016C27.8862 18.0392 27.9014 18.0819 27.9049 18.1135C27.9085 18.1452 27.9029 18.1901 27.8564 18.2243ZM30.6636 13.8646C30.7843 13.861 30.8473 13.9384 30.8688 13.9724C30.8903 14.0064 30.9342 14.097 30.8783 14.2039C30.0886 15.7139 28.4913 16.623 26.7948 16.5345L21.5409 14.222L30.6636 13.8646Z" fill="#936037"/>
<path id="Vector_2" d="M13.3094 19.2693C14.1641 19.2587 15.0778 19.6722 15.6464 20.3597C15.7354 20.462 15.8643 20.5207 15.9999 20.5207C16.1355 20.5207 16.2644 20.462 16.3534 20.3597C16.8807 19.7149 17.7997 19.2544 18.6886 19.2693C18.8155 19.2686 18.933 19.2206 19.0212 19.1326C19.1095 19.0447 19.1591 18.9252 19.1591 18.8006V13.6072C19.1591 13.3484 18.9493 13.1385 18.6904 13.1385H13.3093C13.0505 13.1385 12.8406 13.3484 12.8406 13.6072V15.2028C12.8406 15.4617 13.0505 15.6716 13.3093 15.6716C13.5682 15.6716 13.7781 15.4617 13.7781 15.2028V14.076H18.2216V18.3581C17.3923 18.454 16.6147 18.8099 15.9999 19.3752C15.385 18.8097 14.6075 18.4539 13.7781 18.3581V17.3903C13.7781 17.1314 13.5683 16.9216 13.3094 16.9216C13.0505 16.9216 12.8406 17.1314 12.8406 17.3903V18.8006C12.8406 18.9252 12.8903 19.0447 12.9786 19.1326C13.0665 19.2202 13.1854 19.2693 13.3094 19.2693Z" fill="#936037"/>
</g>
</g>
<defs>
<clipPath id="clip0_408_2963">
<rect width="32" height="32" fill="white"/>
</clipPath>
</defs>
</svg>
