<svg width="32" height="32" viewBox="0 0 32 32" fill="none" xmlns="http://www.w3.org/2000/svg">
<g id="014-history">
<g id="Outline">
<path id="Vector" d="M27.4 22.8C27.4557 22.7257 27.4896 22.6374 27.4979 22.5449C27.5063 22.4524 27.4887 22.3595 27.4472 22.2764C27.4057 22.1933 27.3418 22.1235 27.2628 22.0747C27.1838 22.0259 27.0928 22 27 22H21.45C21.334 21.4357 21.0269 20.9286 20.5806 20.5643C20.1343 20.2 19.5761 20.0007 19 20H17.5V18.7943C19.2551 18.4402 20.882 17.6184 22.2087 16.4158L23.1462 17.3533L23.8533 16.6462L22.9152 15.7082C23.1795 15.4167 23.4265 15.1099 23.6548 14.7894L22.8402 14.2096C22.6441 14.4846 22.4327 14.7485 22.2072 14.9999L21.4961 14.2888C22.8422 12.7635 23.5563 10.7825 23.4929 8.74913C23.4295 6.71578 22.5934 4.78306 21.1549 3.34458C19.7164 1.90611 17.7836 1.07006 15.7503 1.00671C13.7169 0.943368 11.7359 1.65748 10.2107 3.00363L9.49959 2.2925C9.75101 2.06693 10.0149 1.85562 10.2899 1.65956L9.71003 0.844813C9.38969 1.07321 9.08302 1.3202 8.79159 1.5845L7.85353 0.646438L7.1464 1.35356L8.0839 2.29106C4.53372 6.21156 4.64847 12.2906 8.42884 16.0711C10.0584 17.7037 12.2044 18.7196 14.5 18.9452V20H13C12.3372 20.0007 11.7017 20.2644 11.233 20.7331C10.7643 21.2017 10.5007 21.8372 10.5 22.5C10.5 22.6326 10.5526 22.7598 10.6464 22.8536C10.7402 22.9473 10.8674 23 11 23H12.8074C12.6078 23.4749 12.5051 23.9849 12.5051 24.5C12.5051 25.0151 12.6078 25.5251 12.8074 26H6.93003C6.65139 25.5493 6.50379 25.0299 6.50379 24.5C6.50379 23.9701 6.65139 23.4507 6.93003 23H9.49997V22H3.66665C3.58903 22 3.51247 22.0181 3.44305 22.0528C3.37362 22.0875 3.31323 22.1379 3.26665 22.2C2.77202 22.8648 2.50488 23.6714 2.50488 24.5C2.50488 25.3286 2.77202 26.1352 3.26665 26.8C3.31323 26.8621 3.37362 26.9125 3.44305 26.9472C3.51247 26.9819 3.58903 27 3.66665 27H4.8074C4.54665 27.6186 4.45186 28.2945 4.53241 28.961C4.61295 29.6274 4.86604 30.2613 5.26665 30.8C5.31323 30.8621 5.37362 30.9125 5.44305 30.9472C5.51247 30.9819 5.58903 31 5.66665 31H29C29.0928 31 29.1838 30.9741 29.2628 30.9253C29.3418 30.8765 29.4057 30.8067 29.4472 30.7236C29.4887 30.6406 29.5063 30.5476 29.4979 30.4551C29.4896 30.3626 29.4557 30.2743 29.4 30.2C29.0344 29.7086 28.837 29.1125 28.837 28.5C28.837 27.8875 29.0344 27.2914 29.4 26.8C29.4557 26.7257 29.4896 26.6374 29.4979 26.5449C29.5063 26.4524 29.4887 26.3595 29.4472 26.2764C29.4057 26.1933 29.3418 26.1235 29.2628 26.0747C29.1838 26.0259 29.0928 26 29 26H27.2633C26.9629 25.5143 26.8152 24.9496 26.8396 24.379C26.864 23.8084 27.0592 23.2583 27.4 22.8ZM26.1405 23C26.0063 23.3197 25.9158 23.6561 25.8718 24H17.0481C17.1104 23.6453 17.24 23.3059 17.43 23H26.1405ZM18.3074 30H15.93C15.6514 29.5493 15.5038 29.0299 15.5038 28.5C15.5038 27.9701 15.6514 27.4507 15.93 27H18.3074C18.1078 27.4749 18.0051 27.9849 18.0051 28.5C18.0051 29.0151 18.1078 29.5251 18.3074 30ZM8.93003 27H14.8074C14.6078 27.4749 14.5051 27.9849 14.5051 28.5C14.5051 29.0151 14.6078 29.5251 14.8074 30H8.93003C8.65139 29.5493 8.50379 29.0299 8.50379 28.5C8.50379 27.9701 8.65139 27.4507 8.93003 27ZM22.5 9C22.4999 9.33462 22.4759 9.6688 22.4282 10H21.1513L20 9.23244V7.5C19.9999 7.40938 19.9753 7.32047 19.9287 7.24275L18.5 4.8615V2.67631C19.696 3.24481 20.7065 4.14053 21.4145 5.25971C22.1224 6.37888 22.4987 7.67572 22.5 9ZM17.5 2.29163V5C17.5 5.09062 17.5246 5.17953 17.5712 5.25725L19 7.6385V9.5C19 9.58231 19.0203 9.66334 19.0591 9.73591C19.098 9.80848 19.1541 9.87034 19.2226 9.916L20.7226 10.916C20.8047 10.9708 20.9012 11 21 11H22.2083C21.7035 12.6945 20.5761 14.1353 19.0527 15.0327C17.5292 15.9302 15.7226 16.2178 13.9957 15.8379C12.2689 15.458 10.7497 14.4387 9.74359 12.9848C8.73743 11.5308 8.31876 9.74996 8.57171 8H9.60959L10.0149 9.62125C10.0419 9.72943 10.1044 9.82547 10.1923 9.89409C10.2801 9.96272 10.3885 10 10.5 10H12V11.5C12 11.5987 12.0292 11.6952 12.084 11.7774L13 13.1514V14.5C13 14.6326 13.0526 14.7598 13.1464 14.8536C13.2402 14.9473 13.3674 15 13.5 15H15.5C15.5749 15 15.649 14.9832 15.7165 14.9507C15.7841 14.9183 15.8435 14.871 15.8904 14.8125L17.8904 12.3125C17.9493 12.239 17.9862 12.1503 17.9969 12.0567C18.0075 11.9631 17.9916 11.8684 17.9508 11.7834C17.91 11.6985 17.846 11.6269 17.7662 11.5767C17.6865 11.5266 17.5942 11.5 17.5 11.5H16.5V9.5C16.5 9.36739 16.4473 9.24022 16.3535 9.14645C16.2598 9.05268 16.1326 9 16 9H13V8.15138L13.7675 7H15.5C15.5852 7 15.669 6.97821 15.7434 6.9367C15.8179 6.8952 15.8805 6.83535 15.9253 6.76285C15.9701 6.69035 15.9956 6.6076 15.9994 6.52246C16.0033 6.43731 15.9853 6.3526 15.9472 6.27638L14.9472 4.27638C14.9056 4.19333 14.8418 4.12349 14.7628 4.07467C14.6838 4.02586 14.5928 4 14.5 4H13V2.46188C14.4403 1.91102 16.0222 1.85117 17.5 2.29163ZM16 12.5H16.4597L15.2597 14H14V13C14 12.9013 13.9707 12.8048 13.916 12.7226L13 11.3486V10H15.5V12C15.5 12.1326 15.5526 12.2598 15.6464 12.3536C15.7402 12.4473 15.8674 12.5 16 12.5ZM12 2.93969V4.5C12 4.63261 12.0526 4.75979 12.1464 4.85355C12.2402 4.94732 12.3674 5 12.5 5H14.191L14.691 6H13.5C13.4177 6 13.3366 6.02032 13.2641 6.05916C13.1915 6.09799 13.1296 6.15414 13.084 6.22263L12.084 7.72263C12.0292 7.80476 12 7.90128 12 8V9H10.8903L10.485 7.37875C10.458 7.27057 10.3956 7.17453 10.3077 7.10591C10.2198 7.03728 10.1115 7 9.99997 7H8.79159C9.30608 5.28796 10.4533 3.83612 12 2.93969ZM8.7924 2.99956L9.50359 3.71069C8.15616 5.2358 7.441 7.21732 7.50384 9.25142C7.56669 11.2855 8.40283 13.2191 9.84184 14.6581C11.2809 16.0971 13.2144 16.9333 15.2485 16.9961C17.2826 17.059 19.2642 16.3438 20.7893 14.9964L21.5004 15.7076C17.971 18.8686 12.5265 18.7544 9.13603 15.3638C5.74559 11.9733 5.63122 6.52888 8.7924 2.99956ZM15.5 18.9953C15.8338 18.9953 16.1671 18.9786 16.5 18.9453V20H15.5V18.9953ZM13 21H19C19.3101 21.0004 19.6125 21.0967 19.8657 21.2757C20.1189 21.4547 20.3105 21.7077 20.4143 22H11.5857C11.6894 21.7077 11.881 21.4547 12.1342 21.2757C12.3874 21.0967 12.6898 21.0004 13 21ZM13.93 23H16.3074C16.1078 23.4749 16.0051 23.9849 16.0051 24.5C16.0051 25.0151 16.1078 25.5251 16.3074 26H13.93C13.6514 25.5493 13.5038 25.0299 13.5038 24.5C13.5038 23.9701 13.6514 23.4507 13.93 23ZM3.93003 23H5.8074C5.60785 23.4749 5.50506 23.9849 5.50506 24.5C5.50506 25.0151 5.60785 25.5251 5.8074 26H3.92978C3.65116 25.5493 3.50359 25.0299 3.50359 24.5C3.50359 23.9701 3.65116 23.4507 3.92978 23H3.93003ZM5.93003 27H7.80765C7.6081 27.4749 7.50531 27.9849 7.50531 28.5C7.50531 29.0151 7.6081 29.5251 7.80765 30H5.92978C5.65116 29.5493 5.50359 29.0299 5.50359 28.5C5.50359 27.9701 5.65116 27.4507 5.92978 27H5.93003ZM19.43 30C19.24 29.6941 19.1104 29.3547 19.0481 29H27.8716C27.9157 29.3439 28.0061 29.6803 28.1403 30H19.43ZM27.8716 28H19.0481C19.1104 27.6453 19.24 27.3059 19.43 27H28.1405C28.0062 27.3197 27.9157 27.6561 27.8716 28ZM17.43 26C17.24 25.6941 17.1104 25.3547 17.0481 25H25.8716C25.9157 25.3439 26.0061 25.6803 26.1403 26H17.43Z" fill="#936037"/>
</g>
</g>
</svg>
