<svg width="32" height="32" viewBox="0 0 32 32" fill="none" xmlns="http://www.w3.org/2000/svg">
<g id="005-sunbathing" clip-path="url(#clip0_408_2796)">
<g id="081---Sunbathing">
<path id="Shape" d="M19.2 8C19.2 10.3564 21.1102 12.2667 23.4666 12.2667C25.823 12.2667 27.7333 10.3564 27.7333 8C27.7333 5.64359 25.823 3.73334 23.4666 3.73334C21.1113 3.73598 19.2026 5.64469 19.2 8ZM23.4666 4.8C25.2339 4.8 26.6666 6.23269 26.6666 8C26.6666 9.76732 25.2339 11.2 23.4666 11.2C21.6993 11.2 20.2666 9.76732 20.2666 8C20.2684 6.23342 21.7 4.80177 23.4666 4.8Z" fill="#936037"/>
<path id="Shape_2" d="M22.9332 14.4V15.4666C22.9332 15.7612 23.172 16 23.4666 16C23.7611 16 23.9999 15.7612 23.9999 15.4666V14.4C23.9999 14.1054 23.7611 13.8666 23.4666 13.8666C23.172 13.8666 22.9332 14.1054 22.9332 14.4Z" fill="#936037"/>
<path id="Shape_3" d="M23.9999 1.6V0.533333C23.9999 0.238781 23.7611 0 23.4666 0C23.172 0 22.9332 0.238781 22.9332 0.533333V1.6C22.9332 1.89455 23.172 2.13333 23.4666 2.13333C23.7611 2.13333 23.9999 1.89455 23.9999 1.6Z" fill="#936037"/>
<path id="Shape_4" d="M30.9333 8.53334C31.2278 8.53334 31.4666 8.29456 31.4666 8.00001C31.4666 7.70546 31.2278 7.46667 30.9333 7.46667H29.8666C29.572 7.46667 29.3333 7.70546 29.3333 8.00001C29.3333 8.29456 29.572 8.53334 29.8666 8.53334H30.9333Z" fill="#936037"/>
<path id="Shape_5" d="M16 8.53334H17.0667C17.3612 8.53334 17.6 8.29456 17.6 8.00001C17.6 7.70546 17.3612 7.46667 17.0667 7.46667H16C15.7055 7.46667 15.4667 7.70546 15.4667 8.00001C15.4667 8.29456 15.7055 8.53334 16 8.53334Z" fill="#936037"/>
<path id="Shape_6" d="M29.1231 2.34347C28.9149 2.13527 28.5773 2.13527 28.369 2.34347L27.6149 3.0976C27.4762 3.23151 27.4206 3.4298 27.4694 3.61627C27.5182 3.80274 27.6639 3.94837 27.8503 3.99717C28.0368 4.04598 28.2351 3.99038 28.369 3.85174L29.1231 3.0976C29.3313 2.88934 29.3313 2.55174 29.1231 2.34347Z" fill="#936037"/>
<path id="Shape_7" d="M17.8101 13.6565C18.0184 13.8647 18.3559 13.8647 18.5642 13.6565L19.3183 12.9024C19.5205 12.6931 19.5176 12.3605 19.3119 12.1547C19.1061 11.949 18.7735 11.9461 18.5642 12.1482L17.8101 12.9024C17.6019 13.1106 17.6019 13.4482 17.8101 13.6565Z" fill="#936037"/>
<path id="Shape_8" d="M28.3691 12.1482C28.1598 11.9461 27.8271 11.949 27.6214 12.1547C27.4157 12.3605 27.4128 12.6931 27.6149 12.9024C28.4352 13.7226 28.4656 13.8133 28.7467 13.8133C28.9623 13.8133 29.1568 13.6833 29.2393 13.4841C29.3218 13.2848 29.2762 13.0554 29.1237 12.9029L28.3691 12.1482Z" fill="#936037"/>
<path id="Shape_9" d="M18.5642 2.34344C18.355 2.14132 18.0223 2.14421 17.8166 2.34994C17.6109 2.55566 17.608 2.8883 17.8101 3.09757C18.6298 3.91784 18.6602 4.00797 18.9413 4.00797C19.157 4.00793 19.3514 3.87798 19.4339 3.67872C19.5165 3.47946 19.4709 3.2501 19.3184 3.09757L18.5642 2.34344Z" fill="#936037"/>
<path id="Shape_10" d="M30.4 23.4667C26.3295 23.4667 26.7199 23.4864 26.7461 23.4277C27.0641 22.7219 26.9106 21.8929 26.361 21.3477L22.6863 17.6731C21.6436 16.6336 19.9563 16.6336 18.9136 17.6731L16.2682 20.3184C15.8518 20.7341 15.1774 20.7341 14.761 20.3184L9.37435 14.9317C10.7832 14.0918 11.4776 12.4296 11.0848 10.837C10.6921 9.24444 9.30457 8.09568 7.66668 8.00707C6.02879 7.91846 4.52541 8.91082 3.96315 10.4517C3.12466 9.96752 2.06732 10.0942 1.36688 10.7627C0.534778 11.5956 0.534778 12.9452 1.36688 13.7781L1.56262 13.9739C0.832123 14.1689 0.26198 14.7401 0.0683823 15.471C-0.125215 16.2018 0.0873788 16.9804 0.625549 17.5115L6.58448 23.4667H4.26662C3.08841 23.4667 2.13328 24.4218 2.13328 25.6C2.13328 26.7782 3.08841 27.7333 4.26662 27.7333H5.33328V30.4C5.33328 31.2837 6.04963 32 6.93328 32H7.46662C8.35027 32 9.06662 31.2837 9.06662 30.4V27.7333H25.0805C24.2497 28.8291 24.3912 30.3776 25.4069 31.3046C26.4225 32.2317 27.9774 32.2317 28.993 31.3046C30.0087 30.3776 30.1502 28.8291 29.3194 27.7333H30.4C31.2836 27.7333 32 27.017 32 26.1333V25.0667C32 24.183 31.2836 23.4667 30.4 23.4667ZM19.6677 18.4251C20.2936 17.8011 21.3063 17.8011 21.9322 18.4251L25.6069 22.1003C25.8387 22.3313 25.9064 22.6803 25.7778 22.9813C25.6491 23.2823 25.3501 23.4745 25.0229 23.4667C24.8002 23.4543 24.5905 23.3578 24.4362 23.1968L21.1781 19.9328C21.0779 19.8323 20.9418 19.7759 20.7999 19.776C20.505 19.776 20.4666 19.8885 19.4885 20.8677L18.3567 19.736L19.6677 18.4251ZM20.7999 21.064L23.2 23.4667H18.4L20.7999 21.064ZM17.0224 21.0704L17.6026 20.4901L18.7349 21.6224L16.8933 23.4667H12.6368L11.9434 22.7733L14.1082 21.152C14.9487 21.8987 16.225 21.8629 17.0224 21.0704ZM7.46662 9.06666C8.77904 9.06418 9.89734 10.0188 10.1008 11.3154C10.3043 12.612 9.53218 13.8633 8.28208 14.2629C8.12564 14.2164 7.96477 14.1864 7.80208 14.1733L4.85755 11.2347C5.0906 9.97736 6.1879 9.06557 7.46662 9.06666ZM2.11782 11.5163C2.53986 11.1078 3.2099 11.1078 3.63195 11.5163L3.86502 11.7445C3.90715 11.7979 3.79675 11.6821 7.18608 15.0651C7.29031 15.1711 7.4356 15.2264 7.58395 15.2165C8.26395 15.2411 8.47942 15.5424 8.92368 15.9867L8.77008 16.0896C8.60804 16.194 8.51493 16.3777 8.52654 16.5701C8.53815 16.7625 8.65267 16.9337 8.82609 17.0178C8.99951 17.1019 9.20484 17.086 9.36315 16.976L9.69275 16.7557L11.8325 18.8949C11.6888 19.1067 11.7157 19.3906 11.8967 19.5716C12.0776 19.7525 12.3616 19.7794 12.5733 19.6357L13.337 20.4L11.1829 22.0133C3.00208 13.8549 3.65595 14.4805 3.39035 14.2896C3.33702 14.2544 3.66395 14.5632 2.12102 13.0203C1.70656 12.6051 1.70513 11.9332 2.11782 11.5163ZM3.19995 25.6C3.19995 25.0109 3.67751 24.5333 4.26662 24.5333H7.65115L9.78448 26.6667H4.26662C3.67751 26.6667 3.19995 26.1891 3.19995 25.6ZM7.99995 30.4C7.99995 30.6946 7.76117 30.9333 7.46662 30.9333H6.93328C6.63873 30.9333 6.39995 30.6946 6.39995 30.4V27.7333H7.99995V30.4ZM28.8 29.3333C28.8 30.217 28.0836 30.9333 27.2 30.9333C26.3163 30.9333 25.6 30.217 25.6 29.3333C25.6 28.4497 26.3163 27.7333 27.2 27.7333C28.0836 27.7333 28.8 28.4497 28.8 29.3333ZM30.9333 26.1333C30.9333 26.4279 30.6945 26.6667 30.4 26.6667H11.2927L1.37968 16.7536C0.963985 16.3372 0.963985 15.6628 1.37968 15.2464C1.80331 14.8485 2.46325 14.8485 2.88688 15.2464L12.0176 24.3765C12.1179 24.4762 12.2532 24.5325 12.3946 24.5333H30.4C30.6945 24.5333 30.9333 24.7721 30.9333 25.0667V26.1333Z" fill="#936037"/>
<path id="Oval" d="M27.2 29.8667C27.4945 29.8667 27.7333 29.6279 27.7333 29.3333C27.7333 29.0388 27.4945 28.8 27.2 28.8C26.9054 28.8 26.6666 29.0388 26.6666 29.3333C26.6666 29.6279 26.9054 29.8667 27.2 29.8667Z" fill="#936037"/>
</g>
</g>
<defs>
<clipPath id="clip0_408_2796">
<rect width="32" height="32" fill="white"/>
</clipPath>
</defs>
</svg>
