<svg width="32" height="32" viewBox="0 0 32 32" fill="none" xmlns="http://www.w3.org/2000/svg">
<g id="001-thinking" clip-path="url(#clip0_408_2769)">
<g id="Page-1">
<g id="001---Thinking">
<path id="Shape" d="M0.784537 19.9419C0.960032 20.0634 1.14518 20.1705 1.33814 20.2619C1.56907 20.3797 1.9552 20.5771 1.9824 20.7157C2.01635 20.8978 1.9946 21.0859 1.92 21.2555C1.84054 21.4261 1.7568 21.5728 1.68534 21.6997C1.4896 22.0443 1.1632 22.6219 1.656 23.0251C1.7712 23.1317 1.97014 23.2859 2.152 23.4251C2.01836 23.6584 1.95779 23.9265 1.97814 24.1947C2.00615 24.4045 2.11939 24.5936 2.2912 24.7173C2.4112 24.8027 2.53974 24.8773 2.66454 24.9493C2.97814 25.128 3.1008 25.2112 3.14454 25.376C3.17322 25.593 3.15318 25.8136 3.08587 26.0219C3.0544 26.1605 3.024 26.2987 3.00427 26.4405C2.95141 26.927 3.01314 27.419 3.18454 27.8773C3.4239 28.7266 4.19191 29.3184 5.07414 29.3333C5.22056 29.3328 5.36655 29.3174 5.50987 29.2875C7.03351 28.9264 8.53488 28.4771 10.0064 27.9419C11.2075 28.6469 11.9669 30.7909 12.1648 31.5957C12.2241 31.8334 12.4377 32.0002 12.6827 32L26.0693 31.9627C26.239 31.9623 26.3984 31.8813 26.4986 31.7444C26.5988 31.6076 26.628 31.4312 26.5771 31.2693C26.4452 30.908 26.2633 30.5669 26.0368 30.256C25.9087 30.072 25.7932 29.8796 25.6912 29.68C25.45 29.1909 25.2487 28.6831 25.0891 28.1616C24.7849 27.1308 24.5737 26.0749 24.4581 25.0064C24.2709 23.4108 24.5128 21.7941 25.1589 20.3232C25.5532 19.5074 26.0392 18.7393 26.6075 18.0336C26.9275 17.6016 27.2597 17.1541 27.5579 16.6843C28.0705 15.888 28.4421 15.0094 28.6565 14.0869C28.7179 13.8022 28.5395 13.5209 28.2557 13.455C27.972 13.3892 27.6879 13.5632 27.6176 13.8459C27.4301 14.6509 27.1054 15.4177 26.6576 16.1125C26.3808 16.5504 26.0608 16.9813 25.7509 17.3984C25.1338 18.1684 24.6072 19.0068 24.1813 19.8971C23.4591 21.5421 23.1892 23.3501 23.3995 25.1344C23.5225 26.2676 23.7476 27.3873 24.072 28.48C24.2472 29.0537 24.4686 29.6124 24.7339 30.1504C24.8555 30.3908 24.9936 30.6224 25.1472 30.8437L25.1829 30.8971L13.0859 30.9333C12.7314 29.6682 12.0886 28.5025 11.208 27.5275L11.688 27.3605C12.0464 27.2352 12.3168 27.1408 12.4565 27.0939C14.7403 26.3659 15.8827 25.3259 15.8512 24.0005C15.8497 23.859 15.791 23.724 15.6884 23.6265C15.5858 23.5289 15.4481 23.477 15.3067 23.4827C15.0123 23.4896 14.7793 23.7339 14.7861 24.0283C14.7989 24.5739 14.3493 25.3728 12.1323 26.0789C11.9872 26.1253 11.7056 26.2229 11.3371 26.3525C10.9408 26.4907 10.4384 26.6667 9.88374 26.8549H9.88001C8.38012 27.4049 6.84976 27.8679 5.29654 28.2416C4.79977 28.335 4.31688 28.023 4.19787 27.5317C4.08317 27.2307 4.03813 26.9076 4.06614 26.5867C4.0816 26.48 4.10667 26.368 4.1312 26.2592C4.24471 25.8869 4.26305 25.4921 4.18454 25.1109C4.02965 24.6225 3.67045 24.2254 3.2 24.0224L3.08534 23.9568C3.14283 23.84 3.21179 23.7292 3.2912 23.6261C3.38056 23.5126 3.42006 23.3677 3.40066 23.2246C3.38126 23.0814 3.30462 22.9523 3.18827 22.8667C3.0608 22.7728 2.7616 22.5467 2.5376 22.3685C2.5632 22.3221 2.59094 22.2709 2.61814 22.2251C2.70187 22.0779 2.79787 21.9051 2.89067 21.7093C3.05969 21.3357 3.10924 20.9191 3.03254 20.5163C2.90507 19.8656 2.2816 19.5467 1.82667 19.3141C1.6734 19.2412 1.52641 19.1558 1.3872 19.0587C1.27291 18.9821 1.1658 18.8954 1.0672 18.7995C1.0672 18.7184 1.15414 18.5227 1.56 18.0283C2.51436 16.7986 3.33248 15.4691 4 14.0629C4.12531 13.8425 4.19591 13.5952 4.20587 13.3419C4.15001 12.8052 3.8647 12.319 3.42347 12.0085C3.20747 11.8101 3.0032 11.6235 2.98027 11.4661C2.98516 11.3354 3.01446 11.2068 3.06667 11.0869C3.1536 10.8587 3.2544 10.6347 3.35467 10.4101C3.57957 9.94688 3.75821 9.46258 3.888 8.96426C4.01022 8.36654 4.17055 7.77724 4.368 7.19999C4.78838 6.03957 5.43932 4.97626 6.28161 4.07413C7.30134 2.99413 8.90667 2.23039 11.0613 1.80266C12.7095 1.44081 14.3818 1.19982 16.0651 1.08159C16.6314 1.05241 17.1992 1.06453 17.7637 1.11786C17.9539 1.13558 18.1391 1.0505 18.2495 0.89468C18.3599 0.738856 18.3788 0.535957 18.2991 0.362413C18.2194 0.188869 18.0531 0.0710454 17.8629 0.053325C17.2467 -0.00314358 16.6271 -0.0154417 16.0091 0.016525C14.2738 0.136928 12.5497 0.384346 10.8507 0.756792C8.44587 1.23679 6.69814 2.07999 5.5056 3.34079C4.56391 4.34747 3.83601 5.53457 3.36587 6.83039C3.14974 7.46099 2.97426 8.1048 2.84054 8.75786C2.72655 9.17667 2.57334 9.5838 2.38294 9.97386C2.27627 10.2165 2.1664 10.4592 2.0704 10.7115C1.94903 10.9934 1.89919 11.301 1.92534 11.6069C2.03566 12.083 2.31237 12.504 2.7056 12.7941C2.96694 13.0336 3.1392 13.2021 3.14134 13.3493C3.12193 13.4303 3.09141 13.5082 3.05067 13.5808C2.41213 14.9256 1.6296 16.1973 0.716804 17.3733C0.330671 17.8443 -0.0746628 18.3931 0.0101372 18.9424C0.123708 19.366 0.402754 19.7261 0.784537 19.9419Z" fill="#936037"/>
<path id="Shape_2" d="M6.36691 7.94076C6.68809 7.05035 7.18587 6.23401 7.83038 5.54076C8.54131 4.78823 9.77065 4.2341 11.4848 3.8933C11.7737 3.836 11.9615 3.55532 11.9042 3.26636C11.847 2.97741 11.5663 2.7896 11.2773 2.8469C9.34185 3.23196 7.92158 3.89116 7.05545 4.80636C6.31121 5.60514 5.73646 6.54637 5.36585 7.57329C5.18631 8.1061 5.04007 8.64954 4.92798 9.20049L5.96958 9.43143C6.07181 8.92697 6.20449 8.42917 6.36691 7.94076Z" fill="#936037"/>
<path id="Shape_3" d="M17.5248 2.98667L17.2048 4.58241C16.8963 4.68371 16.596 4.80852 16.3066 4.95574L14.9525 4.04907C14.5294 3.77199 13.9699 3.83012 13.6128 4.18827L12.7274 5.07307C12.3622 5.43161 12.3031 5.99898 12.5866 6.42507L13.489 7.77281C13.3418 8.0622 13.217 8.36246 13.1157 8.67094L11.5221 8.99094C11.0241 9.09153 10.6662 9.52933 10.6666 10.0373V11.296C10.6663 11.8032 11.0231 12.2404 11.52 12.3419L13.1157 12.6619C13.217 12.9704 13.3418 13.2706 13.489 13.56L12.5824 14.9141C12.3053 15.3372 12.3634 15.8968 12.7216 16.2539L13.6069 17.1392C13.9661 17.5027 14.5322 17.5615 14.9584 17.2795L16.3061 16.3771C16.5955 16.5243 16.8957 16.6491 17.2042 16.7504L17.5242 18.344C17.6246 18.8422 18.0625 19.2004 18.5706 19.2H19.8293C20.3364 19.2004 20.7737 18.8436 20.8752 18.3467L21.1952 16.7509C21.5036 16.6496 21.8039 16.5248 22.0933 16.3776L23.4474 17.2843C23.8705 17.5614 24.4301 17.5032 24.7872 17.1451L25.672 16.2603C26.0372 15.9017 26.0962 15.3344 25.8128 14.9083L24.9104 13.5605C25.0576 13.2711 25.1824 12.9709 25.2837 12.6624L26.8773 12.3424C27.1938 12.2784 27.4641 12.0739 27.6117 11.7867L28.4154 12.3253C28.5705 12.423 28.75 12.475 28.9333 12.4752C29.189 12.4753 29.4341 12.3733 29.6144 12.192L30.3237 11.4827C30.6463 11.1585 30.6981 10.6528 30.448 10.2699L29.76 9.24054C29.8598 9.03996 29.946 8.83292 30.0181 8.62081L31.225 8.38027C31.6766 8.29156 32.0017 7.89487 32 7.43467V6.43201C32.0016 5.97353 31.6788 5.57789 31.2293 5.48747L30.017 5.24587C29.9455 5.0337 29.8596 4.82665 29.76 4.62614L30.4586 3.58454C30.7007 3.20305 30.6453 2.70459 30.3253 2.38561L29.616 1.67627C29.2918 1.3535 28.786 1.30167 28.4032 1.55201L27.3738 2.24001C27.1732 2.14021 26.9662 2.05397 26.7541 1.98187L26.513 0.774939C26.4244 0.323567 26.028 -0.00146641 25.568 6.05445e-06H24.5653C24.1068 -0.00161185 23.7112 0.321195 23.6208 0.770673L23.3792 1.98294C23.1669 2.05499 22.9599 2.14142 22.7594 2.24161L21.7178 1.54294C21.3362 1.30126 20.8381 1.35666 20.5189 1.67627L20.0389 2.15627C19.9699 2.14189 19.8997 2.13421 19.8293 2.13334H18.5706C18.0635 2.13298 17.6262 2.48977 17.5248 2.98667ZM25.6784 5.07734L25.4293 4.82827C26.3537 4.95202 27.089 5.66484 27.2414 6.58498C27.3937 7.50513 26.9274 8.4169 26.0922 8.83201L25.2826 8.67201C25.1813 8.36352 25.0565 8.06327 24.9093 7.77387L25.816 6.41974C26.094 5.99677 26.0366 5.43661 25.6784 5.07894V5.07734ZM21.2144 2.48747L22.4336 3.30667C22.6045 3.42132 22.8262 3.42734 23.0032 3.32214C23.3085 3.14246 23.6368 3.0052 23.9792 2.91414C24.1748 2.86131 24.3236 2.70219 24.3632 2.50347L24.6496 1.06667H25.4837L25.7701 2.50667C25.8097 2.70539 25.9585 2.86451 26.1541 2.91734C26.4964 3.0084 26.8248 3.14566 27.1301 3.32534C27.3076 3.42959 27.5293 3.42232 27.6997 3.30667L28.9189 2.48854L29.5109 3.08054L28.6933 4.30027C28.5786 4.47124 28.5726 4.69293 28.6778 4.86987C28.8575 5.17517 28.9948 5.50353 29.0858 5.84587C29.1387 6.04149 29.2978 6.19028 29.4965 6.22987L30.9365 6.51627V7.35041L29.4992 7.63681C29.3004 7.6764 29.1413 7.82519 29.0885 8.02081C28.9974 8.36315 28.8602 8.69151 28.6805 8.99681C28.5753 9.17375 28.5813 9.39544 28.696 9.56641L29.5141 10.7856L28.9221 11.3776L27.7333 10.5824V10.0373C27.7334 9.72508 27.597 9.42837 27.36 9.22507C28.2989 8.32054 28.5935 6.93595 28.1041 5.72751C27.6147 4.51907 26.4397 3.72963 25.136 3.73334C24.8135 3.73537 24.4934 3.78792 24.1872 3.88907C23.9266 3.85111 23.6611 3.90951 23.4405 4.05334L22.0938 4.95574C21.8044 4.80852 21.5042 4.68371 21.1957 4.58241L20.8757 2.98881C20.8663 2.94607 20.854 2.90402 20.8389 2.86294L21.2144 2.48747ZM18.1866 5.10774L18.5706 3.20001H19.8293L20.2128 5.10934C20.2526 5.30751 20.4011 5.46611 20.5962 5.51894C21.0369 5.63773 21.4602 5.81343 21.8554 6.04161C22.0316 6.14377 22.2505 6.13673 22.4197 6.02347L24.0336 4.94401L24.9274 5.83307L23.8448 7.44854C23.7315 7.61775 23.7245 7.83668 23.8266 8.01281C24.0548 8.40806 24.2305 8.83135 24.3493 9.27201C24.4021 9.46712 24.5607 9.6156 24.7589 9.65547L26.6666 10.0368V11.296L24.7573 11.6795C24.5591 11.7193 24.4005 11.8678 24.3477 12.0629C24.2289 12.5036 24.0532 12.9269 23.825 13.3221C23.7229 13.4983 23.7299 13.7172 23.8432 13.8864L24.9226 15.5003L24.0336 16.3941L22.4181 15.3115C22.2489 15.1982 22.03 15.1912 21.8538 15.2933C21.4586 15.5215 21.0353 15.6972 20.5946 15.816C20.3995 15.8688 20.251 16.0274 20.2112 16.2256L19.8293 18.1333H18.5706L18.1872 16.224C18.1473 16.0258 17.9988 15.8672 17.8037 15.8144C17.363 15.6956 16.9397 15.5199 16.5445 15.2917C16.3684 15.1896 16.1494 15.1966 15.9802 15.3099L14.3664 16.3893L13.4725 15.5003L14.5552 13.8848C14.6684 13.7156 14.6755 13.4967 14.5733 13.3205C14.3451 12.9253 14.1694 12.502 14.0506 12.0613C13.9978 11.8662 13.8392 11.7177 13.641 11.6779L11.7333 11.296V10.0373L13.6426 9.65387C13.8408 9.614 13.9994 9.46552 14.0522 9.27041C14.171 8.82975 14.3467 8.40646 14.5749 8.01121C14.6771 7.83508 14.67 7.61615 14.5568 7.44694L13.4773 5.83307L14.3664 4.93921L15.9818 6.02187C16.151 6.13513 16.37 6.14217 16.5461 6.04001C16.9413 5.81183 17.3646 5.63613 17.8053 5.51734C17.9996 5.46382 18.1471 5.30535 18.1866 5.10774Z" fill="#936037"/>
<path id="Shape_4" d="M19.2 14.4C21.2619 14.4 22.9333 12.7285 22.9333 10.6667C22.9333 8.60482 21.2619 6.93335 19.2 6.93335C17.1381 6.93335 15.4667 8.60482 15.4667 10.6667C15.469 12.7276 17.1391 14.3977 19.2 14.4ZM19.2 8.00002C20.6728 8.00002 21.8667 9.19392 21.8667 10.6667C21.8667 12.1394 20.6728 13.3334 19.2 13.3334C17.7272 13.3334 16.5333 12.1394 16.5333 10.6667C16.5351 9.19465 17.728 8.00178 19.2 8.00002Z" fill="#936037"/>
<path id="Oval" d="M19.2 11.2C19.4945 11.2 19.7333 10.9612 19.7333 10.6666C19.7333 10.3721 19.4945 10.1333 19.2 10.1333C18.9054 10.1333 18.6666 10.3721 18.6666 10.6666C18.6666 10.9612 18.9054 11.2 19.2 11.2Z" fill="#936037"/>
<path id="Oval_2" d="M4.80006 11.7334C5.09461 11.7334 5.33339 11.4946 5.33339 11.2C5.33339 10.9055 5.09461 10.6667 4.80006 10.6667C4.50551 10.6667 4.26672 10.9055 4.26672 11.2C4.26672 11.4946 4.50551 11.7334 4.80006 11.7334Z" fill="#936037"/>
</g>
</g>
</g>
<defs>
<clipPath id="clip0_408_2769">
<rect width="32" height="32" fill="white"/>
</clipPath>
</defs>
</svg>
