<svg width="32" height="32" viewBox="0 0 32 32" fill="none" xmlns="http://www.w3.org/2000/svg">
<g id="008-auction" clip-path="url(#clip0_408_2905)">
<g id="Group">
<g id="Group_2">
<path id="Vector" d="M7.36104 10.8966C7.11729 10.6528 6.72104 10.6528 6.47735 10.8966C6.23297 11.141 6.23297 11.5366 6.47735 11.7803C6.7211 12.0247 7.11735 12.0247 7.36104 11.7803C7.60535 11.5366 7.60535 11.141 7.36104 10.8966Z" fill="#936037"/>
</g>
</g>
<g id="Group_3">
<g id="Group_4">
<path id="Vector_2" d="M15.825 27.9824C16.1005 27.6092 16.2495 27.1595 16.2495 26.6867C16.2495 25.4806 15.2682 24.4992 14.062 24.4992H3.43738C2.85282 24.4992 2.3035 24.7267 1.89057 25.1398C1.47744 25.5528 1.24994 26.1021 1.24994 26.6867C1.24994 27.171 1.40844 27.6189 1.67588 27.9817C0.680689 28.5049 0 29.5487 0 30.749V31.374C0 31.7192 0.279876 31.999 0.625001 31.999H16.8744C17.2195 31.999 17.4994 31.7192 17.4994 31.374V30.749C17.4994 29.5492 16.8194 28.5059 15.825 27.9824ZM2.77438 26.0236C2.95132 25.8466 3.18682 25.7491 3.43738 25.7491H14.062C14.579 25.7491 14.9995 26.1697 14.9995 26.6866C14.9995 26.9372 14.902 27.1726 14.725 27.3496C14.548 27.5266 14.3125 27.6241 14.062 27.6241H3.43738C2.92044 27.6241 2.49994 27.2035 2.49994 26.6866C2.49994 26.4361 2.59738 26.2006 2.77438 26.0236ZM1.24994 30.749C1.24994 29.7152 2.09107 28.8741 3.12488 28.8741H3.43738H14.062H14.3745C15.4083 28.8741 16.2495 29.7152 16.2495 30.749H1.24994Z" fill="#936037"/>
</g>
</g>
<g id="Group_5">
<g id="Group_6">
<path id="Vector_3" d="M31.4184 26.2578C31.2062 25.9289 30.9529 25.638 30.6656 25.3932L27.7453 22.8462C27.7225 22.8119 27.6961 22.7794 27.666 22.7492C27.6152 22.6985 27.5577 22.659 27.4966 22.6294L25.7305 21.089L17.5561 13.9583C17.8908 13.6085 18.075 13.1511 18.075 12.6646C18.075 12.1635 17.8799 11.6926 17.5254 11.3381C17.3708 11.1836 17.195 11.0622 17.0072 10.9733L17.7634 10.217C17.9748 10.2732 18.192 10.302 18.4094 10.302C19.0494 10.3019 19.6896 10.0583 20.1768 9.57102C20.6492 9.0987 20.9093 8.47089 20.9093 7.8032C20.9093 7.13551 20.6492 6.5077 20.1769 6.03539L14.8739 0.7325C14.4016 0.260187 13.7737 6.10352e-05 13.1058 6.10352e-05C12.4382 6.10352e-05 11.8106 0.260187 11.3383 0.7325C10.6856 1.38525 10.4707 2.31207 10.6923 3.14594L3.14697 10.6912C2.93847 10.6358 2.72154 10.6065 2.49991 10.6065C1.83191 10.6065 1.20434 10.8665 0.732407 11.3383C-0.242345 12.3131 -0.242345 13.8992 0.732407 14.874L6.03535 20.177C6.52279 20.6644 7.16298 20.908 7.80317 20.908C8.44342 20.908 9.08361 20.6644 9.57105 20.177C10.2238 19.5242 10.4387 18.5974 10.217 17.7635L10.9717 17.0088C11.0624 17.1982 11.1855 17.3729 11.3384 17.5257C11.6925 17.8798 12.1633 18.0749 12.6643 18.0749C13.1502 18.0749 13.6075 17.891 13.9578 17.5567L22.6644 27.5601C22.6884 27.5976 22.7164 27.6333 22.7492 27.6661C22.7604 27.6772 22.7723 27.6874 22.7841 27.6976L25.3785 30.6784C25.443 30.7546 25.512 30.8294 25.5835 30.901C26.2961 31.6133 27.2373 31.9999 28.2254 31.9999C28.3996 31.9999 28.5754 31.9879 28.7515 31.9635C29.9283 31.8006 30.9453 31.0966 31.5417 30.0317C32.195 28.8647 32.1464 27.383 31.4184 26.2578ZM12.2222 1.61638C12.4584 1.38019 12.7723 1.25006 13.1059 1.25006C13.4399 1.25006 13.7539 1.38019 13.9901 1.61638L19.2931 6.91932C19.5293 7.15551 19.6593 7.46945 19.6593 7.80326C19.6593 8.13708 19.5293 8.45101 19.293 8.6872C18.8058 9.17452 18.0129 9.17452 17.5258 8.6872L12.2226 3.38401C12.2224 3.38388 12.2224 3.38382 12.2222 3.38369C11.7349 2.89644 11.7349 2.10363 12.2222 1.61638ZM8.68717 19.2931C8.1998 19.7805 7.40661 19.7805 6.91923 19.2931L1.61628 13.9902C1.12884 13.5027 1.12884 12.7097 1.61628 12.2222C1.85203 11.9864 2.16591 11.8565 2.49991 11.8565C2.83385 11.8565 3.14754 11.9863 3.38322 12.222L8.68711 17.5258C9.17449 18.013 9.17449 18.8059 8.68717 19.2931ZM11.3186 14.8943L9.57099 16.642L4.26748 11.3385L11.3383 4.26751L16.6418 9.57102L14.891 11.3218C14.8853 11.3272 14.8797 11.3325 14.8737 11.3384L11.3401 14.8721C11.3328 14.8793 11.3257 14.8868 11.3186 14.8943ZM13.5502 16.1982C13.5489 16.1994 13.5477 16.2006 13.5465 16.2018L13.1064 16.642C12.9883 16.76 12.8314 16.825 12.6642 16.825C12.4972 16.825 12.3402 16.76 12.2222 16.6419C12.104 16.5238 12.0389 16.3667 12.0389 16.1995C12.0389 16.0358 12.1014 15.8819 12.2147 15.7658L15.7647 12.2157C16.0081 11.9791 16.4014 11.982 16.6419 12.2222C16.76 12.3403 16.8251 12.4975 16.8251 12.6646C16.8251 12.8317 16.7602 12.9884 16.6418 13.1065L16.2042 13.544C16.2012 13.547 16.1982 13.55 16.1953 13.553L13.5502 16.1982ZM14.8444 16.6716L16.6711 14.845L24.405 21.5909L21.5828 24.4131L14.8444 16.6716ZM22.4054 25.3582L25.3491 22.4145L26.2933 23.238L23.2279 26.3034L22.4054 25.3582ZM30.4512 29.4211C30.0478 30.1413 29.3658 30.6166 28.5801 30.7254C27.7963 30.8339 27.0261 30.5757 26.4672 30.0171C26.4191 29.9691 26.3731 29.919 26.3303 29.8682C26.3283 29.8659 26.3263 29.8635 26.3242 29.8612L24.0505 27.2486L27.2374 24.0615L29.8468 26.3376C29.8487 26.3394 29.8507 26.3411 29.8528 26.3428C30.0481 26.5089 30.2214 26.7083 30.3685 26.9362C30.8411 27.6665 30.8742 28.6652 30.4512 29.4211Z" fill="#936037"/>
</g>
</g>
<g id="Group_7">
<g id="Group_8">
<path id="Vector_4" d="M11.7803 6.47727C11.5362 6.2332 11.1406 6.2332 10.8964 6.47727L8.24469 9.12902C8.00063 9.37308 8.00063 9.76884 8.24469 10.0128C8.36676 10.1349 8.52669 10.1959 8.68663 10.1959C8.84657 10.1959 9.00651 10.1348 9.12857 10.0128L11.7803 7.36108C12.0244 7.11708 12.0244 6.72139 11.7803 6.47727Z" fill="#936037"/>
</g>
</g>
</g>
<defs>
<clipPath id="clip0_408_2905">
<rect width="32" height="32" fill="white"/>
</clipPath>
</defs>
</svg>
