<svg width="32" height="32" viewBox="0 0 32 32" fill="none" xmlns="http://www.w3.org/2000/svg">
<g id="004-hospital">
<path id="Vector" d="M3.33335 29.3334H28.6667C28.8435 29.3334 29.0131 29.2631 29.1381 29.1381C29.2631 29.0131 29.3334 28.8435 29.3334 28.6667V12.6667C29.3334 12.4899 29.2631 12.3203 29.1381 12.1953C29.0131 12.0703 28.8435 12 28.6667 12H25.3334V6.00002C25.3334 5.82321 25.2631 5.65364 25.1381 5.52862C25.0131 5.40359 24.8435 5.33335 24.6667 5.33335H21.3334V4.66669C21.3334 4.13625 21.1226 3.62755 20.7476 3.25247C20.3725 2.8774 19.8638 2.66669 19.3334 2.66669H12.6667C12.1363 2.66669 11.6275 2.8774 11.2525 3.25247C10.8774 3.62755 10.6667 4.13625 10.6667 4.66669V5.33335H7.33335C7.15654 5.33335 6.98697 5.40359 6.86195 5.52862C6.73693 5.65364 6.66669 5.82321 6.66669 6.00002V12H3.33335C3.15654 12 2.98697 12.0703 2.86195 12.1953C2.73693 12.3203 2.66669 12.4899 2.66669 12.6667V28.6667C2.66669 28.8435 2.73693 29.0131 2.86195 29.1381C2.98697 29.2631 3.15654 29.3334 3.33335 29.3334ZM25.3334 13.3334H28V28H25.3334V13.3334ZM18 28H14V23.3334H18V28ZM12 4.66669C12 4.48988 12.0703 4.32031 12.1953 4.19528C12.3203 4.07026 12.4899 4.00002 12.6667 4.00002H19.3334C19.5102 4.00002 19.6797 4.07026 19.8048 4.19528C19.9298 4.32031 20 4.48988 20 4.66669V11.3334C20 11.5102 19.9298 11.6797 19.8048 11.8048C19.6797 11.9298 19.5102 12 19.3334 12H12.6667C12.4899 12 12.3203 11.9298 12.1953 11.8048C12.0703 11.6797 12 11.5102 12 11.3334V4.66669ZM8.00002 6.66669H10.6667V11.3334C10.6667 11.8638 10.8774 12.3725 11.2525 12.7476C11.6275 13.1226 12.1363 13.3334 12.6667 13.3334H19.3334C19.8638 13.3334 20.3725 13.1226 20.7476 12.7476C21.1226 12.3725 21.3334 11.8638 21.3334 11.3334V6.66669H24V28H19.3334V22.6667C19.3334 22.4899 19.2631 22.3203 19.1381 22.1953C19.0131 22.0703 18.8435 22 18.6667 22H13.3334C13.1565 22 12.987 22.0703 12.8619 22.1953C12.7369 22.3203 12.6667 22.4899 12.6667 22.6667V28H8.00002V6.66669ZM4.00002 13.3334H6.66669V28H4.00002V13.3334Z" fill="#936037"/>
<path id="Vector_2" d="M14 8.66665H15.3333V9.99998C15.3333 10.1768 15.4036 10.3464 15.5286 10.4714C15.6536 10.5964 15.8232 10.6666 16 10.6666C16.1768 10.6666 16.3464 10.5964 16.4714 10.4714C16.5964 10.3464 16.6666 10.1768 16.6666 9.99998V8.66665H18C18.1768 8.66665 18.3464 8.59641 18.4714 8.47138C18.5964 8.34636 18.6666 8.17679 18.6666 7.99998C18.6666 7.82317 18.5964 7.6536 18.4714 7.52858C18.3464 7.40355 18.1768 7.33331 18 7.33331H16.6666V5.99998C16.6666 5.82317 16.5964 5.6536 16.4714 5.52858C16.3464 5.40355 16.1768 5.33331 16 5.33331C15.8232 5.33331 15.6536 5.40355 15.5286 5.52858C15.4036 5.6536 15.3333 5.82317 15.3333 5.99998V7.33331H14C13.8232 7.33331 13.6536 7.40355 13.5286 7.52858C13.4036 7.6536 13.3333 7.82317 13.3333 7.99998C13.3333 8.17679 13.4036 8.34636 13.5286 8.47138C13.6536 8.59641 13.8232 8.66665 14 8.66665Z" fill="#936037"/>
<path id="Vector_3" d="M11.3334 16.6666H12.6667C12.8435 16.6666 13.0131 16.5964 13.1381 16.4714C13.2631 16.3464 13.3334 16.1768 13.3334 16C13.3334 15.8232 13.2631 15.6536 13.1381 15.5286C13.0131 15.4036 12.8435 15.3333 12.6667 15.3333H11.3334C11.1565 15.3333 10.987 15.4036 10.8619 15.5286C10.7369 15.6536 10.6667 15.8232 10.6667 16C10.6667 16.1768 10.7369 16.3464 10.8619 16.4714C10.987 16.5964 11.1565 16.6666 11.3334 16.6666Z" fill="#936037"/>
<path id="Vector_4" d="M13.3334 19.3334C13.3334 19.1565 13.2631 18.987 13.1381 18.8619C13.0131 18.7369 12.8435 18.6667 12.6667 18.6667H11.3334C11.1565 18.6667 10.987 18.7369 10.8619 18.8619C10.7369 18.987 10.6667 19.1565 10.6667 19.3334C10.6667 19.5102 10.7369 19.6797 10.8619 19.8048C10.987 19.9298 11.1565 20 11.3334 20H12.6667C12.8435 20 13.0131 19.9298 13.1381 19.8048C13.2631 19.6797 13.3334 19.5102 13.3334 19.3334Z" fill="#936037"/>
<path id="Vector_5" d="M15.3334 16.6666H16.6667C16.8435 16.6666 17.0131 16.5964 17.1381 16.4714C17.2631 16.3464 17.3334 16.1768 17.3334 16C17.3334 15.8232 17.2631 15.6536 17.1381 15.5286C17.0131 15.4036 16.8435 15.3333 16.6667 15.3333H15.3334C15.1565 15.3333 14.987 15.4036 14.8619 15.5286C14.7369 15.6536 14.6667 15.8232 14.6667 16C14.6667 16.1768 14.7369 16.3464 14.8619 16.4714C14.987 16.5964 15.1565 16.6666 15.3334 16.6666Z" fill="#936037"/>
<path id="Vector_6" d="M15.3334 20H16.6667C16.8435 20 17.0131 19.9298 17.1381 19.8048C17.2631 19.6797 17.3334 19.5102 17.3334 19.3334C17.3334 19.1565 17.2631 18.987 17.1381 18.8619C17.0131 18.7369 16.8435 18.6667 16.6667 18.6667H15.3334C15.1565 18.6667 14.987 18.7369 14.8619 18.8619C14.7369 18.987 14.6667 19.1565 14.6667 19.3334C14.6667 19.5102 14.7369 19.6797 14.8619 19.8048C14.987 19.9298 15.1565 20 15.3334 20Z" fill="#936037"/>
<path id="Vector_7" d="M19.3334 16.6666H20.6667C20.8435 16.6666 21.0131 16.5964 21.1381 16.4714C21.2631 16.3464 21.3334 16.1768 21.3334 16C21.3334 15.8232 21.2631 15.6536 21.1381 15.5286C21.0131 15.4036 20.8435 15.3333 20.6667 15.3333H19.3334C19.1565 15.3333 18.987 15.4036 18.8619 15.5286C18.7369 15.6536 18.6667 15.8232 18.6667 16C18.6667 16.1768 18.7369 16.3464 18.8619 16.4714C18.987 16.5964 19.1565 16.6666 19.3334 16.6666Z" fill="#936037"/>
<path id="Vector_8" d="M19.3334 20H20.6667C20.8435 20 21.0131 19.9298 21.1381 19.8048C21.2631 19.6797 21.3334 19.5102 21.3334 19.3334C21.3334 19.1565 21.2631 18.987 21.1381 18.8619C21.0131 18.7369 20.8435 18.6667 20.6667 18.6667H19.3334C19.1565 18.6667 18.987 18.7369 18.8619 18.8619C18.7369 18.987 18.6667 19.1565 18.6667 19.3334C18.6667 19.5102 18.7369 19.6797 18.8619 19.8048C18.987 19.9298 19.1565 20 19.3334 20Z" fill="#936037"/>
</g>
</svg>
