<svg width="32" height="32" viewBox="0 0 32 32" fill="none" xmlns="http://www.w3.org/2000/svg">
<g id="010-documents" clip-path="url(#clip0_408_2935)">
<g id="Group">
<g id="Group_2">
<path id="Vector" d="M3.20239 14.1879V15.7412C3.20239 16.1634 3.54589 16.5069 3.96814 16.5069H9.84589C10.2681 16.5069 10.6116 16.1634 10.6116 15.7412V14.1879C10.6116 13.0984 9.96489 12.1443 9.01758 11.7142C9.27839 11.3171 9.4307 10.8426 9.4307 10.3331C9.4307 8.9415 8.29858 7.80937 6.90702 7.80937C5.51546 7.80937 4.38339 8.9415 4.38339 10.3331C4.38339 10.8426 4.53571 11.3171 4.79646 11.7142C3.84921 12.1442 3.20239 13.0984 3.20239 14.1879ZM6.90702 8.74687C7.78164 8.74687 8.4932 9.45843 8.4932 10.3331C8.4932 11.2076 7.78164 11.9192 6.90702 11.9192C6.03245 11.9192 5.32089 11.2076 5.32089 10.3331C5.32089 9.45843 6.03245 8.74687 6.90702 8.74687ZM4.13989 14.1879C4.13989 13.3457 4.72946 12.6267 5.53645 12.4504C5.93145 12.707 6.40195 12.8567 6.90702 12.8567C7.41208 12.8567 7.88258 12.707 8.27758 12.4504C9.08464 12.6267 9.67414 13.3457 9.67414 14.1879V15.5694H4.13989V14.1879Z" fill="#936037"/>
<path id="Vector_2" d="M30.6515 0H18.0108C17.4077 0 16.917 0.490687 16.917 1.09375V4.90194H1.34851C0.745448 4.90194 0.254761 5.39262 0.254761 5.99569V12.9327C0.254761 13.1917 0.464573 13.4015 0.723511 13.4015C0.982448 13.4015 1.19226 13.1917 1.19226 12.9327V5.99569C1.19226 5.9095 1.26232 5.83944 1.34851 5.83944H16.917V6.4375C16.917 6.69644 17.1268 6.90625 17.3858 6.90625C17.6447 6.90625 17.8545 6.69644 17.8545 6.4375V1.09375C17.8545 1.00756 17.9246 0.9375 18.0108 0.9375H30.6515C30.7377 0.9375 30.8078 1.00756 30.8078 1.09375V17.2506C30.8078 17.3368 30.7377 17.4069 30.6515 17.4069H25.6308C25.291 16.6898 24.5603 16.1925 23.7155 16.1925H17.8545V8.625C17.8545 8.36606 17.6447 8.15625 17.3858 8.15625C17.1268 8.15625 16.917 8.36606 16.917 8.625V9.52719H12.0736C11.8147 9.52719 11.6049 9.737 11.6049 9.99594C11.6049 10.2549 11.8147 10.4647 12.0736 10.4647H16.917V11.9688H12.0736C11.8147 11.9688 11.6049 12.1786 11.6049 12.4375C11.6049 12.6964 11.8147 12.9062 12.0736 12.9062H16.917V16.1925H15.835C14.6669 16.1925 13.7165 17.1428 13.7165 18.311V20.5C13.7165 20.7589 13.9263 20.9688 14.1853 20.9688C14.4442 20.9688 14.654 20.7589 14.654 20.5V18.311C14.654 17.6598 15.1838 17.13 15.835 17.13H23.7155C24.3666 17.13 24.8965 17.6598 24.8965 18.311V23.4411C24.8965 24.3443 24.4603 25.2004 23.7296 25.7313L19.8876 28.5226C19.8203 28.5714 19.7301 28.5714 19.6628 28.5226L15.8209 25.7313C15.0903 25.2004 14.654 24.3443 14.654 23.4411V22.6875C14.654 22.4286 14.4442 22.2188 14.1853 22.2188C13.9263 22.2188 13.7165 22.4286 13.7165 22.6875V23.4411C13.7165 24.6434 14.2972 25.7831 15.2699 26.4896L19.1118 29.2811C19.3103 29.4252 19.5428 29.4972 19.7752 29.4972C20.0078 29.4972 20.2402 29.4252 20.4386 29.281L20.4475 29.2746V30.9062C20.4475 30.9924 20.3774 31.0625 20.2912 31.0625H1.34851C1.26232 31.0625 1.19226 30.9924 1.19226 30.9062V15.1202C1.19226 14.8613 0.982448 14.6515 0.723511 14.6515C0.464573 14.6515 0.254761 14.8613 0.254761 15.1202V30.9062C0.254761 31.5093 0.745448 32 1.34851 32H20.2912C20.8943 32 21.385 31.5093 21.385 30.9062V28.5934L24.2806 26.4896C25.2533 25.7829 25.834 24.6434 25.834 23.4411V18.3444H30.6515C31.2546 18.3444 31.7453 17.8537 31.7453 17.2506V1.09375C31.7453 0.490687 31.2546 0 30.6515 0Z" fill="#936037"/>
<path id="Vector_3" d="M27.6307 3.52538C27.8896 3.52538 28.0994 3.31556 28.0994 3.05663C28.0994 2.79769 27.8896 2.58788 27.6307 2.58788H21.0317C20.7728 2.58788 20.563 2.79769 20.563 3.05663C20.563 3.31556 20.7728 3.52538 21.0317 3.52538H27.6307Z" fill="#936037"/>
<path id="Vector_4" d="M24.3312 14.7926C27.0632 14.7926 29.2858 12.57 29.2858 9.83794C29.2858 7.10588 27.0632 4.88326 24.3312 4.88326C21.5991 4.88326 19.3765 7.10588 19.3765 9.83794C19.3765 12.57 21.5991 14.7926 24.3312 14.7926ZM20.7882 11.7291H22.3686C22.4831 12.4344 22.6647 13.0791 22.9098 13.5946C21.9983 13.2485 21.2443 12.5803 20.7882 11.7291ZM24.3312 13.8551C24.2093 13.8551 23.9021 13.6448 23.6109 12.8489C23.4898 12.518 23.3918 12.1397 23.318 11.7291H25.3423C25.0966 13.0786 24.626 13.8551 24.3312 13.8551ZM25.7525 13.5946C25.9976 13.0791 26.1792 12.4344 26.2937 11.7291H27.8741C27.418 12.5803 26.664 13.2485 25.7525 13.5946ZM28.3483 9.83788C28.3483 10.1665 28.3078 10.4857 28.233 10.7916H26.4046C26.4288 10.4768 26.4411 10.1571 26.4411 9.83788C26.4411 9.51869 26.4288 9.199 26.4046 8.88425H28.233C28.3078 9.19013 28.3483 9.50932 28.3483 9.83788ZM27.8742 7.94675H26.2937C26.1792 7.24144 25.9976 6.59663 25.7525 6.08119C26.664 6.42732 27.418 7.09557 27.8742 7.94675ZM24.3312 5.82069C24.453 5.82069 24.7603 6.031 25.0515 6.82694C25.1725 7.15782 25.2706 7.53613 25.3444 7.94682H23.32C23.5657 6.59725 24.0363 5.82069 24.3312 5.82069ZM23.1978 8.88425H25.4649C25.4902 9.19313 25.5037 9.51226 25.5037 9.83788C25.5037 10.1741 25.4895 10.4919 25.4645 10.7916H23.1975C23.1722 10.4827 23.1587 10.1635 23.1587 9.83788C23.1587 9.50176 23.1729 9.18388 23.1978 8.88425ZM22.9098 6.08125C22.6647 6.59669 22.4832 7.2415 22.3687 7.94682H20.7882C21.2443 7.09557 21.9983 6.42732 22.9098 6.08125ZM22.2577 8.88425C22.2335 9.199 22.2212 9.51869 22.2212 9.83788C22.2212 10.1571 22.2335 10.4768 22.2577 10.7916H20.4292C20.3545 10.4857 20.3139 10.1665 20.3139 9.83788C20.3139 9.50932 20.3545 9.19013 20.4292 8.88425H22.2577Z" fill="#936037"/>
<path id="Vector_5" d="M18.1249 24.832C18.4019 25.1089 18.7701 25.2614 19.1618 25.2614C19.5535 25.2614 19.9217 25.1089 20.1987 24.8319L23.443 21.5875C24.0146 21.0157 24.0146 20.0856 23.443 19.5139C22.8714 18.9422 21.9412 18.9422 21.3693 19.5139L19.1618 21.7215L18.1813 20.7411C17.9044 20.4639 17.5361 20.3114 17.1444 20.3114C16.7527 20.3115 16.3846 20.464 16.1076 20.7409C15.5359 21.3126 15.5359 22.2428 16.1076 22.8146L18.1249 24.832ZM16.7705 21.4039C16.8704 21.304 17.0032 21.249 17.1445 21.249C17.2857 21.249 17.4184 21.304 17.5183 21.4039L18.8303 22.7159C19.0133 22.8989 19.3101 22.8989 19.4932 22.7159L22.0321 20.1768C22.2384 19.9707 22.5739 19.9706 22.7799 20.1768C22.9861 20.3829 22.9861 20.7184 22.7799 20.9246L19.5356 24.169C19.4372 24.2674 19.3009 24.3239 19.1617 24.3239C19.0205 24.3239 18.8877 24.2689 18.7879 24.1691L16.7706 22.1516C16.6707 22.0517 16.6156 21.919 16.6156 21.7778C16.6156 21.6366 16.6707 21.5038 16.7705 21.4039Z" fill="#936037"/>
<path id="Vector_6" d="M6.28125 18.2961C6.28125 18.555 6.49106 18.7648 6.75 18.7648H11.7437C12.0026 18.7648 12.2124 18.555 12.2124 18.2961C12.2124 18.0371 12.0026 17.8273 11.7437 17.8273H6.75C6.49106 17.8273 6.28125 18.0372 6.28125 18.2961Z" fill="#936037"/>
<path id="Vector_7" d="M3.67114 18.7648H4.99996C5.25889 18.7648 5.46871 18.555 5.46871 18.2961C5.46871 18.0371 5.25889 17.8273 4.99996 17.8273H3.67114C3.41221 17.8273 3.20239 18.0371 3.20239 18.2961C3.20239 18.555 3.41227 18.7648 3.67114 18.7648Z" fill="#936037"/>
<path id="Vector_8" d="M3.67114 21.2064H11.7436C12.0026 21.2064 12.2124 20.9966 12.2124 20.7377C12.2124 20.4787 12.0026 20.2689 11.7436 20.2689H3.67114C3.41221 20.2689 3.20239 20.4787 3.20239 20.7377C3.20239 20.9966 3.41227 21.2064 3.67114 21.2064Z" fill="#936037"/>
<path id="Vector_9" d="M3.67114 23.6481H11.7436C12.0026 23.6481 12.2124 23.4382 12.2124 23.1793C12.2124 22.9204 12.0026 22.7106 11.7436 22.7106H3.67114C3.41221 22.7106 3.20239 22.9204 3.20239 23.1793C3.20239 23.4382 3.41227 23.6481 3.67114 23.6481Z" fill="#936037"/>
<path id="Vector_10" d="M3.20239 27.875C3.20239 28.2369 3.49677 28.5313 3.85864 28.5313H11.5561C11.918 28.5313 12.2124 28.2369 12.2124 27.875V25.8084C12.2124 25.4466 11.918 25.1522 11.5561 25.1522H3.85864C3.49677 25.1522 3.20239 25.4466 3.20239 25.8084V27.875ZM4.13989 26.0897H11.2749V27.5938H4.13989V26.0897Z" fill="#936037"/>
</g>
</g>
</g>
<defs>
<clipPath id="clip0_408_2935">
<rect width="32" height="32" fill="white"/>
</clipPath>
</defs>
</svg>
