<svg width="32" height="32" viewBox="0 0 32 32" fill="none" xmlns="http://www.w3.org/2000/svg">
<g id="007-network" clip-path="url(#clip0_408_2814)">
<g id="Group">
<g id="Group_2">
<path id="Vector" d="M29.8667 6.39999C28.6901 6.39999 27.7334 7.35681 27.7334 8.53331C27.7334 9.70981 28.6902 10.6666 29.8667 10.6666C31.0432 10.6666 32 9.70987 32 8.53331C32 7.35681 31.0432 6.39999 29.8667 6.39999ZM29.8667 9.59999C29.2785 9.59999 28.8 9.12162 28.8 8.53331C28.8 7.94506 29.2784 7.46662 29.8667 7.46662C30.455 7.46662 30.9334 7.94499 30.9334 8.53331C30.9333 9.12162 30.455 9.59999 29.8667 9.59999Z" fill="#936037"/>
</g>
</g>
<g id="Group_3">
<g id="Group_4">
<path id="Vector_2" d="M2.13331 24C0.956813 24 0 24.9568 0 26.1333C0 27.3098 0.956813 28.2666 2.13331 28.2666C3.30988 28.2666 4.26662 27.3098 4.26662 26.1333C4.26662 24.9568 3.30988 24 2.13331 24ZM2.13331 27.2C1.54506 27.2 1.06662 26.7216 1.06662 26.1333C1.06662 25.545 1.545 25.0666 2.13331 25.0666C2.72156 25.0666 3.2 25.545 3.2 26.1333C3.2 26.7216 2.72162 27.2 2.13331 27.2Z" fill="#936037"/>
</g>
</g>
<g id="Group_5">
<g id="Group_6">
<path id="Vector_3" d="M28.8326 7.07411L24.2315 4.8528C23.9659 4.72424 23.6475 4.83624 23.5195 5.10137C23.3915 5.36643 23.503 5.68536 23.7681 5.81336L28.3691 8.03468C28.4438 8.07093 28.5228 8.08799 28.6006 8.08799C28.799 8.08799 28.9894 7.97705 29.0811 7.78612C29.2091 7.52105 29.0976 7.20211 28.8326 7.07411Z" fill="#936037"/>
</g>
</g>
<g id="Group_7">
<g id="Group_8">
<path id="Vector_4" d="M24 27.7333C22.8234 27.7333 21.8667 28.6901 21.8667 29.8666C21.8667 31.0431 22.8234 32 24 32C25.1766 32 26.1333 31.0432 26.1333 29.8667C26.1333 28.6902 25.1766 27.7333 24 27.7333ZM24 30.9333C23.4118 30.9333 22.9333 30.4549 22.9333 29.8666C22.9333 29.2783 23.4118 28.8 24 28.8C24.5883 28.8 25.0667 29.2784 25.0667 29.8667C25.0667 30.455 24.5883 30.9333 24 30.9333Z" fill="#936037"/>
</g>
</g>
<g id="Group_9">
<g id="Group_10">
<path id="Vector_5" d="M22.9659 28.4075L18.3648 26.1862C18.0992 26.0576 17.7808 26.1691 17.6528 26.4348C17.5248 26.6998 17.6363 27.0188 17.9014 27.1468L22.5024 29.3681C22.5771 29.4043 22.6561 29.4214 22.7339 29.4214C22.9323 29.4214 23.1227 29.3105 23.2144 29.1195C23.3424 28.8544 23.2309 28.5355 22.9659 28.4075Z" fill="#936037"/>
</g>
</g>
<g id="Group_11">
<g id="Group_12">
<path id="Vector_6" d="M16 14.4C14.8234 14.4 13.8667 15.3568 13.8667 16.5333C13.8667 17.7099 14.8235 18.6666 16 18.6666C17.1766 18.6666 18.1333 17.7098 18.1333 16.5333C18.1333 15.3568 17.1766 14.4 16 14.4ZM16 17.6C15.4118 17.6 14.9333 17.1216 14.9333 16.5333C14.9333 15.9451 15.4117 15.4666 16 15.4666C16.5883 15.4666 17.0667 15.945 17.0667 16.5333C17.0667 17.1216 16.5883 17.6 16 17.6Z" fill="#936037"/>
</g>
</g>
<g id="Group_13">
<g id="Group_14">
<path id="Vector_7" d="M15.0623 15.1339L11.528 12.3792C11.2954 12.1994 10.9605 12.2394 10.7792 12.472C10.5983 12.7046 10.6394 13.0394 10.872 13.2208L14.4063 15.9755C14.504 16.0512 14.6192 16.0881 14.7339 16.0881C14.8928 16.0881 15.0496 16.0177 15.1552 15.8827C15.336 15.6501 15.2949 15.3152 15.0623 15.1339Z" fill="#936037"/>
</g>
</g>
<g id="Group_15">
<g id="Group_16">
<path id="Vector_8" d="M25.6 13.8667C22.3653 13.8667 19.7333 16.4987 19.7333 19.7334C19.7333 22.9681 22.3653 25.6001 25.6 25.6001C28.8347 25.6001 31.4667 22.9681 31.4667 19.7334C31.4667 16.4987 28.8347 13.8667 25.6 13.8667ZM25.6 24.5333C22.953 24.5333 20.8 22.3803 20.8 19.7333C20.8 17.0864 22.953 14.9333 25.6 14.9333C28.2469 14.9333 30.4 17.0864 30.4 19.7333C30.4 22.3803 28.2469 24.5333 25.6 24.5333Z" fill="#936037"/>
</g>
</g>
<g id="Group_17">
<g id="Group_18">
<path id="Vector_9" d="M25.6 16C24.4234 16 23.4667 16.9568 23.4667 18.1333C23.4667 19.3099 24.4235 20.2666 25.6 20.2666C26.7765 20.2666 27.7333 19.3098 27.7333 18.1333C27.7333 16.9568 26.7765 16 25.6 16ZM25.6 19.2C25.0117 19.2 24.5333 18.7216 24.5333 18.1333C24.5333 17.5451 25.0117 17.0666 25.6 17.0666C26.1882 17.0666 26.6667 17.545 26.6667 18.1333C26.6667 18.7216 26.1882 19.2 25.6 19.2Z" fill="#936037"/>
</g>
</g>
<g id="Group_19">
<g id="Group_20">
<path id="Vector_10" d="M27.1472 21.3333H24.0528C23.1414 21.3333 22.4 22.0549 22.4 22.9413V24.3472C22.4 24.5376 22.5013 24.7136 22.6661 24.8091C23.56 25.3264 24.5744 25.6 25.6 25.6C26.6257 25.6 27.64 25.3264 28.5339 24.8091C28.6987 24.7141 28.8 24.5376 28.8 24.3477V22.9419C28.8 22.0549 28.0587 21.3333 27.1472 21.3333ZM27.7333 24.0293C26.4059 24.6906 24.7941 24.6906 23.4667 24.0293V22.9419C23.4667 22.6432 23.7296 22.4 24.0528 22.4H27.1472C27.4703 22.4 27.7333 22.6432 27.7333 22.9419V24.0293H27.7333Z" fill="#936037"/>
</g>
</g>
<g id="Group_21">
<g id="Group_22">
<path id="Vector_11" d="M12.8 20.2667C9.56535 20.2667 6.93335 22.8987 6.93335 26.1334C6.93335 29.3681 9.56535 32 12.8 32C16.0347 32 18.6667 29.368 18.6667 26.1333C18.6667 22.8986 16.0347 20.2667 12.8 20.2667ZM12.8 30.9333C10.1531 30.9333 8.00004 28.7803 8.00004 26.1333C8.00004 23.4864 10.1531 21.3333 12.8 21.3333C15.447 21.3333 17.6 23.4864 17.6 26.1333C17.6 28.7803 15.447 30.9333 12.8 30.9333Z" fill="#936037"/>
</g>
</g>
<g id="Group_23">
<g id="Group_24">
<path id="Vector_12" d="M12.8001 22.4C11.6235 22.4 10.6667 23.3568 10.6667 24.5333C10.6667 25.7099 11.6236 26.6666 12.8001 26.6666C13.9766 26.6666 14.9334 25.7098 14.9334 24.5333C14.9334 23.3568 13.9766 22.4 12.8001 22.4ZM12.8001 25.6C12.2118 25.6 11.7334 25.1216 11.7334 24.5333C11.7334 23.9451 12.2117 23.4666 12.8001 23.4666C13.3883 23.4666 13.8667 23.945 13.8667 24.5333C13.8667 25.1216 13.3883 25.6 12.8001 25.6Z" fill="#936037"/>
</g>
</g>
<g id="Group_25">
<g id="Group_26">
<path id="Vector_13" d="M14.3472 27.7333H11.2528C10.3414 27.7333 9.59998 28.4549 9.59998 29.3413V30.7472C9.59998 30.9376 9.70129 31.1136 9.8661 31.2091C10.76 31.7264 11.7744 32 12.8 32C13.8256 32 14.84 31.7264 15.7339 31.2091C15.8987 31.1141 16 30.9376 16 30.7477V29.3419C16 28.4549 15.2587 27.7333 14.3472 27.7333ZM14.9333 30.4293C13.6058 31.0906 11.9941 31.0906 10.6666 30.4293V29.3419C10.6666 29.0432 10.9295 28.8 11.2527 28.8H14.3471C14.6703 28.8 14.9332 29.0432 14.9332 29.3419L14.9333 30.4293Z" fill="#936037"/>
</g>
</g>
<g id="Group_27">
<g id="Group_28">
<path id="Vector_14" d="M5.86669 6.93332C2.632 6.93332 0 9.56532 0 12.8C0 16.0347 2.632 18.6667 5.86669 18.6667C9.10137 18.6667 11.7334 16.0347 11.7334 12.8C11.7333 9.56532 9.10131 6.93332 5.86669 6.93332ZM5.86669 17.6C3.21975 17.6 1.06669 15.4469 1.06669 12.8C1.06669 10.1531 3.21975 8.00001 5.86669 8.00001C8.51363 8.00001 10.6667 10.1531 10.6667 12.8C10.6667 15.4469 8.51363 17.6 5.86669 17.6Z" fill="#936037"/>
</g>
</g>
<g id="Group_29">
<g id="Group_30">
<path id="Vector_15" d="M5.86671 9.06668C4.69015 9.06668 3.7334 10.0235 3.7334 11.2C3.7334 12.3765 4.69021 13.3333 5.86671 13.3333C7.04327 13.3333 8.00002 12.3765 8.00002 11.2C8.00002 10.0235 7.04321 9.06668 5.86671 9.06668ZM5.86671 12.2667C5.27846 12.2667 4.80002 11.7883 4.80002 11.2C4.80002 10.6117 5.2784 10.1333 5.86671 10.1333C6.45496 10.1333 6.9334 10.6117 6.9334 11.2C6.9334 11.7883 6.45496 12.2667 5.86671 12.2667Z" fill="#936037"/>
</g>
</g>
<g id="Group_31">
<g id="Group_32">
<path id="Vector_16" d="M7.41394 14.4H4.31956C3.40812 14.4 2.66675 15.1216 2.66675 16.008V17.4139C2.66675 17.6042 2.76806 17.7802 2.93287 17.8757C3.82675 18.3931 4.84112 18.6667 5.86675 18.6667C6.89237 18.6667 7.90675 18.3931 8.80062 17.8757C8.96544 17.7808 9.06675 17.6042 9.06675 17.4144V16.0086C9.06675 15.1216 8.32537 14.4 7.41394 14.4ZM8.00006 17.096C6.67262 17.7573 5.06087 17.7573 3.73337 17.096V16.0086C3.73337 15.7099 3.99631 15.4667 4.3195 15.4667H7.41387C7.73706 15.4667 8 15.7099 8 16.0086L8.00006 17.096Z" fill="#936037"/>
</g>
</g>
<g id="Group_33">
<g id="Group_34">
<path id="Vector_17" d="M18.6667 0C15.432 0 12.8 2.632 12.8 5.86669C12.8 9.10137 15.432 11.7334 18.6667 11.7334C21.9014 11.7334 24.5334 9.10137 24.5334 5.86669C24.5334 2.632 21.9014 0 18.6667 0ZM18.6667 10.6667C16.0198 10.6667 13.8667 8.51363 13.8667 5.86669C13.8667 3.21975 16.0198 1.06669 18.6667 1.06669C21.3137 1.06669 23.4667 3.21975 23.4667 5.86669C23.4667 8.51363 21.3137 10.6667 18.6667 10.6667Z" fill="#936037"/>
</g>
</g>
<g id="Group_35">
<g id="Group_36">
<path id="Vector_18" d="M18.6666 2.1333C17.4901 2.1333 16.5333 3.09011 16.5333 4.26661C16.5333 5.44311 17.4901 6.39993 18.6666 6.39993C19.8431 6.39993 20.7999 5.44318 20.7999 4.26668C20.7999 3.09018 19.8431 2.1333 18.6666 2.1333ZM18.6666 5.3333C18.0784 5.3333 17.6 4.85493 17.6 4.26661C17.6 3.67836 18.0783 3.19993 18.6666 3.19993C19.255 3.19993 19.7333 3.6783 19.7333 4.26661C19.7333 4.85493 19.2549 5.3333 18.6666 5.3333Z" fill="#936037"/>
</g>
</g>
<g id="Group_37">
<g id="Group_38">
<path id="Vector_19" d="M20.2139 7.46667H17.1195C16.208 7.46667 15.4667 8.1883 15.4667 9.07468V10.4805C15.4667 10.6709 15.568 10.8469 15.7328 10.9424C16.6267 11.4597 17.641 11.7334 18.6667 11.7334C19.6923 11.7334 20.7067 11.4597 21.6006 10.9424C21.7654 10.8475 21.8667 10.6709 21.8667 10.4811V9.07524C21.8667 8.18824 21.1253 7.46667 20.2139 7.46667ZM20.8 10.1627C19.4725 10.824 17.8608 10.824 16.5333 10.1627V9.07524C16.5333 8.77655 16.7962 8.53336 17.1194 8.53336H20.2138C20.537 8.53336 20.7999 8.77655 20.7999 9.07524L20.8 10.1627Z" fill="#936037"/>
</g>
</g>
<g id="Group_39">
<g id="Group_40">
<path id="Vector_20" d="M13.7392 5.51944C13.5478 5.29651 13.2112 5.26982 12.9872 5.46132L9.29125 8.62401C9.06725 8.81544 9.04112 9.15201 9.23256 9.37601C9.33818 9.4992 9.4875 9.5627 9.63787 9.5627C9.76056 9.5627 9.88375 9.52057 9.98456 9.43413L13.6806 6.27144C13.9046 6.08001 13.9307 5.74344 13.7392 5.51944Z" fill="#936037"/>
</g>
</g>
<g id="Group_41">
<g id="Group_42">
<path id="Vector_21" d="M25.4934 14.0806L22.2934 9.81389C22.1168 9.57764 21.7824 9.5312 21.5467 9.7072C21.3109 9.88377 21.2635 10.2181 21.44 10.4533L24.64 14.72C24.7451 14.8598 24.9051 14.9333 25.0672 14.9333C25.1781 14.9333 25.2907 14.8986 25.3867 14.8266C25.6224 14.6501 25.6699 14.3158 25.4934 14.0806Z" fill="#936037"/>
</g>
</g>
<g id="Group_43">
<g id="Group_44">
<path id="Vector_22" d="M21.1163 21.4971C20.9397 21.2613 20.6054 21.2139 20.3696 21.3904L17.3904 23.6245C17.1547 23.8011 17.1072 24.1354 17.2837 24.3706C17.3888 24.5104 17.5488 24.5839 17.7109 24.5839C17.8224 24.5839 17.9344 24.5487 18.0304 24.4772L21.0096 22.2431C21.2454 22.0667 21.2929 21.7323 21.1163 21.4971Z" fill="#936037"/>
</g>
</g>
<g id="Group_45">
<g id="Group_46">
<path id="Vector_23" d="M7.46664 25.6H3.73326C3.43889 25.6 3.19995 25.8384 3.19995 26.1333C3.19995 26.4283 3.43889 26.6666 3.73326 26.6666H7.46658C7.76095 26.6666 7.99989 26.4283 7.99989 26.1333C7.99989 25.8384 7.76101 25.6 7.46664 25.6Z" fill="#936037"/>
</g>
</g>
<g id="Group_47">
<g id="Group_48">
<path id="Vector_24" d="M5.86665 0C4.69009 0 3.73328 0.956813 3.73328 2.13331C3.73328 3.30988 4.69009 4.26662 5.86659 4.26662C7.04315 4.26662 7.9999 3.30981 7.9999 2.13331C7.99996 0.956813 7.04315 0 5.86665 0ZM5.86665 3.2C5.2784 3.2 4.79996 2.72162 4.79996 2.13331C4.79996 1.54506 5.27834 1.06662 5.86665 1.06662C6.4549 1.06662 6.93334 1.545 6.93334 2.13331C6.93328 2.72162 6.4549 3.2 5.86665 3.2Z" fill="#936037"/>
</g>
</g>
<g id="Group_49">
<g id="Group_50">
<path id="Vector_25" d="M5.86669 3.20001C5.57231 3.20001 5.33337 3.43839 5.33337 3.73332V7.46664C5.33337 7.76158 5.57231 7.99995 5.86669 7.99995C6.16106 7.99995 6.4 7.76158 6.4 7.46664V3.73332C6.4 3.43839 6.16106 3.20001 5.86669 3.20001Z" fill="#936037"/>
</g>
</g>
</g>
<defs>
<clipPath id="clip0_408_2814">
<rect width="32" height="32" fill="white"/>
</clipPath>
</defs>
</svg>
