<svg width="128" height="128" viewBox="0 0 128 128" fill="none" xmlns="http://www.w3.org/2000/svg">
<g clip-path="url(#clip0_163_594)">
<rect width="128" height="128" rx="20" fill="#FDEFD6"/>
<path d="M6.12598 122.881C6.12598 122.881 6.23142 122.951 6.28414 122.986C6.23142 122.951 6.1787 122.916 6.12598 122.881Z" fill="#DE5A13"/>
<path d="M5.51416 122.549C5.51416 122.549 5.6196 122.602 5.67232 122.619C5.6196 122.602 5.56688 122.567 5.51416 122.549Z" fill="#DE5A13"/>
<path d="M-34.8973 82.8714C-32.4524 80.6535 -29.6756 78.8024 -26.6719 77.4227C-16.8049 72.8996 -6.2044 70.6119 4.46592 69.3021C12.0626 68.3765 20.2007 68.0098 27.8848 67.678L16.446 59.3303C11.5387 59.5748 6.64889 59.8892 1.8289 60.4829C-8.84142 61.7927 -19.4419 64.0805 -29.3089 68.6036C-32.3126 69.9832 -35.0894 71.8344 -37.5343 74.0522C-39.1933 75.5541 -40.1713 77.9816 -40.6079 79.4136C-39.7871 81.9633 -38.8615 84.8972 -37.8661 87.9883C-37.3946 86.5388 -36.4341 84.286 -34.8623 82.8714H-34.8973Z" fill="#FBBB30"/>
<path d="M39.2193 75.9559C36.7743 76.0433 33.7531 76.4275 31.3082 76.5322C23.3971 76.8641 15.4162 77.1435 7.59249 78.104C-3.07784 79.4138 -13.6783 81.7015 -23.5453 86.2246C-26.5491 87.6042 -29.3258 89.4554 -31.7707 91.6733C-33.5345 93.2799 -34.53 95.917 -34.9316 97.2966L-34.7395 97.9253C-33.9187 100.492 -33.1329 102.99 -32.3994 105.243C-32.3645 105.12 -32.2946 104.981 -32.2422 104.858C-31.7009 103.461 -30.8451 101.68 -29.5179 100.475C-27.073 98.2571 -24.2962 96.4059 -21.2925 95.0263C-11.4255 90.5032 -0.825016 88.2155 9.84531 86.9057C17.6691 85.9452 25.65 85.6658 33.561 85.334C34.9232 85.2641 36.2679 85.2292 37.6301 85.1768L40.3544 76.6894L39.2193 75.9385V75.9559Z" fill="#FBBB30"/>
<path d="M-40.6425 79.4137C-40.2059 77.9817 -39.2279 75.5717 -37.5689 74.0524C-35.124 71.8345 -32.3472 69.9833 -29.3435 68.6037C-19.4765 64.0806 -8.87601 61.7928 1.79431 60.4831C6.63176 59.8893 11.5216 59.575 16.4114 59.3305L5.11241 51.0701C1.75938 51.2797 -0.615685 51.4543 -2.11757 51.6464C-6.78037 52.2577 -11.4083 53.0086 -15.9139 54.0215C-20.4195 55.0344 -24.8902 56.3791 -29.1165 58.1604C-33.4475 59.9941 -37.5514 62.5962 -41.0267 65.7746C-43.3668 67.9051 -43.4192 70.6993 -43.3668 70.8391C-43.3668 70.8391 -42.2492 74.3493 -40.6425 79.3963V79.4137Z" fill="black"/>
<path d="M9.8457 86.9232C-0.824631 88.2329 -11.4251 90.5207 -21.2921 95.0438C-24.2959 96.4234 -27.0726 98.2746 -29.5175 100.492C-30.8447 101.697 -31.7179 103.461 -32.2418 104.876C-32.2942 104.998 -32.3466 105.138 -32.399 105.26C-33.115 102.99 -33.9184 100.51 -34.7392 97.9428C-41.7421 100.213 -50.701 102.431 -62 104.3L-59.2582 112.874C-48.4656 111.861 -39.0527 109.189 -31.9275 106.779C-30.5479 111.11 -29.5 114.411 -29.1333 115.546C-36.5379 118.061 -45.9159 120.593 -56.5513 121.554L-53.827 130.059C-39.6988 128.854 -27.4917 125.256 -19.179 121.886C-21.9208 121.327 -24.0514 120.506 -25.5707 119.703C-26.3915 119.266 -27.9632 118.166 -28.6792 116.804C-28.819 116.524 -28.9237 116.227 -28.9936 115.948C-29.0111 115.895 -29.0285 115.808 -29.0634 115.686C-29.0634 115.634 -29.0634 115.581 -29.0809 115.529C-29.1158 115.372 -29.1333 115.162 -29.1508 114.935C-29.1508 114.813 -29.1508 114.69 -29.1508 114.568C-29.1508 114.446 -29.1508 114.341 -29.1508 114.201C-29.1508 114.167 -29.1508 114.149 -29.1508 114.114C-29.1508 113.852 -29.1158 113.59 -29.0634 113.311C-28.8888 112.35 -28.4697 111.425 -27.9108 110.552C-27.1948 109.451 -26.2518 108.456 -25.2564 107.688C-23.6322 106.43 -21.8335 105.33 -19.9299 104.334C-15.3195 101.907 -10.0804 100.143 -4.85875 98.8509C1.14876 97.349 7.10389 96.4409 11.9064 95.7773C20.3763 94.6072 34.1202 94.3103 34.7664 94.2055L37.6479 85.2292C36.2857 85.2816 34.941 85.3165 33.5789 85.3864C25.6678 85.7182 17.6869 85.9976 9.86315 86.9581L9.8457 86.9232Z" fill="black"/>
<path d="M-26.6707 77.4228C-29.6745 78.8024 -32.4512 80.6536 -34.8961 82.8715C-36.4679 84.286 -37.4284 86.5389 -37.8999 87.9884C-36.9219 91.0445 -35.909 94.2229 -34.9311 97.314C-34.5294 95.9343 -33.534 93.2799 -31.7701 91.6907C-29.3252 89.4728 -26.5485 87.6216 -23.5447 86.242C-13.6777 81.7189 -3.07727 79.4311 7.59306 78.1214C15.4168 77.1609 23.3977 76.8814 31.3088 76.5496C33.7537 76.4274 36.7749 76.0606 39.2198 75.9733L27.8684 67.6955C20.1844 68.0099 12.0463 68.3766 4.44959 69.3196C-6.22074 70.6294 -16.8212 72.9172 -26.6882 77.4403L-26.6707 77.4228Z" fill="black"/>
<path d="M43.1485 75.9559L31.4478 112.577L64.5241 89.0012L97.7051 112.647L85.952 75.9559L120.111 51.0352L77.4996 49.4459L64.559 9L51.6009 49.4459L9.02441 51.0177L43.1485 75.9559Z" fill="#E30613"/>
<path d="M160.976 42.2335C160.33 40.1903 159.876 38.5836 159.439 37.2214C159.125 36.2435 158.863 35.4576 158.636 34.7765C158.549 34.4971 158.461 34.2351 158.392 34.0081L158.287 33.6938C157.833 32.3141 157.641 31.7378 157.571 31.5632C157.658 31.8426 157.92 32.838 157.676 34.2351C157.623 34.532 157.553 34.8289 157.449 35.1607C157.449 35.1956 157.449 35.2131 157.431 35.2306C156.995 36.5229 156.051 38.0597 153.886 39.841C151.895 41.4826 148.856 43.3337 144.194 45.3944C142.692 46.0581 140.963 46.6868 139.059 47.2805H139.007C137.889 47.6473 136.684 47.9791 135.444 48.3109C134.239 48.6252 132.999 48.9396 131.707 49.2365C131.253 49.3412 130.781 49.446 130.31 49.5508C130.24 49.5508 130.188 49.5857 130.118 49.6032C130.048 49.6032 129.961 49.6381 129.891 49.6556C127.708 50.1271 124.04 51.0527 124.04 51.0527L100.482 68.237C100.482 68.237 116.776 67.3813 121.438 66.7875C126.101 66.1937 130.729 65.4253 135.235 64.4124C136.195 64.2029 137.173 63.9584 138.151 63.6964C138.186 63.6964 138.238 63.6789 138.273 63.6615C138.326 63.6615 138.378 63.644 138.413 63.6266C138.937 63.4868 139.461 63.3297 140.002 63.1725C142.936 62.3342 145.835 61.3563 148.437 60.2561C152.681 58.4573 157.309 55.9774 160.348 52.6419C161.133 51.7862 161.692 50.7209 162.076 49.7953C162.548 48.6602 162.74 47.7171 162.688 47.5774L163.194 49.1491C162.373 46.4772 161.587 44.1545 160.976 42.216V42.2335Z" fill="#E6E6E6"/>
<path d="M165.569 56.6584C164.923 54.6151 164.469 53.0085 164.032 51.6463C163.718 50.6683 163.456 49.8825 163.229 49.2014C163.141 48.922 163.054 48.66 162.984 48.433L162.879 48.1186C162.425 46.739 162.233 46.1627 162.163 45.9881C162.251 46.2675 162.513 47.2629 162.268 48.66C162.216 48.9569 162.146 49.2538 162.041 49.5856C162.041 49.6205 162.041 49.638 162.024 49.6554C161.587 50.9478 160.644 52.4846 158.478 54.2659C156.488 55.9075 153.449 57.7586 148.786 59.8193C147.284 60.4829 145.555 61.1116 143.652 61.7054H143.599C140.002 62.858 137.295 63.801 132.754 64.5869C120.023 66.8048 103.311 67.6256 101.459 67.8177C101.425 67.8177 100.988 67.9225 101.023 67.8701L88.7109 76.8639L90.8415 83.5001C90.8415 83.5001 121.386 81.8061 126.048 81.2124C130.711 80.6186 135.339 79.8502 139.845 78.8373C144.35 77.8244 148.821 76.4797 153.047 74.6984C157.378 72.8647 161.797 70.5595 164.957 67.0842C165.743 66.2285 166.302 65.1632 166.686 64.2376C167.158 63.1025 167.35 62.1595 167.298 62.0198L167.804 63.5915C166.983 60.9195 166.197 58.5969 165.586 56.6584H165.569Z" fill="#005CA9"/>
<path d="M170.249 71.3106C169.603 69.2673 169.148 67.6607 168.712 66.2985C168.398 65.3205 168.136 64.5347 167.909 63.8536C167.821 63.5741 167.734 63.3122 167.664 63.0852L167.559 62.7708C167.105 61.3912 166.913 60.8149 166.843 60.6402C167.961 63.9234 165.149 66.9621 162.949 68.9355C161.028 70.6469 158.111 72.4282 153.449 74.489C151.947 75.1526 150.218 75.7813 148.314 76.375H148.262C144.664 77.5276 141.957 78.4707 137.417 79.2566C124.686 81.4744 110.488 82.2778 108.619 82.4699C108.584 82.4699 93.2861 83.378 90.8237 83.5177L93.4782 91.8654L95.3992 97.8554C95.3992 97.8554 124.337 96.7203 130.711 95.882C135.374 95.2708 140.002 94.5198 144.507 93.5069C149.013 92.494 153.484 91.1493 157.71 89.368C162.041 87.5344 166.459 85.2291 169.62 81.7539C170.406 80.8981 170.965 79.8329 171.349 78.9073C171.82 77.7721 172.013 76.8291 171.96 76.6894C171.96 76.6894 170.86 73.249 170.249 71.3106Z" fill="#E30613"/>
</g>
<defs>
<clipPath id="clip0_163_594">
<rect width="128" height="128" rx="20" fill="white"/>
</clipPath>
</defs>
</svg>
