<svg width="48" height="48" viewBox="0 0 48 48" fill="none" xmlns="http://www.w3.org/2000/svg">
<g clip-path="url(#clip0_521_225)">
<path d="M29.895 25.8032L32.1628 7.5581C32.2046 7.22054 32.2257 6.87683 32.2257 6.53633C32.2257 4.15657 31.1957 1.89468 29.3994 0.330678C29.0182 -0.00125069 28.4832 -0.0901936 28.0149 0.100016C27.5469 0.290493 27.2259 0.728242 27.1847 1.2319C27.0504 2.8752 25.6512 4.16246 23.9993 4.16246C22.348 4.16219 20.9495 2.87466 20.8156 1.23082C20.7746 0.727171 20.4534 0.289421 19.9854 0.0989441C19.5176 -0.0918011 18.9821 -0.00232227 18.6009 0.329071C16.804 1.89334 15.7734 4.15549 15.7734 6.53579C15.7734 6.87629 15.7946 7.22028 15.8364 7.55783L18.1227 25.9725C18.393 28.1511 19.8372 29.9313 21.7712 30.7194C21.5636 30.8646 21.4269 31.1049 21.4269 31.3774C21.4269 31.8213 21.7867 32.1811 22.2306 32.1811H22.6601V38.26C20.0135 38.8483 17.4245 41.2653 17.4245 46.6601C17.4245 47.3997 18.0241 47.9996 18.764 47.9996H29.2352C29.9751 47.9996 30.5747 47.3997 30.5747 46.6601C30.5747 41.2656 27.9857 38.8483 25.3391 38.26V32.1811H25.7685C26.2124 32.1811 26.5722 31.8213 26.5722 31.3774C26.5722 31.1084 26.4388 30.8716 26.236 30.7259C28.2279 29.9227 29.6799 28.0723 29.895 25.8032ZM27.8249 45.3211H20.1745C20.4933 42.4583 21.873 40.7912 23.9996 40.7912C26.1262 40.7912 27.5059 42.4583 27.8249 45.3211ZM27.2291 25.5372C27.0764 27.2153 25.6879 28.4806 23.9996 28.4806C22.3657 28.4806 20.9822 27.2606 20.7813 25.6427L18.495 7.22858C18.4669 6.99979 18.4524 6.76699 18.4524 6.53606C18.4524 5.67422 18.6528 4.83516 19.0263 4.07968C20.0746 5.73932 21.9293 6.8412 23.9996 6.8412C26.0702 6.8412 27.9249 5.74013 28.9734 4.08048C29.3466 4.83569 29.5467 5.67449 29.5467 6.53606C29.5467 6.76699 29.5323 6.99979 29.5041 7.22804L27.2337 25.4935C27.2321 25.508 27.2305 25.5224 27.2291 25.5372Z" fill="#936037"/>
<path d="M23.432 25.3613C23.2817 25.5114 23.1963 25.7176 23.1963 25.9293C23.1963 26.1409 23.2817 26.3499 23.432 26.4999C23.5821 26.6473 23.7883 26.733 24 26.733C24.2116 26.733 24.4203 26.6473 24.5679 26.4999C24.718 26.3499 24.8037 26.1409 24.8037 25.9293C24.8037 25.7176 24.718 25.5114 24.5679 25.3613C24.2706 25.0637 23.7324 25.0613 23.432 25.3613Z" fill="#936037"/>
</g>
<defs>
<clipPath id="clip0_521_225">
<rect width="48" height="48" fill="white"/>
</clipPath>
</defs>
</svg>
