<svg width="48" height="48" viewBox="0 0 48 48" fill="none" xmlns="http://www.w3.org/2000/svg">
<path d="M32.434 9.07173C30.8443 9.16914 27.4827 8.82895 24.066 7.1394M24.066 7.1394C22.8551 6.54065 21.6374 5.77244 20.4892 4.7942C15.0037 0.12086 7.57508 5.12414 6.61058 9.26992C5.64608 13.4157 6.03645 20.3457 7.85709 22.673C8.95659 24.0785 11.4013 25.4977 15.1964 26.4221M24.066 7.1394C32.3333 1.68294 40.3331 3.14978 41.6503 9.62752C42.9675 16.1052 41.0809 20.2416 40.1352 22.5407C39.4992 24.0871 36.775 25.821 32.2535 26.762M15.1964 26.4221C17.6855 27.0285 20.7554 27.422 24.4077 27.4593C27.4264 27.4901 30.0528 27.22 32.2535 26.762M15.1964 26.4221L20.1838 42.3583C20.6712 43.9157 22.1065 44.9817 23.7383 44.9984V44.9984C25.3982 45.0153 26.8733 43.9431 27.3694 42.3589L32.2535 26.762M14.688 31.054L33.13 31.2422M16.4851 35.6897L30.7776 35.8355M18.2822 40.3254L29.3473 40.4383" stroke="#936037" stroke-width="2.5" stroke-linecap="round" stroke-linejoin="round"/>
</svg>
