<svg width="48" height="48" viewBox="0 0 48 48" fill="none" xmlns="http://www.w3.org/2000/svg">
<g clip-path="url(#clip0_521_236)">
<path fill-rule="evenodd" clip-rule="evenodd" d="M26.4495 25.9727L28.9691 25.3477L29.9769 24.8321L31.9066 22.625C32.0737 22.5078 32.274 22.4473 32.4781 22.4525C32.6821 22.4576 32.8791 22.5282 33.0401 22.6537C33.2011 22.7793 33.3175 22.9532 33.3722 23.1498C33.4269 23.3465 33.4171 23.5555 33.3441 23.7461L32.0511 25.7461C31.3675 26.8086 31.5081 26.5938 30.3558 27.1446C29.6956 27.4649 28.9066 27.8008 28.1566 28.0782L31.0941 30.5079C32.3245 30.3399 33.5198 30.1172 34.7308 29.9415C36.1175 29.7383 36.1448 29.918 37.1644 30.7227L41.9378 34.4493C43.1995 35.5625 42.2464 36.711 41.1136 36.5079L36.6488 33.3516C35.6566 32.6524 35.8323 32.7383 34.6292 33.1915C33.262 33.7071 31.7386 34.4219 30.2894 34.3633C28.5159 34.293 28.1253 33.2618 26.9105 32.2071C26.1919 31.6549 25.5496 31.0099 25.0003 30.2891C24.6995 29.8243 24.3831 29.4454 24.1917 29.0665C24.0683 28.8534 24.0032 28.6115 24.0032 28.3653C24.0032 28.119 24.0683 27.8772 24.1917 27.6641C24.6956 26.6993 25.0159 26.2969 26.4652 25.9727H26.4495ZM14.2581 19.0586V38.7696H15.5863L18.4847 36.8907H16.9456V34.9375H25.2034L19.8363 28.9961L21.2816 27.6954L27.8245 34.9454H35.7152C35.8546 34.9447 35.9925 34.9744 36.1193 35.0324C36.2462 35.0904 36.3588 35.1754 36.4495 35.2813L42.598 38.7735H48.0003V41.4415H0.156563V38.7696H12.1683V19.0586H0.758126C0.558488 19.0587 0.36691 18.9799 0.225015 18.8395C0.0831198 18.699 0.00237138 18.5083 0.000313256 18.3086C-0.00152542 18.2839 -0.00152542 18.2591 0.000313256 18.2344C-0.0335981 16.761 0.313546 15.3038 1.00813 14.004C6.43 4.21489 19.305 4.05474 25.1956 13.7032C26.0223 15.0931 26.4293 16.6926 26.3675 18.3086C26.3675 18.5055 26.2901 18.6945 26.152 18.8349C26.0139 18.9752 25.8261 19.0556 25.6292 19.0586H14.2581ZM18.2152 38.7735H39.8441L35.3167 36.8946H21.1136L18.2152 38.7735ZM17.6214 8.95317C19.305 11.3868 20.1448 14.6329 20.1839 17.5469H24.848C24.6097 13.9805 20.8636 10.4258 17.6214 8.95317ZM15.4105 7.99614C14.9373 7.91424 14.46 7.85817 13.9808 7.82817V17.5547H18.6683C18.6409 15.3321 17.2581 9.18364 15.4027 7.99614H15.4105ZM12.4613 7.82427C11.9887 7.85038 11.5179 7.90254 11.0511 7.98052C9.16828 9.17192 7.81281 15.3086 7.76594 17.5508H12.4534V7.82427H12.4613ZM8.84797 8.90239C5.58234 10.3829 1.78547 13.8438 1.53938 17.5547H6.25031C6.28156 14.668 7.14094 11.3047 8.83625 8.91411L8.84797 8.90239ZM23.7308 21.0469C23.2492 21.0924 22.7919 21.2796 22.4168 21.585C22.0417 21.8903 21.7655 22.3001 21.6233 22.7624C21.4811 23.2247 21.4791 23.7189 21.6178 24.1823C21.7564 24.6457 22.0294 25.0576 22.4021 25.3658C22.7749 25.6741 23.2307 25.8649 23.7119 25.9141C24.1931 25.9632 24.6781 25.8686 25.1055 25.6421C25.5329 25.4156 25.8835 25.0675 26.113 24.6417C26.3425 24.2159 26.4406 23.7316 26.3948 23.25C26.3325 22.6051 26.0172 22.0112 25.5178 21.5982C25.0185 21.1853 24.3759 20.9871 23.7308 21.0469Z" fill="#936037"/>
</g>
<defs>
<clipPath id="clip0_521_236">
<rect width="48" height="48" fill="white"/>
</clipPath>
</defs>
</svg>
