<svg width="44" height="44" viewBox="0 0 44 44" fill="none" xmlns="http://www.w3.org/2000/svg">
<path d="M37.5277 37.7234L39.9033 23.948L41.6598 24.2577C41.7094 24.2665 41.7593 24.2707 41.809 24.2707C41.9842 24.2707 42.1565 24.2172 42.302 24.1153C42.4886 23.9846 42.6158 23.785 42.6553 23.5605L43.9466 16.2377C44.2392 14.5784 43.306 12.9466 41.7276 12.3572L40.2086 11.79C40.1987 11.7863 40.1899 11.7809 40.1822 11.7744C40.1818 11.7741 40.1816 11.774 40.1812 11.7738C40.1576 11.7534 40.1454 11.7216 40.151 11.6894L40.227 11.2586C40.5205 11.1418 40.802 10.9889 41.066 10.8008C41.9283 10.1864 42.4932 9.2376 42.6771 8.19492L42.8112 7.43438C42.8112 7.43412 42.8113 7.43377 42.8113 7.43352L42.8754 7.06983C43.0634 6.00412 42.8389 4.8969 42.2096 4.01656C41.5379 3.07692 40.508 2.48403 39.3394 2.37773C38.5292 2.30399 37.7101 2.48687 37.0081 2.89782C35.9872 3.49535 35.3037 4.48105 35.1012 5.62995L35.0251 6.06127C35.0251 6.06135 35.0251 6.06144 35.0251 6.06144L34.878 6.89572C34.6314 8.2947 35.1569 9.65414 36.1467 10.5364L36.0798 10.9283C36.0663 11.0065 35.9984 11.0637 35.919 11.0634L34.3597 11.0583C32.6748 11.0722 31.2398 12.2865 30.9472 13.9459L29.6561 21.2684C29.5737 21.7358 29.8857 22.1815 30.3531 22.2639L32.1134 22.5743L29.9973 34.5755C28.5611 34.1893 27.1001 33.9091 25.6201 33.7356V28.445H26.3998C26.5419 28.445 26.6841 28.4162 26.8098 28.3498C27.1532 28.1685 27.3222 27.8002 27.2626 27.4437L26.356 22.0284H27.5636C28.0382 22.0284 28.423 21.6436 28.423 21.169V13.9279C28.423 13.093 28.1214 12.3185 27.6138 11.7176C27.6162 11.6914 27.6178 11.6649 27.6178 11.638V5.70334C27.6178 2.62033 25.1697 0.0477044 22.0871 0.000696556C18.9495 -0.0471706 16.3818 2.49125 16.3818 5.61809V11.6381C16.3818 11.6678 16.3833 11.6972 16.3862 11.7262C15.883 12.3259 15.5844 13.0971 15.5844 13.928V21.1693C15.5844 21.644 15.9692 22.0287 16.4438 22.0287H17.6525C17.6658 22.0287 17.6786 22.0273 17.6916 22.0267L16.7382 27.4368C16.6795 27.7702 16.8212 28.1153 17.1198 28.3095C17.2641 28.4032 17.436 28.4454 17.6081 28.4454H18.3904V33.7349C16.9067 33.9083 15.442 34.1887 14.0023 34.5758L13.5636 32.0877C13.4812 31.6204 13.0358 31.3084 12.5681 31.3907C12.1007 31.4731 11.7886 31.9188 11.871 32.3862L12.3448 35.0732C11.9042 35.2188 11.4661 35.374 11.0309 35.54L8.83946 23.1119L10.1936 22.8731L10.6386 25.3968C10.712 25.8137 11.0747 26.1071 11.4838 26.1071C11.5319 26.1071 11.5807 26.103 11.6297 26.0947C12.0982 26.0145 12.408 25.5339 12.3254 25.0658L11.8862 22.5748L13.6465 22.2644C14.114 22.1819 14.426 21.7363 14.3436 21.2689L13.0525 13.9461C12.7598 12.2868 11.3249 11.0725 9.63997 11.0585L8.07023 11.0456C7.99624 11.045 7.93316 10.9916 7.92036 10.9187L7.85298 10.5366C8.8429 9.6544 9.36832 8.29495 9.12168 6.89589L8.97455 6.0617C8.97455 6.0617 8.97455 6.06161 8.97455 6.06152L8.91062 5.69878C8.72559 4.64871 8.15162 3.69627 7.27944 3.08293C6.41344 2.47381 5.36174 2.23954 4.31915 2.42336C3.27681 2.60718 2.36879 3.18674 1.76311 4.05514C1.15312 4.92973 0.939482 6.02105 1.12459 7.07112L1.18853 7.43369C1.18853 7.43395 1.18861 7.4342 1.18861 7.43455L1.33574 8.26874C1.58238 9.66746 2.54076 10.7647 3.77224 11.2554L3.84881 11.6897C3.85603 11.7306 3.82879 11.7763 3.79123 11.7904L2.27229 12.3576C0.693959 12.9469 -0.239322 14.579 0.0532947 16.2381L1.34451 23.5609C1.38404 23.7854 1.51122 23.9849 1.69788 24.1156C1.84329 24.2175 2.01568 24.2711 2.19082 24.2711C2.24049 24.2711 2.29042 24.2668 2.34009 24.258L4.09657 23.9483L6.47214 37.7237C4.21542 39.0442 2.13298 40.6518 0.251724 42.5331C-0.0838615 42.8686 -0.0838615 43.4128 0.251724 43.7485C0.58731 44.084 1.13147 44.084 1.46714 43.7485C6.95167 38.2639 14.2436 35.2435 22 35.2435C29.7564 35.2435 37.0484 38.2639 42.5329 43.7485C42.7007 43.9162 42.9206 44.0002 43.1406 44.0002C43.3605 44.0002 43.5805 43.9162 43.7482 43.7485C44.0838 43.4129 44.0838 42.8687 43.7482 42.5331C41.8669 40.6515 39.7844 39.0438 37.5277 37.7234ZM3.17532 5.03483C3.51761 4.54593 4.02979 4.21963 4.61761 4.11599C4.74832 4.09295 4.87834 4.08178 5.00673 4.08178C5.77647 4.08178 6.48426 4.48217 6.88876 5.11381L6.23237 4.86923C5.8393 4.7227 5.39749 4.88177 5.1878 5.24529C4.81165 5.8979 4.17047 6.34727 3.42866 6.47806L2.78817 6.59099C2.71933 6.04081 2.85503 5.49227 3.17532 5.03483ZM3.10657 8.28009L3.72712 8.17069C4.72511 7.99469 5.61457 7.47485 6.253 6.71104L7.4208 7.14614L7.42931 7.19418C7.64321 8.40753 6.83015 9.56872 5.61689 9.78262C4.51019 9.97735 3.44722 9.31821 3.10657 8.28009ZM5.55854 11.5214C5.67704 11.5114 5.79598 11.4962 5.91526 11.4752C6.03437 11.4542 6.1509 11.4272 6.26546 11.3962C6.33894 11.6883 6.48211 11.9491 6.67486 12.1633L6.18743 13.421L5.39921 12.4701C5.53439 12.1805 5.59274 11.8541 5.55854 11.5214ZM4.70131 17.5112C4.6189 17.0437 4.1734 16.7317 3.70581 16.814C3.2384 16.8964 2.92627 17.3422 3.00869 17.8095L3.79278 22.2562L2.88794 22.4157L1.74601 15.9394C1.59733 15.0962 2.07154 14.267 2.87359 13.9675L4.04526 13.53L5.79813 15.6448C5.96287 15.8435 6.20633 15.9557 6.45968 15.9557C6.50548 15.9557 6.55163 15.9521 6.59769 15.9446C6.89847 15.8957 7.15096 15.6911 7.26104 15.4069L8.28456 12.7659L9.62587 12.7769C10.482 12.7841 11.2113 13.4012 11.36 14.2442L12.5019 20.7207L11.5971 20.8802L10.813 16.4336C10.7307 15.9662 10.2848 15.6542 9.81751 15.7365C9.3501 15.8189 9.03797 16.2646 9.12039 16.732L9.90448 21.1787L7.6958 21.5682C7.69555 21.5682 7.6952 21.5683 7.69494 21.5683C7.69469 21.5683 7.69434 21.5684 7.69408 21.5684L5.4854 21.9579L4.70131 17.5112ZM8.06628 36.854L5.78919 23.6495L7.14709 23.4101L9.40493 36.2149C8.95281 36.4175 8.50654 36.6304 8.06628 36.854ZM18.1008 5.61809C18.1007 3.46802 19.8499 1.71876 21.9999 1.71876C24.15 1.71876 25.8993 3.46793 25.8993 5.61809V10.6234C25.8079 10.5986 25.715 10.5769 25.6204 10.5594L24.0677 10.2723C24.0365 10.2665 24.0139 10.2393 24.0139 10.2076V9.78872C24.6918 9.21534 25.1234 8.35924 25.1234 7.40387V6.01563C25.1234 5.541 24.7387 5.15626 24.264 5.15626H19.7359C19.2613 5.15626 18.8765 5.541 18.8765 6.01563V7.40387C18.8765 8.36302 19.3115 9.22213 19.994 9.79551V10.2076C19.994 10.2393 19.9713 10.2665 19.9401 10.2723L18.3875 10.5594C18.2902 10.5774 18.1946 10.5996 18.1008 10.6254V5.61809ZM21.9999 8.8086C21.2254 8.8086 20.5952 8.17842 20.5952 7.40387V6.87501H23.4046V7.40387H23.4047C23.4047 8.17842 22.7745 8.8086 21.9999 8.8086ZM22.6488 11.2716L22.0001 12.1544L21.3549 11.2767C21.5215 11.0545 21.6376 10.7938 21.6863 10.5115C21.7895 10.5219 21.8941 10.5273 21.9999 10.5273C22.1085 10.5273 22.2157 10.5217 22.3214 10.5108C22.3696 10.7912 22.4843 11.0503 22.6488 11.2716ZM21.1406 33.5244H20.1093V28.4451H21.1406V33.5244ZM23.9015 33.5244H22.8702V28.4451H23.9015V33.5244ZM24.7608 26.7264H22.0108H21.9999H21.9698H19.2499H18.6088L19.79 20.0233H24.2778L25.4 26.7264H24.7608ZM25.0053 15.0914C24.5307 15.0914 24.146 15.4761 24.146 15.9508V18.3047H19.9401V15.9508C19.9401 15.4761 19.5553 15.0914 19.0807 15.0914C18.6061 15.0914 18.2213 15.4761 18.2213 15.9508V19.0225L17.9829 20.3758C17.8811 20.3334 17.7697 20.3099 17.6527 20.3099H17.3034V13.9279C17.3034 13.105 17.8907 12.3991 18.6998 12.2495L19.7888 12.0482L21.3079 14.1146C21.4698 14.3349 21.7269 14.4651 22.0004 14.465C22.2738 14.4649 22.5308 14.3348 22.6928 14.1145L24.2121 12.0469L25.3079 12.2495C26.1171 12.3992 26.7044 13.105 26.7044 13.9279V20.3099H26.3551C26.2574 20.3099 26.1639 20.327 26.0764 20.357L25.8647 19.0926V15.9508C25.8647 15.4761 25.48 15.0914 25.0053 15.0914ZM39.3822 4.11599C39.97 4.21963 40.4822 4.54593 40.8245 5.03483C41.1449 5.49227 41.2806 6.0409 41.2118 6.59099L40.5713 6.47806C39.8295 6.34727 39.1882 5.8979 38.812 5.24529C38.6548 4.97261 38.3672 4.815 38.0672 4.815C37.9672 4.815 37.8658 4.83253 37.7674 4.86923L37.111 5.11381C37.5831 4.37681 38.4679 3.95468 39.3822 4.11599ZM36.5706 7.19409L36.5791 7.14606L37.7469 6.71095C38.3854 7.47477 39.2748 7.9946 40.2729 8.1706L40.8935 8.28C40.5527 9.31821 39.4901 9.97795 38.3831 9.78253C37.1698 9.56863 36.3567 8.40745 36.5706 7.19409ZM38.5901 12.4453L37.7215 13.422L37.3024 12.188C37.5067 11.9694 37.6582 11.6996 37.7345 11.3962C37.849 11.4272 37.9656 11.4542 38.0847 11.4752C38.2035 11.4962 38.3226 11.5115 38.4413 11.5217C38.4082 11.8449 38.4629 12.1621 38.5901 12.4453ZM31.4978 20.7208L32.6399 14.2442C32.7885 13.4011 33.5178 12.784 34.374 12.7769L35.6835 12.7661L36.5689 15.3727C36.6673 15.6624 36.9123 15.8779 37.2122 15.9386C37.2689 15.9501 37.326 15.9557 37.3827 15.9557C37.6253 15.9557 37.86 15.8527 38.0248 15.6674L39.9326 13.5218L41.1262 13.9675C41.9282 14.267 42.4024 15.0963 42.2538 15.9394L41.1118 22.4159L40.207 22.2564L40.9911 17.8097C41.0735 17.3423 40.7614 16.8966 40.294 16.8142C39.8267 16.7319 39.3809 17.0438 39.2985 17.5113L38.5144 21.9581L36.3057 21.5686C36.3054 21.5685 36.3051 21.5684 36.3048 21.5684C36.3046 21.5684 36.3042 21.5683 36.304 21.5683L34.0953 21.1789L34.8794 16.7321C34.9618 16.2647 34.6497 15.819 34.1823 15.7366C33.7149 15.6541 33.2692 15.9663 33.1868 16.4338L32.4027 20.8804L31.4978 20.7208ZM31.6548 35.0731L33.806 22.873L35.1601 23.1117L32.9687 35.5398C32.5335 35.3739 32.0954 35.2187 31.6548 35.0731ZM34.5949 36.2149L36.8528 23.4101L38.2107 23.6495L35.9336 36.8539C35.4933 36.6304 35.047 36.4175 34.5949 36.2149Z" fill="#936037"/>
</svg>
