<?xml version="1.0" standalone="no"?>
<!DOCTYPE svg PUBLIC "-//W3C//DTD SVG 20010904//EN"
 "http://www.w3.org/TR/2001/REC-SVG-20010904/DTD/svg10.dtd">
<svg version="1.0" xmlns="http://www.w3.org/2000/svg"
 width="700.000000pt" height="700.000000pt" viewBox="0 0 700.000000 700.000000"
 preserveAspectRatio="xMidYMid meet">
<metadata>
Created by potrace 1.14, written by Peter Selinger 2001-2017
</metadata>
<g transform="translate(0.000000,700.000000) scale(0.100000,-0.100000)"
fill="#000000" stroke="none">
<path d="M960 6990 c-25 -4 -61 -10 -80 -14 -129 -21 -328 -109 -441 -195
-170 -130 -308 -319 -376 -516 -62 -180 -57 46 -60 -2730 -2 -2442 -2 -2533
17 -2630 88 -471 442 -816 910 -890 132 -20 5004 -20 5140 0 236 36 435 138
606 309 179 178 283 392 313 642 8 65 11 808 10 2555 -1 2050 -3 2479 -15
2554 -53 342 -268 641 -574 799 -106 54 -188 83 -310 106 -91 18 -202 19
-2595 18 -1375 0 -2520 -4 -2545 -8z"/>
</g>
</svg>
